<svg xmlns="http://www.w3.org/2000/svg" version="1.1" xmlns:xlink="http://www.w3.org/1999/xlink" width="1000" height="1000"><svg width="1000" height="1000" viewBox="0 0 1000 1000" fill="none" xmlns="http://www.w3.org/2000/svg">
<g clip-path="url(#clip0_209_2)">
<rect width="1000" height="1000" rx="200" fill="black"></rect>
<path d="M183.264 470.088C173.238 470.711 163.346 472.718 153.87 476.052C152.625 476.686 151.294 477.136 149.919 477.386C142.747 477.612 135.575 477.512 128.428 477.788C124.441 477.891 120.469 478.312 116.549 479.047C103.388 481.563 90.2764 484.508 77.1399 487.251C72.1068 491.302 65.6141 490.044 59.9518 491.705C58.5811 492.065 57.1426 492.082 55.7641 491.752C54.3856 491.423 53.1097 490.758 52.0498 489.818C51.1987 489.129 50.1372 488.753 49.0425 488.753C47.9478 488.753 46.8863 489.129 46.0352 489.818C44.4875 490.727 42.8518 491.477 41.1531 492.057C36.9504 493.215 34.9372 492.183 32.3451 488.761C28.5277 483.421 26.9474 476.802 27.9411 470.314C28.2683 466.288 26.6577 462.11 26.1544 457.983C25.9277 455.406 25.8521 452.818 25.9279 450.232C26.1768 446.881 25.7751 443.515 24.7451 440.317C23.1008 434.776 21.9553 429.1 21.3225 423.355C21.2678 422.56 21.4149 421.763 21.7504 421.04C22.751 417.88 23.0621 414.542 22.6627 411.251C22.2633 407.96 21.1627 404.793 19.4351 401.964C18.6116 400.698 18.0649 399.273 17.8308 397.781C17.5966 396.289 17.6801 394.765 18.0761 393.307C18.5629 392.309 18.706 391.178 18.4829 390.09C18.2599 389.002 17.6833 388.019 16.843 387.293C13.7477 384.424 13.4205 380.649 12.7914 376.899C12.6617 375.116 12.3754 373.348 11.9357 371.614C8.39544 361.6 6.69043 351.029 6.90261 340.409C6.80048 338.222 6.49721 336.048 5.99664 333.916C5.56883 331.4 5.04035 328.883 4.58737 326.367C3.98339 323.02 3.53042 319.647 2.75029 316.3C1.05081 310.747 0.998364 304.82 2.5993 299.238C3.55607 294.933 3.1425 290.437 1.41651 286.378C-0.647073 280.842 0.10788 275.406 0.258874 269.92C0.409868 264.434 2.29729 259.023 1.51716 253.814C-0.0682799 243.018 1.51714 232.222 0.636343 221.451C0.859501 219.332 1.29798 217.24 1.94497 215.21C2.13532 211.838 2.49651 208.479 3.02711 205.144C4.71321 198.097 4.63771 190.698 8.91587 184.105C10.2641 181.883 10.9432 179.32 10.8718 176.723C10.8003 174.125 9.98145 171.603 8.51321 169.459C8.17986 168.919 7.9629 168.316 7.87623 167.687C7.78956 167.059 7.8351 166.419 8.0099 165.81C10.2903 160.7 11.6124 155.215 11.9106 149.628C12.225 148.108 12.8134 146.659 13.647 145.35C14.3013 144.142 15.8364 143.186 16.0126 141.978C17.3463 132.943 22.9834 125.972 27.2113 118.347C29.3735 114.292 30.5382 109.78 30.6087 105.186C30.7528 101.786 31.9487 98.5149 34.0312 95.8239C37.1266 91.4199 40.1968 86.9404 42.9147 82.2848C44.1677 80.0063 45.019 77.529 45.4313 74.9616C45.7389 72.6763 46.646 70.5132 48.0604 68.6921C49.4749 66.871 51.3462 65.4568 53.4842 64.5933C55.018 63.7406 56.3964 62.6345 57.5611 61.3218C58.5425 60.3907 59.1465 58.8052 60.2538 58.3019C61.7071 57.591 62.9135 56.4601 63.7166 55.0557C64.5198 53.6513 64.8827 52.0381 64.7585 50.4251C64.8342 49.343 65.1325 48.2883 65.6348 47.3269C66.1372 46.3656 66.8327 45.5183 67.6777 44.8383C71.8699 40.6233 75.4682 35.8567 78.3731 30.67C80.7982 26.9797 83.7972 23.7005 87.2566 20.9561C89.7802 18.6965 92.5004 16.6668 95.385 14.8911C96.5838 14.2118 97.9671 13.9299 99.3361 14.0858C100.637 14.312 101.975 14.066 103.11 13.3923C104.245 12.7186 105.102 11.6615 105.527 10.4116C107.792 5.15201 112.347 2.33346 116.776 -0.711587C123.193 -5.11558 129.359 -9.82156 135.751 -14.2004C139.617 -17.0044 143.679 -19.5274 147.906 -21.7501C153.417 -24.4931 159.256 -26.5567 164.893 -29.0481C166.682 -29.9163 168.37 -30.9797 169.926 -32.219C179.91 -39.2985 190.708 -45.1537 202.088 -49.6588C207.121 -51.823 211.852 -55.1701 217.036 -57.0575C226.171 -60.3794 234.652 -65.941 244.718 -66.1423C246.55 -66.2445 248.276 -67.0355 249.55 -68.3569C253.677 -73.0629 260.094 -74.3967 264.297 -79.2536C266.814 -82.1477 271.57 -83.104 275.395 -84.7649C278.742 -85.8523 282.005 -87.1812 285.159 -88.7411C288.657 -90.9305 291.954 -92.9689 296.257 -92.4656C297.976 -92.3773 299.693 -92.6572 301.295 -93.2865C302.896 -93.9159 304.345 -94.8801 305.544 -96.1146C308.703 -98.5955 312.554 -100.037 316.566 -100.242C319.881 -100.894 323.126 -101.863 326.255 -103.136C335.566 -106.231 345.079 -108.874 354.088 -112.724C358.43 -114.621 362.96 -116.055 367.602 -117.002C370.486 -117.666 373.427 -118.045 376.385 -118.135C383.079 -118.135 387.206 -123.797 393.246 -125.181C397.51 -125.945 401.596 -127.489 405.3 -129.736C406.894 -130.389 408.614 -130.673 410.333 -130.566C412.669 -130.424 415.013 -130.593 417.304 -131.07C423.411 -133.419 429.409 -136.027 435.298 -138.896C439.249 -140.834 442.847 -143.502 447.528 -143.476C449.104 -143.762 450.583 -144.437 451.832 -145.439C455.33 -147.402 459.155 -148.56 462.753 -150.145C470.001 -153.341 477.853 -155.329 484.371 -160.212C491.795 -165.899 499.344 -171.939 507.775 -175.739C517.803 -180.246 527.398 -185.663 536.438 -191.92C536.6 -192.045 536.778 -192.146 536.967 -192.222C544.089 -193.682 549.197 -198.413 555.011 -202.289C560.044 -205.661 565.53 -209.838 573.13 -208.454C578.163 -207.498 583.851 -209.058 589.236 -209.486C599.302 -210.266 608.362 -208.655 615.937 -200.98C620.378 -196.385 624.396 -191.399 627.941 -186.082C630.546 -183.068 633.319 -180.203 636.246 -177.5C636.584 -176.997 637.026 -176.573 637.542 -176.256C638.058 -175.939 638.637 -175.736 639.238 -175.662C639.84 -175.589 640.45 -175.645 641.028 -175.827C641.606 -176.01 642.137 -176.314 642.587 -176.72C645.748 -178.927 649.6 -179.919 653.434 -179.514C654.413 -179.311 655.424 -179.311 656.403 -179.514C663.5 -182.03 670.546 -184.698 677.668 -187.063C679.354 -187.642 681.217 -187.692 682.928 -188.171C685.671 -188.685 688.341 -189.53 690.88 -190.687C696.422 -193.951 702.803 -195.509 709.226 -195.167C713.202 -194.991 717.203 -195.443 721.154 -195.167C722.767 -195.126 724.351 -194.736 725.798 -194.023C727.245 -193.311 728.519 -192.293 729.535 -191.04C730.459 -189.725 731.719 -188.682 733.184 -188.02C743.451 -184.144 750.624 -175.437 760.413 -170.781C764.274 -168.541 767.517 -165.376 769.85 -161.571C775.638 -153.216 780.696 -144.382 786.308 -135.902C788.151 -132.601 789.226 -128.928 789.454 -125.156C791.115 -114.939 791.694 -104.595 794.663 -94.5292C796.224 -89.1437 795.569 -83.0788 795.796 -77.3159C795.796 -75.5291 795.469 -73.7172 795.444 -71.9304C795.444 -67.7529 795.444 -63.5754 795.444 -59.3476C795.444 -55.1197 796.224 -54.1634 800.25 -53.0562C802.292 -52.4378 804.259 -51.5937 806.114 -50.5396C814.318 -46.1608 821.717 -40.4733 831.506 -38.9634C838.065 -37.9675 844.26 -35.3077 849.499 -31.2376C852.05 -29.7186 854.77 -28.5024 857.603 -27.6137C862.176 -25.6538 866.342 -22.8541 869.884 -19.3594C874.917 -14.3262 880.554 -9.06659 888.556 -7.98446C890.527 -7.76823 892.433 -7.15772 894.163 -6.18927C895.892 -5.22082 897.409 -3.91422 898.623 -2.34734C902.725 2.68579 908.362 6.51096 913.445 10.6885C917.883 14.4974 921.278 19.3733 923.31 24.8567C926.249 31.2042 930.699 36.7343 936.27 40.9627C942.788 46.5244 949.483 51.8847 955.925 57.547C957.007 58.4781 957.208 60.4158 957.938 61.8251C959.876 65.4993 961.889 69.1483 963.802 72.8476C964.581 74.2046 965.174 75.6606 965.563 77.1761C965.865 78.5099 965.287 80.1205 965.79 81.3536C968.583 88.5007 970.672 96.1259 975.856 101.939C977.598 103.83 978.828 106.134 979.43 108.633C980.229 111.264 981.187 113.844 982.299 116.359C982.424 116.711 982.953 116.938 983.054 117.265C985.57 127.331 990.93 136.366 990.603 147.237C990.737 155.65 991.308 164.05 992.314 172.403C992.401 175.2 992.653 177.99 993.069 180.758C993.699 183.853 994.806 186.848 995.586 189.868C996.089 191.579 996.643 193.291 997.02 194.901C998.002 199.607 999.99 204.389 999.537 208.969C999.084 213.549 997.977 217.953 997.926 222.609C997.876 227.264 996.391 231.844 996.97 236.273C998.052 244.88 994.655 252.807 994.227 261.112C994.001 265.088 992.616 269.09 992.918 272.965C993.482 280.389 992.274 287.841 989.395 294.708C987.794 298.582 987.18 302.794 987.608 306.964C988.087 311.846 986.627 316.879 988.414 321.761C988.492 322.057 988.509 322.365 988.466 322.667C988.423 322.97 988.32 323.261 988.162 323.523C984.765 329.386 984.815 336.106 983.28 342.447C982.057 346.48 980.368 350.357 978.247 353.998C976.691 357.575 975.608 361.34 975.026 365.197C973.063 374.232 973.944 384.172 967.476 391.999C966.588 393.539 966.055 395.259 965.916 397.032C965.035 401.083 964.33 401.889 960.279 401.511C954.566 400.958 948.853 400.177 943.216 399.12C940.966 398.47 938.809 397.531 936.799 396.327C935.717 395.799 934.735 394.666 933.678 394.591C927.966 394.238 927.437 390.111 927.639 386.009C927.851 384.031 927.54 382.032 926.736 380.212C925.932 378.393 924.664 376.816 923.059 375.641C920.477 373.155 918.393 370.2 916.918 366.934C915.843 364.581 913.92 362.72 911.533 361.724C909.3 360.527 907.17 359.147 905.166 357.597C898.094 353.243 891.929 347.355 883.347 345.492C880.111 344.433 877.062 342.871 874.313 340.862C871.612 339.2 868.5 338.328 865.329 338.345C862.178 338.191 859.134 337.153 856.546 335.351C849.197 330.469 841.723 326.643 832.563 326.316C829.82 326.316 826.825 323.8 824.56 321.686C822.262 319.326 819.187 317.878 815.903 317.609C809.587 317.03 803.32 316.099 796.903 315.822C793.146 315.337 789.481 314.293 786.032 312.727C784.535 312.131 782.922 311.887 781.316 312.014C779.71 312.141 778.155 312.634 776.771 313.457C773.395 315.229 769.53 315.839 765.773 315.193C759.457 314.539 752.939 314.035 746.748 316.577C745.807 316.921 744.799 317.042 743.804 316.929C738.519 316.275 734.392 318.767 729.711 320.729C725.03 322.692 719.796 326.92 713.529 325.435C712.329 325.247 711.099 325.46 710.031 326.039C705.854 328.229 701.701 330.469 697.7 332.96C691.132 337.012 684.815 341.214 676.863 342.624C673.591 343.177 670.697 346.122 667.677 348.034C664.658 349.947 662.166 351.885 659.222 353.445C654.994 355.685 651.496 358.201 650.036 363.159C648.693 367.12 647.087 370.987 645.23 374.735C644.557 376.073 644.234 377.559 644.291 379.055C644.348 380.552 644.784 382.009 645.557 383.291C648.602 388.828 647.872 392.905 643.594 397.51C642.997 398.253 642.145 398.747 641.203 398.894C636.799 398.693 633.653 401.587 630.281 403.474C625.751 405.991 621.297 408.507 616.818 411.024C616.314 411.301 615.434 411.427 615.308 411.829C613.647 416.988 609.293 419.001 604.914 421.166C604.452 421.515 604.065 421.953 603.775 422.454C603.486 422.956 603.3 423.51 603.228 424.085C602.297 429.873 598.598 433.094 593.514 435.309C591.917 436.12 590.497 437.241 589.337 438.605C588.292 439.979 586.807 440.953 585.131 441.365C583.456 441.777 581.689 441.602 580.126 440.87C578.872 440.28 577.464 440.095 576.1 440.342C570.045 441.638 563.784 441.638 557.729 440.342C556.494 440.214 555.3 439.828 554.225 439.208C553.149 438.588 552.217 437.748 551.488 436.743C546.329 430.653 540.767 424.915 535.281 419.127C534.366 418.393 533.326 417.83 532.211 417.466C527.178 415.151 523.101 412.207 522.899 405.689C522.548 400.282 521.859 394.903 520.836 389.583C520.554 388.211 520.016 386.905 519.25 385.732C517.086 382.159 514.796 378.686 512.556 375.138C512.33 374.81 512.279 374.332 511.977 374.106C509.461 372.067 505.812 370.583 504.629 367.965C503.042 364.959 500.327 362.706 497.079 361.699C494.867 360.954 492.58 360.448 490.259 360.189C487.944 359.661 485.679 358.956 483.364 358.428L464.087 354.024C460.967 353.294 457.796 352.69 454.726 351.809C447.031 349.591 439.008 348.739 431.02 349.292C428.836 349.234 426.67 348.887 424.577 348.261C422.319 347.461 419.982 346.905 417.606 346.6C414.606 346.541 411.693 345.576 409.251 343.832C407.199 342.555 404.853 341.827 402.438 341.716C400.023 341.606 397.621 342.118 395.46 343.202C393.973 344.031 392.31 344.495 390.608 344.556C388.906 344.617 387.214 344.274 385.671 343.555C383.849 342.72 381.843 342.37 379.846 342.537C377.849 342.705 375.929 343.385 374.271 344.511C371.506 346.496 368.073 347.318 364.708 346.801C362.695 346.373 359.675 348.185 357.888 349.796C355.681 351.883 352.963 353.354 350.009 354.06C347.054 354.767 343.965 354.685 341.052 353.822C338.646 353.111 336.104 352.991 333.641 353.473C331.179 353.955 328.869 355.024 326.909 356.591C321.625 360.376 315.167 362.16 308.689 361.624C305.915 361.57 303.222 362.558 301.14 364.392C299.11 365.968 296.936 367.35 294.647 368.519C286.543 372.395 278.566 376.245 271.998 382.788C269.27 385.764 265.71 387.851 261.78 388.777C254.784 389.834 251.286 394.767 246.958 399.095C245.074 401.146 242.739 402.731 240.138 403.726C235.79 405.327 232.021 408.193 229.317 411.955C225.941 416.112 222.791 420.446 219.88 424.94C219.38 426.238 219.207 427.638 219.376 429.017C219.376 431.987 219.376 434.956 219.376 437.926C219.28 439.63 218.794 441.29 217.957 442.778C217.119 444.265 215.952 445.541 214.544 446.507C211.046 449.502 207.876 452.849 204.478 456.02C200.301 460.047 196.224 464.199 191.895 467.999C189.53 470.289 186.359 471.749 183.264 470.088ZM900.208 291.009C899.234 296.957 900.355 303.059 903.379 308.272C903.93 309.446 904.824 310.426 905.942 311.082C907.061 311.737 908.352 312.039 909.645 311.947C912.029 311.964 914.405 312.208 916.742 312.676C927.337 314.488 937.051 320.226 948.174 319.773C949.231 319.773 950.338 320.679 951.395 321.208C955.598 323.296 959.675 321.61 960.43 317.156C961.188 312.83 961.658 308.458 961.839 304.07C961.909 298.844 963.102 293.694 965.337 288.97C966.642 286.496 967.325 283.74 967.325 280.943C966.565 272.367 966.751 263.733 967.879 255.198C967.905 253.389 967.796 251.58 967.552 249.787C967.552 246.038 967.803 242.238 967.728 238.513C967.923 235.535 967.694 232.544 967.048 229.63C965.492 224.219 965.659 218.458 967.526 213.146C969.441 205.789 968.956 198.013 966.142 190.95C964.632 186.496 961.688 182.394 963.626 177.26C963.814 176.076 963.601 174.862 963.022 173.812C961.184 169.282 961.31 164.426 960.329 159.795C958.819 152.799 956.227 146.055 954.113 139.184C953.029 135.763 951.109 132.667 948.526 130.175C945.046 126.755 942.965 122.162 942.688 117.29C942.324 112.479 940.786 107.83 938.208 103.751C935.516 98.9948 933.175 93.6848 927.84 90.9418C926.003 89.9351 924.996 87.3431 923.637 85.4305C920.894 81.5801 918.227 77.6795 915.433 73.8794C914.01 72.0227 912.481 70.2498 910.853 68.5695C906.845 63.8874 902.577 59.4344 898.069 55.2317C893.537 51.3293 889.375 47.016 885.637 42.3469C882.517 38.4965 879.069 34.7972 875.722 31.2236C874.917 30.3429 873.91 29.613 873.205 28.7071C866.486 20.1256 857.024 15.3189 847.763 10.2858C846.156 9.4585 844.359 9.06799 842.554 9.15335C841.283 9.33719 839.986 9.10587 838.857 8.49376C837.728 7.88164 836.827 6.92146 836.287 5.75601C834.831 3.64968 832.756 2.04888 830.348 1.17584C825.919 -0.535427 821.163 -1.34071 816.633 -2.97648C813.17 -4.02188 809.802 -5.36054 806.567 -6.97785C799.017 -11.0044 791.744 -15.3832 784.27 -19.5607C777.953 -23.0084 771.385 -26.0283 765.22 -29.6269C763.001 -31.235 761.198 -33.3486 759.96 -35.7925C758.454 -38.6021 757.183 -41.5313 756.16 -44.5502C755.476 -46.1452 755.084 -47.8499 755.002 -49.5833C755.422 -52.6862 755.632 -55.8138 755.631 -58.9449C754.474 -67.2999 753.291 -75.5794 754.902 -84.1106C755.013 -85.899 754.826 -87.6936 754.348 -89.4206C753.392 -94.9318 752.36 -100.418 751.328 -105.904C751.086 -107.245 750.715 -108.56 750.221 -109.83C748.736 -113.529 747.201 -117.229 745.54 -120.852C744.789 -122.671 743.771 -124.367 742.52 -125.886C739.047 -129.761 735.172 -133.284 731.825 -137.235C728.478 -141.186 726.238 -146.547 720.676 -148.56C719.644 -148.937 718.915 -150.196 718.16 -151.076C716.526 -153.105 714.395 -154.676 711.974 -155.637C709.553 -156.599 706.924 -156.917 704.344 -156.563C696.089 -155.279 687.558 -154.902 680.99 -148.459C679.303 -147.022 677.29 -146.019 675.127 -145.54C670.093 -144.156 665.06 -143.023 660.027 -142.042C653.534 -140.884 646.865 -140.532 640.473 -138.972C632.445 -137.034 625.097 -137.411 618.177 -142.092C616.58 -143.316 614.839 -144.338 612.992 -145.137C609.875 -146.266 607.026 -148.029 604.626 -150.317C602.226 -152.604 600.327 -155.365 599.051 -158.425C597.9 -161.21 596.476 -163.874 594.798 -166.377C590.318 -172.618 584.555 -172.241 580.378 -168.516C578.865 -167.322 577.258 -166.253 575.571 -165.32C574.388 -164.616 573.055 -164.037 571.947 -163.282C569.833 -161.948 567.719 -160.564 565.631 -159.155C560.019 -155.355 552.318 -155.858 547.587 -150.196C546.882 -149.365 545.07 -149.466 543.586 -149.365C542.57 -149.402 541.575 -149.082 540.77 -148.461C539.966 -147.841 539.404 -146.959 539.182 -145.968C538.776 -144.62 538.059 -143.387 537.089 -142.369C536.118 -141.35 534.921 -140.574 533.595 -140.104C531.644 -139.431 529.972 -138.13 528.838 -136.405C528.083 -134.676 526.935 -133.148 525.484 -131.942C524.033 -130.736 522.321 -129.886 520.483 -129.459C518.952 -128.946 517.534 -128.143 516.306 -127.094C508.164 -120.618 499.106 -115.385 489.429 -111.566C482.383 -108.622 474.103 -108.068 468.743 -101.5C468.136 -100.967 467.361 -100.664 466.553 -100.644C460.237 -99.8391 454.449 -96.7186 447.83 -96.7186C444.986 -96.7186 442.168 -94.202 439.299 -92.8431C435.927 -91.2577 432.529 -89.6974 429.082 -88.2881C427.647 -87.6841 425.559 -87.9609 424.602 -87.0298C420.324 -82.7768 414.788 -81.7954 409.352 -80.3609C402.054 -78.4232 394.605 -76.8629 387.458 -74.4721C382.576 -72.8364 378.222 -69.6655 372.635 -70.9741C371.429 -71.1607 370.195 -70.9299 369.137 -70.3198C363.812 -67.118 357.734 -65.3816 351.521 -65.2867C351.13 -65.2062 350.75 -65.0795 350.389 -64.9092C345.532 -63.6509 340.65 -62.3926 335.868 -61.0588C332.675 -59.9601 329.549 -58.6744 326.507 -57.2085C323.99 -56.076 321.473 -53.7608 318.957 -53.7105C315.383 -53.7105 313.018 -51.5966 310.174 -50.3634C308.714 -49.7343 307.381 -48.8535 305.946 -48.1489C301.467 -45.9343 297.012 -43.7197 292.533 -41.6058C287.298 -39.0892 282.265 -35.6667 276.754 -34.5846C270.323 -33.3749 264.28 -30.6295 259.138 -26.5819C254.157 -22.8773 248.429 -20.3011 242.353 -19.0322C231.959 -16.5156 221.314 -14.6534 212.481 -7.93412C212.319 -7.81733 212.141 -7.72412 211.952 -7.6573C206.139 -5.59371 200.376 -3.4798 194.538 -1.49172C190.632 -0.589452 187.058 1.38964 184.22 4.2209C183.036 5.30272 181.663 6.15597 180.168 6.73747C174.38 9.78251 167.862 11.9719 162.955 16.0739C158.048 20.1759 152.41 22.4408 147.075 25.4607C140.583 29.1349 134.115 33.1614 130.24 39.629C126.72 45.7288 121.145 50.3767 114.511 52.7403C113.068 53.1675 111.744 53.9241 110.644 54.9504C109.543 55.9767 108.696 57.2446 108.169 58.6542C107.254 60.8363 106.195 62.9549 104.998 64.996C100.871 72.898 92.944 77.4027 87.5838 84.3232C83.4566 89.7087 78.5744 94.3895 76.3095 101.033C75.2601 104.308 73.0253 107.072 70.0433 108.784C67.8216 110.082 65.9571 111.911 64.6173 114.107C63.2776 116.303 62.5045 118.798 62.3677 121.367C62.1268 125.505 61.4434 129.605 60.3293 133.598C59.1968 138.329 55.724 141.852 54.2896 146.331C52.5531 151.818 52.5783 157.882 48.426 162.538C47.8723 163.167 48.0485 164.476 47.8723 165.457C46.9664 169.962 46.1862 174.492 45.1292 178.946C44.3742 182.016 43.116 184.961 42.3107 188.031C41.5054 191.101 40.9517 194.649 40.0961 197.896C38.41 203.681 38.0573 209.772 39.0644 215.713C39.6321 217.635 39.6321 219.68 39.0644 221.602C36.9504 226.031 37.3279 230.586 37.3782 235.191C37.4286 239.797 38.1081 245.258 37.7306 250.165C36.8266 257.744 37.3472 265.426 39.2657 272.814C39.92 275.003 40.1464 276.69 38.0577 278.074C35.9689 279.458 35.9438 281.597 37.0259 283.862C37.9539 285.64 38.6879 287.513 39.2153 289.449C40.099 292.293 40.5569 295.253 40.5742 298.231C39.7794 305.593 40.6392 313.038 43.0908 320.025C44.2836 322.978 44.5727 326.219 43.9213 329.336C43.6367 333.105 44.0114 336.895 45.0286 340.535C45.903 343.385 46.5674 346.295 47.0166 349.242C47.0166 356.188 49.4074 362.605 50.716 369.249C51.4662 372.549 51.6786 375.948 51.3451 379.315C50.8104 383.253 51.6076 387.257 53.6101 390.69C56.4035 395.924 59.7002 400.983 60.279 407.199C60.6565 411.15 63.5254 412.962 67.1241 411.024C76.083 406.217 86.2751 407.148 95.6367 404.204C102.96 401.889 111.214 402.468 117.43 396.78C117.984 396.277 118.94 396.277 119.695 396C125.735 393.76 131.749 391.445 138.418 392.628C139.215 392.698 140.018 392.577 140.759 392.275C148.56 389.759 155.581 386.613 159.18 378.409C161.026 374.873 161.535 370.79 160.614 366.908C158.375 358.025 159.281 348.915 160.463 340.082C161.646 331.249 162.426 322.743 162.98 314.01C162.963 309.802 163.241 305.597 163.81 301.427C164.867 295.916 166.679 290.657 165.446 284.843C164.993 282.679 166.327 280.162 166.679 277.797C167.646 272.908 168.243 267.953 168.466 262.974C168.309 256.511 170.33 250.182 174.204 245.006C177.475 240.577 180.596 236.324 180.948 230.561C181.308 228.986 182.051 227.525 183.113 226.308C185.461 223.021 186.452 218.957 185.881 214.958C185.519 211.726 186.381 208.476 188.297 205.848C189.681 203.659 191.216 201.545 192.676 199.406C195.494 195.279 198.111 190.95 201.207 187.049C208.077 178.367 217.288 172.252 225.693 165.306C232.588 159.594 240.792 155.366 248.115 150.207C250.746 148.448 253.103 146.311 255.112 143.865C260.497 137.221 265.178 129.949 274.565 128.187C275.723 127.848 276.844 127.392 277.912 126.828C283.977 124.311 290.067 121.946 296.106 119.278C303.253 116.233 310.854 113.994 316.113 107.551C317.757 106.089 319.697 104.999 321.801 104.355C326.356 102.291 331.489 101.084 335.415 98.1895C343.141 92.5272 351.068 88.1232 360.707 86.6636C365.035 86.0596 369.238 84.4994 373.541 83.5682C376.838 82.8636 380.185 82.5365 383.482 81.8821C384.74 81.6305 386.426 81.2278 386.98 80.347C387.767 79.1823 388.789 78.1953 389.981 77.4498C391.173 76.7043 392.508 76.2168 393.9 76.0185C398.204 75.0622 402.532 74.1563 406.835 73.3006C415.215 71.5894 423.319 69.0225 432.001 68.9218C438.016 68.9218 444.861 69.2741 449.869 63.8887C451.123 62.8567 452.676 62.2566 454.298 62.1774C459.239 61.5291 464.213 61.1678 469.196 61.0953C474.959 61.0953 480.722 62.2781 486.46 62.1019C491.42 61.9622 496.335 61.1148 501.056 59.5854C504.014 58.3682 507.3 58.1995 510.367 59.1072C519.175 62.2026 527.807 58.931 536.338 57.9244C543.46 57.094 550.129 53.3946 557.754 53.3191C561.503 53.3191 565.153 52.9919 568.097 55.0052C571.595 57.3959 574.59 56.8423 578.289 55.886C587.945 53.0876 598.092 52.4094 608.035 53.8979C612.595 54.6239 617.248 54.5301 621.775 53.6211C623.793 53.1049 625.901 53.0425 627.946 53.4385C629.991 53.8345 631.923 54.679 633.603 55.9112C639.07 60.0581 645.651 62.4768 652.503 62.8569C658.316 63.0582 664.003 65.0715 669.968 63.9894C671.965 63.9842 673.954 64.2466 675.881 64.7695C678.418 65.1813 680.99 65.3331 683.557 65.2224C688.146 64.5612 692.827 65.0631 697.172 66.6821C708.56 71.1601 720.694 73.44 732.932 73.4013C737.711 73.0891 742.475 74.2013 746.622 76.5973C747.78 77.3271 748.988 78.0318 750.145 78.7867C753.464 81.3075 757.386 82.9129 761.52 83.4424C766.517 83.8357 771.411 85.0782 775.991 87.1166C790.674 93.9982 804.727 102.149 817.992 111.477C820.538 113.446 823.634 114.572 826.85 114.698C828.542 114.769 830.201 115.19 831.721 115.935C833.242 116.68 834.591 117.733 835.683 119.027C839.962 123.456 843.837 128.489 849.877 130.955C851.303 131.719 852.475 132.882 853.249 134.302C855.564 138.002 857.578 141.852 859.817 145.652C860.723 147.187 861.529 149.175 862.963 149.98C867.795 152.723 870.966 157.178 874.967 160.751C878.131 163.535 880.134 167.407 880.579 171.598C881.203 176.371 883.079 180.894 886.015 184.709C888.733 188.207 891.602 192.989 891.375 197.015C891.249 202.162 891.782 207.304 892.96 212.316C893.866 216.997 895.477 221.526 896.685 226.182C897.767 230.41 899.604 234.764 897.868 239.117C895.855 244.15 897.666 248.605 899.503 252.858C901.654 257.403 901.979 262.601 900.409 267.378C899.651 269.642 899.26 272.012 899.252 274.399C899.428 280.213 899.881 285.598 900.208 290.984V291.009Z" fill="white"></path>
<path d="M464.716 834.99C476.217 832.7 488.472 831.995 498.463 823.791C500.776 822.228 503.228 820.88 505.786 819.765C508.051 818.506 510.417 817.374 512.556 815.939C515.853 813.7 517.463 813.247 519.854 816.09C522.723 819.513 527.152 821.929 527.63 827.188C528.008 828.749 528.819 830.171 529.971 831.29C533.745 835.594 538.502 839.293 541.346 844.125C545.297 850.844 552.267 854.191 556.923 859.828C557.857 860.895 559.006 861.753 560.295 862.345C564.422 864.308 568.852 865.717 571.469 869.895C572.151 870.644 573.019 871.2 573.985 871.505C580.554 874.399 587.147 877.318 593.766 880.112C595.052 880.686 596.435 881.011 597.842 881.068C606.575 881.295 615.333 881.269 624.065 881.647C627.649 881.565 631.138 880.475 634.131 878.501C636.949 876.706 639.893 875.116 642.939 873.745C647.778 871.81 652.215 868.994 656.025 865.44C660.857 861.212 665.765 857.085 670.37 852.631C675.404 848.136 680.035 843.21 684.211 837.909C688.892 831.366 692.314 823.917 696.517 816.971C700.216 810.831 704.067 804.741 708.169 798.852C709 797.797 710.189 797.084 711.511 796.848C712.833 796.611 714.195 796.868 715.341 797.568C721.536 800.359 728.053 802.371 734.744 803.558C740.726 805.198 746.567 807.319 752.209 809.9C756.183 811.246 760.49 811.246 764.464 809.9C771.046 808.186 777.799 807.215 784.597 807.006C792.524 806.829 797.431 801.972 801.105 796.511C803.005 793.055 805.695 790.097 808.957 787.88C814.468 784.608 814.77 778.795 816.507 773.661C817.513 770.641 818.52 767.621 819.351 764.551C820.508 760.323 821.414 756.02 822.572 751.767C824.104 746.147 824.384 740.26 823.392 734.52C822.401 728.781 820.162 723.328 816.834 718.548C816.306 717.743 815.601 716.636 815.777 715.856C815.965 714.344 815.787 712.81 815.257 711.382C814.727 709.954 813.861 708.674 812.732 707.652C808.202 702.442 804.956 696.126 798.69 692.376C795.844 690.212 793.304 687.672 791.14 684.826C790.72 684.336 790.403 683.766 790.207 683.151C790.011 682.537 789.941 681.889 789.999 681.246C790.058 680.603 790.245 679.979 790.549 679.409C790.853 678.84 791.268 678.337 791.769 677.931C793.838 676.422 796.179 675.328 798.664 674.71C803.521 673.728 808.504 673.426 813.412 672.772C814.796 672.538 816.159 672.193 817.488 671.74C819.146 671.026 820.888 670.527 822.672 670.255C830.876 670.255 837.772 666.43 844.617 662.907C849.247 660.059 854.642 658.706 860.069 659.031C861.921 659.185 863.785 658.926 865.525 658.273C867.266 657.621 868.84 656.59 870.135 655.257C874.312 651.457 879.95 649.242 885.234 646.574C887.691 645.351 890.273 644.397 892.935 643.731C896.685 642.749 898.648 645.165 897.566 648.764C896.634 652.01 895.98 655.307 895.225 658.578C894.999 659.56 895.225 660.743 894.671 661.523C889.034 670.255 892.155 679.818 891.853 689.079C891.702 693.03 890.972 696.956 890.871 700.907C890.636 705.498 890.754 710.1 891.224 714.673C892.303 720.811 891.423 727.132 888.707 732.742C887.641 734.879 887.13 737.25 887.222 739.637C887.324 744.903 886.058 750.106 883.548 754.736C882.553 756.271 881.853 757.978 881.485 759.77C881.107 769.257 874.388 775.146 869.179 781.815C866.313 784.894 864.188 788.587 862.963 792.611C862.636 794.409 861.801 796.075 860.557 797.413C859.312 798.751 857.711 799.704 855.941 800.161C852.292 801.217 848.568 801.972 844.969 803.13C843.56 803.583 841.547 804.539 841.245 805.647C839.81 810.931 835.129 811.762 831.178 813.196C827.64 814.495 824.322 816.328 821.339 818.632C817.939 820.686 814.182 822.077 810.266 822.734C804.427 824.169 798.463 825.049 792.65 826.282C790.759 826.56 788.941 827.207 787.3 828.187C785.659 829.167 784.227 830.461 783.087 831.995C782.541 832.715 781.857 833.32 781.075 833.774C780.293 834.227 779.428 834.521 778.532 834.637C772.064 835.015 768.466 840.098 763.986 843.37C762.527 844.402 761.47 846.34 759.859 846.667C755.002 847.749 752.838 851.7 749.793 854.896C748.983 855.767 748.434 856.848 748.207 858.016C747.352 862.471 746.848 867.026 745.917 871.48C745.248 875.453 743.508 879.168 740.884 882.226C738.284 885.455 736 888.927 734.064 892.594C733.098 893.891 732.609 895.482 732.68 897.099C733.963 902.56 730.843 904.497 726.64 906.536C723.59 908.378 720.725 910.51 718.084 912.903C716.992 913.807 715.85 914.647 714.661 915.419C703.538 922.113 692.44 928.782 681.267 935.401C680.469 935.984 679.48 936.244 678.498 936.131C674.145 934.52 670.32 936.131 666.268 937.414C661.252 939.335 655.864 940.084 650.514 939.603C643.619 938.672 636.774 940.786 630.105 942.774C625.413 944.595 620.309 945.083 615.358 944.184C614.182 943.843 612.934 943.843 611.759 944.184C605.065 946.524 598.346 945.341 591.626 944.863C587.902 944.586 584.077 945.794 580.327 945.392C572.777 944.536 565.354 942.875 557.829 941.868C553.098 941.214 548.216 941.415 543.535 940.509C537.646 939.377 531.908 937.515 526.12 935.904C525.331 935.734 524.596 935.371 523.981 934.847C520.735 931.45 517.438 928.606 512.078 929.814C510.82 930.116 508.957 928.329 507.548 927.297C504.833 925.682 502.366 923.681 500.225 921.358C496.928 916.929 491.241 914.664 489.328 909.002C488.9 907.719 487.642 906.762 487.013 905.529C484.899 901.276 482.861 896.948 480.847 892.619C479.111 888.844 477.475 885.069 475.688 881.244C475.377 880.492 474.779 879.895 474.027 879.583C468.34 878.124 466.478 873.267 464.615 868.687C462.426 863.024 457.821 860.457 452.888 858.293C446.672 855.575 440.079 853.789 434.442 849.787C432.719 848.784 430.772 848.23 428.78 848.177C421.23 847.522 413.68 847.069 406.13 846.541C404.956 846.297 403.754 846.213 402.557 846.289C396.266 847.623 390.805 845.081 385.117 843.068C377.184 840.191 368.597 839.623 360.354 841.432C354.873 842.839 349.068 842.232 343.996 839.721C340.204 837.935 336.082 836.958 331.892 836.852C321.146 836.248 310.501 834.688 299.78 833.606C297.641 833.379 295.427 833.606 293.262 833.606C290.483 833.499 287.716 833.187 284.983 832.675C280.116 831.751 275.34 830.395 270.714 828.623C266.884 826.684 263.259 824.366 259.893 821.702C258.282 820.57 257.074 818.682 255.338 817.927C250.154 815.612 247.637 811.485 245.674 806.376C242.033 797.226 236.033 789.203 228.285 783.123C225.017 780.847 222.356 777.806 220.534 774.265C219.091 771.649 217.151 769.341 214.821 767.47C211.927 764.727 208.731 762.286 208.253 757.882C208.083 756.888 207.734 755.932 207.221 755.064C202.591 746.054 202.188 736.391 202.188 726.526C201.951 723.737 201.227 721.011 200.049 718.473C198.732 714.518 197.887 710.421 197.532 706.267C196.677 699.02 194.638 691.898 195.368 684.474C191.266 675.364 191.87 665.675 191.744 656.037C191.744 649.267 191.115 642.498 190.637 635.753C190.335 631.551 190.637 627.902 194.764 625.209C196.779 623.559 198.535 621.616 199.973 619.446C200.323 618.885 200.795 618.409 201.353 618.054C201.91 617.699 202.541 617.474 203.197 617.394C203.854 617.314 204.52 617.383 205.146 617.594C205.773 617.805 206.344 618.154 206.818 618.615C208.16 619.489 209.379 620.539 210.442 621.736C213.135 625.184 215.475 628.984 218.269 632.255C221.792 636.282 225.818 639.931 229.568 643.706C230.424 644.561 231.808 645.14 232.085 646.222C234.803 653.394 241.572 656.641 246.882 661.07C252.954 665.646 259.299 669.848 265.882 673.653C268.446 675.182 270.917 676.862 273.281 678.686C277.258 681.339 281.738 683.146 286.443 683.996C293.629 686.475 300.324 690.198 306.223 694.993C307.932 696.329 309.918 697.266 312.036 697.736C322.278 699.599 332.521 701.687 342.864 702.769C350.662 703.209 358.412 704.27 366.042 705.94C368.217 706.307 370.444 706.222 372.585 705.689C383.683 703.801 395.234 704.581 405.602 698.793C405.954 698.592 406.307 698.265 406.684 698.265C413.479 698.265 419.468 695.32 425.684 693.232C426.287 693.09 426.916 693.101 427.513 693.264C428.111 693.426 428.659 693.735 429.107 694.163C429.433 694.842 429.602 695.586 429.602 696.34C429.602 697.093 429.433 697.837 429.107 698.516C427.613 700.122 425.794 701.392 423.772 702.241C418.759 704.301 414.352 707.6 410.962 711.829C408.723 714.799 405.35 716.862 402.884 719.781C398.681 724.664 395.183 729.848 394.63 736.718C393.992 739.673 392.615 742.418 390.628 744.695C389.119 746.795 388.293 749.308 388.263 751.893C388.095 755.687 387.649 759.463 386.929 763.192C385.823 768.939 386.544 774.888 388.993 780.204C389.444 781.108 389.717 782.091 389.798 783.098C389.798 791.831 395.007 797.896 400.971 803.231C403.143 804.992 404.759 807.343 405.627 810C406.59 813.494 408.497 816.655 411.138 819.137C413.78 821.618 417.054 823.325 420.601 824.068C421.605 824.201 422.567 824.553 423.419 825.1C428.628 829.755 435.222 829.177 441.463 830.133C445.565 830.812 449.566 832.247 453.668 833.153C457.041 833.832 460.639 834.285 464.716 834.99Z" fill="white"></path>
<path d="M946.312 882.804C945.421 879.215 944.799 875.564 944.45 871.882C944.416 867.735 944.736 863.593 945.406 859.501C946.216 855.195 946.156 850.772 945.23 846.49C944.324 843.093 945.054 839.293 944.852 835.694C944.651 832.095 943.896 827.767 943.82 823.79C943.433 816.807 943.626 809.804 944.399 802.853C944.977 798.948 944.977 794.98 944.399 791.075C943.644 785.522 942.864 779.96 942.059 774.39C942.019 773.185 941.781 771.995 941.354 770.867C940.445 768.958 939.94 766.882 939.871 764.769C939.801 762.655 940.169 760.551 940.952 758.586C941.647 757.127 941.807 755.471 941.405 753.905C938.888 749.25 939.744 744.67 940.65 739.913C941.933 733.093 937.957 727.507 935.617 721.593C935.059 720.457 934.769 719.209 934.769 717.944C934.769 716.679 935.059 715.43 935.617 714.295C936.99 711.629 937.636 708.648 937.49 705.652C937.345 702.657 936.412 699.753 934.786 697.232C932.981 694.194 932.007 690.734 931.963 687.2C931.919 683.666 932.806 680.182 934.534 677.1C935.794 674.856 937.593 672.962 939.769 671.589C943.398 669.248 946.395 666.048 948.493 662.273C950.591 658.498 951.726 654.264 951.798 649.946C952.427 640.006 951.597 629.99 951.798 619.999C952.14 616.646 952.927 613.354 954.138 610.209C954.87 607.834 955.023 605.318 954.585 602.871C954.148 600.424 953.132 598.117 951.622 596.142C948.652 591.788 949.105 592.09 951.622 587.888C954.493 582.715 956.926 577.31 958.895 571.731C959.977 568.888 959.801 565.616 960.631 562.646C960.883 561.74 962.871 560.482 963.601 560.734C965.632 561.505 967.533 562.583 969.238 563.93C971.754 565.717 973.667 567.982 976.133 569.617C979.139 571.628 981.662 574.28 983.521 577.382C985.379 580.485 986.526 583.961 986.879 587.56C988.011 595.11 989.396 602.66 990.478 610.033C990.604 611.423 990.604 612.821 990.478 614.211C990.327 618.388 989.169 622.515 990.478 626.794C990.679 627.983 990.619 629.203 990.302 630.367C989.597 636.13 988.968 641.893 988.112 647.631C987.694 649.588 987.139 651.514 986.451 653.394C985.797 655.659 985.268 657.949 984.564 660.189C983.968 662.054 983.271 663.886 982.475 665.675C981.242 668.393 978.952 670.959 978.725 673.728C978.247 680.019 975.076 685.103 972.635 690.513C972.1 691.811 971.352 693.011 970.421 694.061C963.953 700.705 964.733 708.28 967.552 716.081C969.787 721.244 971.066 726.769 971.327 732.389C971.581 734.513 972.114 736.594 972.912 738.58C973.654 740.176 974.162 741.871 974.422 743.613C974.07 750.634 977.543 756.196 980.386 762.185C980.603 762.525 980.78 762.888 980.915 763.267C982.777 772.629 985.344 781.89 983.23 791.629C982.249 796.083 980.89 801.066 981.947 805.218C983.582 811.51 983.054 817.65 983.406 823.891C983.758 829.654 984.237 835.417 984.564 841.205C984.718 842.805 984.564 844.419 984.111 845.961C983.618 847.348 983.417 848.822 983.521 850.29C983.625 851.758 984.031 853.189 984.715 854.493C985.61 857.769 985.833 861.194 985.369 864.559C985.369 869.114 983.859 873.87 984.74 878.173C985.433 881.884 985.057 885.715 983.658 889.221C980.467 897.766 979.556 906.994 981.015 915.997C981.166 916.787 981.166 917.598 981.015 918.388C979.505 926.617 977.794 934.821 976.41 943.076C975.841 946.399 975.639 949.775 975.806 953.142C976.292 957.95 975.42 962.797 973.29 967.134C972.355 969.684 971.648 972.311 971.176 974.986C970.502 978.102 969.437 981.121 968.005 983.97C965.13 988.953 963.547 994.576 963.399 1000.33C963.287 1002.66 962.605 1004.94 961.411 1006.95C956.026 1015.1 952.503 1024.18 948.073 1032.82C947.468 1034.3 947.285 1035.92 947.545 1037.5C948.552 1045.35 944.324 1051.26 940.524 1057.38C938.501 1060.09 936.811 1063.03 935.491 1066.14C933.377 1072.73 928.696 1077.33 924.267 1082.19C923.713 1082.8 922.807 1083.2 922.556 1083.88C920.24 1090.09 915.006 1093.94 910.929 1098.8C908.152 1102.49 904.432 1105.37 900.158 1107.13C897.149 1108.63 894.411 1110.62 892.055 1113.02C888.088 1116.93 883.757 1120.45 879.12 1123.54C874.022 1126.7 869.206 1130.3 864.725 1134.28C860.623 1137.71 856.521 1140.58 850.909 1140.8C850.135 1140.82 849.374 1141 848.676 1141.34C847.977 1141.67 847.358 1142.15 846.857 1142.74C845.121 1145.63 842.453 1145.68 839.685 1146.31C837.024 1147.04 834.482 1148.14 832.135 1149.59C829.015 1151.32 826.221 1153.69 823.025 1155.25C815.476 1159 807.624 1162.8 799.722 1165.94C795.402 1167.46 790.999 1168.74 786.535 1169.77C774.833 1173.14 763.307 1177.32 751.303 1179.56C743.93 1180.97 737.311 1183.99 730.265 1185.85C722.715 1187.86 714.889 1188.49 707.188 1189.88C704.593 1190.27 702.057 1190.99 699.638 1192.01C694.073 1194.75 687.807 1195.74 681.67 1194.83C679.605 1194.36 677.455 1194.39 675.405 1194.92C673.354 1195.46 671.463 1196.48 669.892 1197.9C667.666 1199.57 664.949 1200.46 662.166 1200.42C654.063 1201.38 646.086 1203.29 638.008 1204.55C629.929 1205.81 622.203 1206.79 614.276 1207.67C611.909 1208.16 609.454 1207.98 607.18 1207.16C605.679 1206.37 603.991 1205.99 602.294 1206.07C600.597 1206.16 598.955 1206.7 597.541 1207.64C593.835 1209.21 589.724 1209.54 585.814 1208.6C583.483 1208.4 581.138 1208.45 578.818 1208.75C573.13 1209.23 567.695 1210.61 561.705 1208.4C557.276 1206.76 551.865 1207.54 546.908 1207.77C541.95 1207.99 537.823 1208.7 533.243 1206.96C529.856 1205.9 526.362 1205.22 522.824 1204.92C521.649 1204.98 520.503 1205.31 519.477 1205.88C513.216 1208.69 506.305 1209.72 499.496 1208.88C491.6 1207.69 483.592 1207.45 475.639 1208.15C469.654 1208.5 463.655 1208.5 457.67 1208.15C454.116 1207.73 450.6 1207.04 447.151 1206.08C438.872 1204.24 430.97 1199.84 421.985 1202.76C420.812 1203.08 419.58 1203.12 418.387 1202.89C404.973 1200.67 391.308 1200.75 377.971 1198.18C373.34 1197.27 369.087 1194.61 364.583 1193C361.737 1192.13 358.847 1191.42 355.926 1190.86C355.548 1190.86 355.095 1190.86 354.718 1190.86L325.802 1183.08C322.064 1181.78 318.214 1180.82 314.302 1180.21C310.909 1180.04 307.625 1178.96 304.789 1177.09C300.738 1174.08 296.042 1172.06 291.074 1171.18C288.995 1170.49 287.003 1169.57 285.135 1168.43C282.039 1167.13 278.893 1165.92 275.748 1164.76C272.602 1163.6 268.45 1163.12 265.682 1161.14C258.736 1156.1 249.676 1154.47 244.24 1147.12C242.803 1145.76 241.084 1144.74 239.207 1144.12C233.218 1141.33 227.379 1138.49 224.108 1132.15C222.838 1130.37 221.094 1128.98 219.075 1128.14C213.438 1125.22 206.895 1124.07 202.239 1119.24C201.35 1118.41 200.255 1117.83 199.068 1117.57C189.958 1115.36 184.22 1108.84 178.407 1102.15C171.008 1093.59 163.157 1085.39 155.557 1076.98C154.709 1075.88 153.991 1074.68 153.418 1073.41C151.102 1069.21 148.804 1065.02 146.522 1060.83C146.22 1060.3 145.666 1059.82 145.591 1059.29C144.308 1049.85 138.041 1043.24 132.631 1036.14C127.22 1029.04 122.111 1021.22 116.801 1013.67C116.449 1013.19 115.896 1012.76 115.745 1012.21C112.624 1001.16 106.333 991.671 100.645 982.007C100.402 981.688 100.215 981.331 100.092 980.95C98.7074 974.13 97.1471 967.335 96.065 960.49C95.3352 955.784 95.8385 950.902 91.0319 947.631C89.8239 946.775 89.5219 944.46 89.0689 942.749C85.7974 930.166 85.3444 916.979 80.6132 904.723C81.5444 898.633 77.3417 893.801 76.4861 888.139C76.4762 887.534 76.3022 886.942 75.9828 886.428C70.6728 880.841 71.9563 873.216 70.0185 866.622C69.2887 864.106 70.5974 861.136 71 858.368C71.5558 855.636 71.9256 852.87 72.1072 850.089C71.8099 845.082 72.363 840.062 73.7431 835.241C74.2422 832.717 74.0332 830.104 73.139 827.691C71.7896 823.896 71.8972 819.735 73.441 816.014C74.394 812.967 75.0348 809.83 75.3536 806.653C76.5112 800.814 78.5749 798.826 83.7338 800.865C88.8928 802.903 93.3974 802.425 98.2292 803.079C103.061 803.733 103.69 804.564 102.734 808.892C101.288 815.125 101.934 821.66 104.571 827.49C105.056 829.224 105.235 831.029 105.099 832.825C105.477 839.796 105.779 846.792 106.207 853.763C106.34 855.168 106.636 856.553 107.088 857.89C110.661 869.919 113.681 882.2 118.135 893.927C121.18 901.955 121.809 910.285 123.621 918.439C125.465 928.065 128.482 937.43 132.605 946.322C133.914 948.99 136.028 951.355 137.639 953.872C139.702 957.244 142.672 960.541 143.301 964.215C145.037 973.3 149.466 981.076 153.669 989.028C155.229 991.998 157.016 994.892 158.853 997.761C161.949 1002.62 164.994 1007.55 168.366 1012.26C170.498 1014.9 172.784 1017.42 175.211 1019.81C175.973 1020.42 176.665 1021.13 177.275 1021.89C180.244 1027.05 183.147 1032.24 185.982 1037.47C188.951 1042.91 191.745 1048.44 194.79 1053.85C195.684 1055.18 196.809 1056.33 198.112 1057.25C203.698 1061.86 207.926 1067.72 212.733 1073.01C217.54 1078.29 223.051 1083.78 228.461 1088.96C228.75 1089.24 229.105 1089.44 229.493 1089.54C238.352 1091.8 243.511 1099.13 250.205 1104.39C254.035 1106.92 258.087 1109.1 262.309 1110.91C263.366 1111.46 264.826 1111.61 265.556 1112.44C270.06 1117.95 276.452 1118.48 282.769 1119.46C284.591 1119.56 286.342 1120.2 287.802 1121.3C294.345 1128.22 303.984 1128.85 311.735 1133.25C313.194 1134.11 315.384 1133.63 316.969 1134.33C320.238 1135.75 323.386 1137.44 326.381 1139.37C330.531 1142.21 335.305 1144 340.298 1144.6C341.279 1144.75 342.613 1144.17 343.267 1144.6C350.817 1150.21 360.43 1147.3 368.433 1150.67C372.074 1152.27 375.868 1153.5 379.757 1154.34C388.459 1156.45 397.339 1157.74 406.282 1158.19C408.658 1158.4 411.004 1158.86 413.278 1159.58C414.436 1159.83 415.568 1160.36 416.726 1160.51C424.024 1161.41 431.322 1162.34 438.645 1163.02C446.597 1163.83 454.55 1164.51 462.502 1165.14C472.266 1165.89 482.031 1166.7 491.82 1167.13C495.408 1167.2 498.99 1166.79 502.465 1165.89C507.675 1164.66 512.531 1163.88 517.388 1167.3C519.014 1168.49 520.939 1169.21 522.948 1169.37C524.956 1169.53 526.97 1169.13 528.763 1168.21C534.229 1166.15 540.142 1165.58 545.901 1166.55C553.073 1167.4 560.17 1168.43 567.191 1165.31C568.938 1164.87 570.779 1164.99 572.451 1165.67C579.232 1167.54 586.354 1167.82 593.263 1166.5C604.89 1164.73 616.55 1163.22 628.243 1161.94C632.974 1161.41 637.781 1161.79 642.562 1161.66C654.405 1161.35 666.196 1159.98 677.794 1157.56C680.324 1156.91 682.951 1156.74 685.545 1157.03C690.47 1157.98 695.562 1157.53 700.242 1155.73C708.547 1152.78 716.952 1150.09 725.408 1147.32C727.414 1146.41 729.574 1145.88 731.775 1145.76C738.318 1146.34 743.502 1142.79 749.265 1140.73C753.568 1139.29 758.123 1138.49 762.552 1137.43C763.131 1137.28 763.836 1137.43 764.339 1137.23C770.53 1134.13 776.67 1130.96 782.836 1127.82C786.957 1125.42 791.227 1123.28 795.62 1121.42C803.923 1118.58 811.61 1114.18 818.269 1108.46C820.821 1106.6 823.563 1105 826.448 1103.71C826.775 1103.51 827.354 1103.71 827.605 1103.38C834.853 1095.98 847.033 1095.3 852.444 1085.29C853.163 1084.33 854.093 1083.54 855.162 1083C862.229 1078.41 868.792 1073.09 874.741 1067.12C878.322 1063.96 882.288 1061.27 886.544 1059.11C887.434 1058.68 888.196 1058.03 888.752 1057.21C889.309 1056.39 889.64 1055.44 889.714 1054.46C889.872 1052.64 890.513 1050.91 891.571 1049.42C892.629 1047.94 894.065 1046.77 895.729 1046.03C898.069 1044.9 898.673 1042.88 899.454 1040.42C901.161 1035.15 903.431 1030.09 906.223 1025.32C907.707 1023.05 908.645 1020.46 908.966 1017.77C908.936 1015.19 909.829 1012.69 911.483 1010.72C916.34 1006.97 916.692 1001.54 916.944 996.679C917.435 990.658 919.359 984.842 922.556 979.717C926.731 972.46 929.386 964.428 930.357 956.112C930.579 951.732 931.71 947.447 933.679 943.529C936.195 939.402 935.944 935.048 936.85 930.946C938.334 924.201 938.586 917.18 940.046 910.411C941.228 904.849 943.644 899.539 945.079 894.003C945.754 890.304 946.166 886.561 946.312 882.804Z" fill="white"></path>
<path d="M930.684 469.156C930.684 475.674 931.741 482.242 928.746 488.534C928.14 490.037 928.034 491.696 928.444 493.265C928.856 494.588 928.991 495.981 928.839 497.358C928.687 498.735 928.253 500.066 927.564 501.268C927.014 502.319 926.853 503.532 927.111 504.69C929.627 513.196 926.632 520.771 923.462 528.371C922.226 531.323 921.176 534.348 920.316 537.431C917.307 548.454 912.29 558.828 905.518 568.032C903.144 571.511 901.232 575.284 899.831 579.256C899.278 581.161 898.316 582.923 897.012 584.418C895.708 585.913 894.094 587.106 892.281 587.913C890.904 588.495 889.662 589.358 888.636 590.445C887.609 591.532 886.82 592.821 886.317 594.23C883.574 600.546 878.214 604.573 872.627 608.197C868.145 611.241 863.49 614.023 858.685 616.526C853.4 619.043 848.392 622.415 842.378 623.497C839.257 624.051 836.288 625.359 833.218 626.165C829.367 627.146 825.517 628.052 821.641 628.807C817.128 629.413 812.728 630.676 808.58 632.557C805.085 633.958 801.309 634.518 797.558 634.193C787.693 634.016 778.256 637.364 768.466 637.414C766.134 637.688 763.774 637.249 761.697 636.156C759.214 634.467 756.269 633.587 753.266 633.639C739.505 632.594 726.086 628.84 713.781 622.591C706.81 619.118 699.789 615.746 692.843 612.223C690.995 611.377 689.296 610.238 687.81 608.851C682.349 603.34 675.227 600.32 668.785 596.52C666.48 595.458 664.569 593.697 663.324 591.486C660.808 584.516 655.774 579.734 650.515 575.179C648.385 573.392 646.907 570.949 646.312 568.233C645.725 566.574 644.875 565.019 643.796 563.628C639.517 557.085 635.231 550.559 630.936 544.049C630.548 543.587 630.265 543.046 630.105 542.464C629.481 536.712 627.44 531.204 624.166 526.433C621.952 522.684 620.341 518.506 622.38 513.85C622.714 512.479 622.581 511.036 622.002 509.748C619.626 502.979 618.885 495.745 619.838 488.634C620.229 484.85 621.877 481.306 624.519 478.568C626.46 476.595 627.751 474.074 628.218 471.346C628.917 468.064 630.471 465.025 632.723 462.538C636.335 458.243 640.723 454.666 645.658 451.993C648.954 450.307 651.37 446.96 654.541 445.022C658.392 442.506 662.62 440.82 666.646 438.681C671.749 435.972 677.156 433.877 682.752 432.44C686.874 430.985 690.85 429.148 694.63 426.953C698.581 425.066 702.532 423.128 706.534 421.392C707.833 420.881 709.214 420.608 710.61 420.586C714.41 420.36 718.16 420.461 720.677 416.56C721.482 415.352 724.779 415.201 726.767 415.528C729.526 415.898 732.334 415.587 734.946 414.622C739.677 413.137 744.609 412.307 749.466 411.275C750.233 411.049 751.057 411.112 751.781 411.451C755.959 414.144 759.86 412.106 763.861 410.998C765.95 410.445 768.114 410.092 770.253 409.715C772.392 409.337 774.556 408.935 776.746 408.759C778.671 408.356 780.659 408.356 782.584 408.759C788.173 411.06 794.367 411.45 800.2 409.866C801.171 409.589 802.199 409.589 803.17 409.866C813.01 412.684 823.126 411.426 833.092 412.383C838.577 413.145 843.996 414.331 849.298 415.931C853.753 417.013 858.182 418.271 862.586 419.53C863.947 419.824 865.237 420.379 866.386 421.165C872.579 426.035 880.134 428.858 888.003 429.243C889.719 429.559 891.365 430.181 892.86 431.081C897.113 433.22 901.265 435.636 905.619 437.624C906.85 438.02 907.983 438.673 908.942 439.541C909.901 440.409 910.664 441.471 911.181 442.657C912.109 445.008 913.523 447.135 915.332 448.901C917.141 450.666 919.302 452.029 921.675 452.899C928.067 455.416 930.03 459.744 930.307 465.784C930.357 466.74 930.483 467.948 930.684 469.156ZM864.549 547.698C873.03 547.547 876.15 545.408 878.944 537.632C879.9 534.99 881.46 532.599 882.114 529.831C883.008 526.812 883.374 523.662 883.197 520.519C883.02 518.733 880.957 517.097 879.698 515.486C878.44 513.876 877.182 512.341 876.125 510.68C872.023 504.489 868.223 498.097 861.026 494.976C860.336 494.553 859.771 493.954 859.39 493.24C851.337 482.318 839.459 476.857 827.807 471.094C824.988 469.685 821.893 468.829 818.974 467.596C813.932 465.715 808.7 464.39 803.371 463.645C794.292 461.458 784.845 461.278 775.689 463.116C769.221 464.518 762.863 466.386 756.664 468.703C751.857 470.641 747.352 473.233 742.017 473.611C741.363 473.611 740.759 474.517 740.13 474.97C732.907 480.254 725.936 485.917 718.387 490.673C713.001 494.07 709.478 499.833 703.287 502.048C702.96 502.048 702.734 502.627 702.432 502.878C695.813 508.289 693.171 516.191 689.673 523.514C689.405 524.469 689.405 525.479 689.673 526.433C689.97 530.777 689.101 535.121 687.156 539.016C686.371 540.397 685.956 541.957 685.948 543.546C687.433 554.141 696.014 563.678 706.836 562.999C710.444 562.787 714.029 562.282 717.556 561.489C727.622 559.149 732.454 553.612 733.788 543.319C733.902 542.116 734.427 540.988 735.275 540.127C736.123 539.265 737.242 538.722 738.444 538.588C741.899 537.563 744.895 535.376 746.924 532.398C749.074 529.796 751.706 527.634 754.675 526.031C759.457 523.514 764.742 522.004 769.599 519.941C770.93 519.496 772.12 518.706 773.046 517.65C774.034 516.235 775.477 515.201 777.135 514.72C778.792 514.239 780.565 514.341 782.156 515.008C788.272 516.719 794.89 513.146 800.754 516.921C800.88 516.921 801.156 516.921 801.358 516.921C806.391 514.857 810.191 516.921 813.664 520.343C814.618 521.084 815.668 521.693 816.784 522.155C823.403 525.829 830.047 529.478 836.64 533.203C837.939 533.774 839.077 534.656 839.954 535.771C840.832 536.885 841.422 538.199 841.673 539.595C841.818 541.012 842.448 542.335 843.457 543.339C844.466 544.344 845.792 544.968 847.21 545.106C852.671 545.987 858.534 546.817 864.448 547.698H864.549Z" fill="white"></path>
<path d="M404.52 657.421C400.267 656.087 396.644 658 392.592 659.283C388.54 660.567 383.507 659.459 378.952 659.283C374.976 659.107 371.025 658.805 367.074 658.503C356.278 657.723 345.457 657.018 334.686 655.986C332.974 655.515 331.345 654.785 329.854 653.822C325.676 652.01 321.499 650.148 317.271 648.437C310.074 645.518 302.549 643.555 295.729 639.402C288.773 635.543 282.358 630.778 276.654 625.234C275.169 623.724 272.753 623.17 271.042 621.811C266.845 618.126 263.011 614.048 259.591 609.631C253.979 603.264 251.412 595.086 246.052 588.844C242.999 585.11 240.662 580.844 239.157 576.262C238.248 573.847 237.771 571.292 237.747 568.712C237.759 564.895 236.551 561.174 234.3 558.092C233.101 555.847 232.155 553.475 231.481 551.02C230.273 548.051 228.965 545.132 227.832 542.162C226.071 537.758 223.302 533.556 225.039 528.371C225.22 527.383 225.032 526.362 224.51 525.502C223.33 523.391 222.85 520.96 223.139 518.559C223.428 516.157 224.473 513.91 226.121 512.14C227.279 510.269 228.208 508.267 228.889 506.175C230.968 500.77 234.602 496.102 239.333 492.762C240.839 491.427 242.07 489.812 242.957 488.006C247.99 480.28 256.672 478.216 264.398 474.768C271.497 472.028 277.729 467.43 282.442 461.456C283.575 459.703 285.153 458.282 287.014 457.336C288.874 456.39 290.952 455.953 293.036 456.07C298.321 456.221 302.222 453.806 306.576 451.868C309.327 450.767 312.174 449.925 315.082 449.351C316.038 449.125 317.271 449.553 318.051 449.1C326.28 444.243 335.667 445.878 344.425 444.243C350.25 442.986 356.212 442.479 362.167 442.733C364.385 442.811 366.586 442.317 368.559 441.298C378.952 436.064 390.176 437.548 401.022 437.448C414.148 437.052 427.261 438.561 439.954 441.927C443.746 443.043 447.641 443.777 451.58 444.117C455.078 444.394 458.652 443.613 462.175 443.613C467.387 443.343 472.582 444.4 477.274 446.684C478.902 447.365 480.586 447.904 482.307 448.294C485.705 449.477 489.203 450.484 492.374 451.943C498.036 454.46 503.447 457.555 509.184 459.845C513.815 461.682 516.231 465.684 519.452 468.88C522.436 471.766 525.071 474.993 527.304 478.493C528.878 481.499 530.054 484.696 530.802 488.006C531.584 490.675 532.156 493.401 532.513 496.159C532.966 499.456 533.041 502.803 533.394 506.226C533.512 508.001 533.868 509.753 534.451 511.435C536.499 516.232 536.652 521.628 534.879 526.534C534.367 527.852 534.086 529.248 534.048 530.661C534.199 536.324 534.048 541.86 530.802 546.843C532.06 553.361 527.933 558.721 526.624 564.711C525.051 569.837 522.655 574.674 519.527 579.03C517.113 582.193 515.46 585.87 514.696 589.776C514.156 592.272 512.967 594.581 511.248 596.47C507.775 600.823 504 604.976 500.225 609.052C494.412 615.344 488.624 621.635 482.609 627.65C480.395 629.814 476.998 630.72 474.481 632.683C467.762 637.917 459.683 640.082 452.109 643.479C444.534 646.876 437.009 651.029 428.78 652.967C420.551 654.904 412.724 655.961 404.52 657.421ZM283.071 565.843C283.499 573.267 283.071 578.426 288.104 581.773C292.988 584.766 298.695 586.135 304.405 585.683C310.116 585.231 315.536 582.981 319.888 579.256C324.569 574.928 329.577 570.977 334.333 566.674C337.164 564.191 339.821 561.517 342.286 558.671C344.45 556.154 346.061 553.009 348.049 550.24C348.743 549.065 349.743 548.099 350.943 547.447C354.114 546.245 357.38 545.311 360.707 544.654C365.419 543.9 370.007 542.512 374.347 540.526C379.167 538.649 384.167 537.274 389.27 536.424C390.471 536.35 391.676 536.46 392.844 536.752C394.806 536.928 396.769 537.23 398.757 537.255C402.987 536.897 407.224 537.855 410.887 539.998C412.253 540.832 413.848 541.211 415.442 541.08C416.74 541.058 418.027 541.319 419.213 541.845C420.4 542.371 421.457 543.149 422.312 544.125C424.625 545.97 427.064 547.652 429.611 549.158C433.025 551.129 436.327 553.288 439.501 555.626C445.289 560.483 450.423 566.17 456.487 570.725C463.031 575.532 473.625 574.324 478.004 570.499C481.754 567.252 485.755 564.383 489.303 560.785C491.384 558.904 492.811 556.409 493.377 553.662C493.942 550.915 493.617 548.059 492.449 545.509C489.001 535.695 485.101 526.283 475.639 520.167C466.956 514.555 459.029 507.761 450.473 501.998C444.772 498.312 438.808 495.049 432.63 492.233C430.068 491.26 427.343 490.79 424.603 490.849C419.418 490.573 414.184 491.151 409.101 490.396C404.645 489.318 400.252 487.999 395.939 486.445C393.445 485.698 390.83 485.442 388.238 485.69C382.148 486.622 376.108 487.93 370.119 489.365C364.129 490.799 358.19 493.467 352.125 493.995C345.597 494.842 339.44 497.51 334.359 501.696C332.295 503.181 330.03 504.439 327.866 505.798C326.18 506.88 324.418 507.861 322.833 508.994C319.248 511.836 315.501 514.467 311.609 516.871C307.984 519.011 305.09 522.194 303.304 526.006C302.392 528.386 301.063 530.585 299.378 532.499C292.86 537.859 290.142 545.408 287.223 552.782C285.16 557.664 283.927 562.924 283.071 565.843Z" fill="white"></path>
<path d="M27.5889 693.835C27.5889 690.237 27.3121 686.638 27.5889 683.09C28.1024 679.991 28.8254 676.93 29.7532 673.929C29.9545 673.149 30.6088 672.47 30.6843 671.715C31.9677 658.779 41.4049 651.582 49.8102 643.277C54.1638 639.024 60.6566 638.571 64.5572 633.589C65.6142 632.23 69.1374 632.104 71.3268 632.481C72.6837 632.749 74.0817 632.728 75.43 632.42C76.7784 632.112 78.0469 631.524 79.1534 630.695C84.2056 627.338 90.1786 625.641 96.2409 625.838C98.8337 625.896 101.393 626.433 103.791 627.423C106.634 628.606 108.824 630.418 107.691 634.394C107.456 636.765 107.643 639.16 108.245 641.466C108.396 642.85 108.698 644.234 108.799 645.618C109.201 651.809 109.579 657.974 109.981 664.14C109.981 664.945 110.636 665.901 110.359 666.455C107.842 671.312 110.736 675.213 112.347 679.39C115.409 688.006 117.675 696.885 119.116 705.915C119.569 708.431 120.727 710.772 121.029 713.288C121.319 716.467 121.445 719.659 121.407 722.851C121.407 726.425 121.407 730.024 121.558 733.572C122.171 736.146 121.746 738.858 120.375 741.122C120.022 741.914 119.84 742.771 119.84 743.638C119.84 744.505 120.022 745.363 120.375 746.155C121.542 748.839 121.844 751.819 121.239 754.683C120.635 757.547 119.154 760.151 117.003 762.135C115.624 763.5 113.873 764.427 111.969 764.802C106.623 765.391 101.314 766.273 96.0647 767.445C89.7229 769.257 83.2805 766.74 77.3917 764.324C71.503 761.908 65.6897 758.284 59.7758 755.29C58.0335 754.316 56.1726 753.572 54.2394 753.075C52.0759 752.584 50.0552 751.599 48.3353 750.198C46.6153 748.797 45.2425 747.017 44.3241 744.997C42.4504 741.911 40.9628 738.606 39.8949 735.157C37.1519 723.682 31.565 713.213 28.6962 701.813C28.067 699.296 27.8154 696.78 27.3876 694.263L27.5889 693.835Z" fill="white"></path>
<path d="M656.882 666.229C645.733 662.278 637.429 669.727 627.941 671.514C622.866 672.533 617.688 672.955 612.515 672.772C609.358 672.825 606.211 673.128 603.103 673.678C600.938 673.93 598.774 674.357 596.61 674.659C595.417 674.584 594.22 674.694 593.062 674.987C587.299 677.906 581.385 676.748 575.446 676.194C571.461 675.679 567.413 675.97 563.542 677.05C558.333 678.786 553.778 676.824 548.971 676.169C547.235 675.918 545.499 675.817 543.737 675.691C543.359 675.691 542.881 675.943 542.579 675.691C535.332 672.143 526.423 671.262 522.019 663.108C519.628 658.629 522.598 655.131 524.838 652.237C528.348 648.447 532.07 644.859 535.986 641.491C538.223 639.529 540.082 637.175 541.472 634.545C543.417 630.158 546.428 626.326 550.23 623.397C552.417 621.395 554.239 619.028 555.615 616.401C558.375 611.777 560.895 607.015 563.165 602.132C564.858 598.534 566.092 594.738 566.839 590.833C567.213 587.468 568.266 584.215 569.934 581.27C572.156 577.672 573.373 573.544 573.458 569.316C573.583 565.767 573.86 561.615 578.289 560.583C582.719 559.552 587.676 558.847 591.048 563.226C593.213 566.044 594.421 569.718 596.912 572.134C599.403 574.55 603.078 575.607 605.946 577.696C607.442 579.04 608.672 580.653 609.57 582.452C612.087 586.705 614.402 591.084 616.894 595.362C617.637 596.292 618.481 597.136 619.41 597.879C626.054 604.749 632.521 611.821 639.543 618.389C642.961 621.391 646.76 623.929 650.842 625.939C660.254 630.972 665.539 639.88 671.654 647.883C674.951 652.186 672.485 659.132 667.149 662.127C663.838 663.757 660.405 665.128 656.882 666.229Z" fill="white"></path>
<path d="M183.843 561.817C184.04 563.152 183.724 564.512 182.958 565.624C182.192 566.735 181.033 567.515 179.715 567.806C170.794 570.638 161.687 572.849 152.461 574.425C144.911 575.557 137.362 573.946 129.812 575.28C129.611 575.28 129.384 575.28 129.208 575.28C118.059 578.778 106.232 575.834 95.0329 578.828C94.8401 578.816 94.6468 578.816 94.4541 578.828C89.5971 580.691 84.8911 575.985 79.3547 579.508C75.4288 582.025 69.2884 580.766 64.2553 581.773C60.5837 582.641 57.0152 583.898 53.6102 585.523C49.9864 587.083 46.7399 589.574 42.4618 589.272C41.6608 589.172 40.8517 589.379 40.1969 589.851C36.4975 593.827 30.8856 593.324 26.532 595.715C26.0343 595.982 25.4862 596.143 24.9228 596.186C24.3594 596.23 23.7932 596.155 23.2604 595.966C19.381 594.349 15.6926 592.306 12.263 589.876C10.4055 588.433 9.06212 586.43 8.43207 584.164C7.80203 581.897 7.91878 579.488 8.765 577.293C10.4259 572.26 11.9107 567.605 10.6021 562.194C9.57029 557.79 13.5968 555.299 16.7929 553.487C22.4684 550.644 27.8181 547.193 32.7479 543.194C34.5223 541.839 36.5491 540.852 38.7097 540.29C40.8702 539.729 43.1212 539.604 45.3307 539.922C49.5293 540.227 53.7297 539.356 57.4606 537.406C60.3462 536.101 63.3928 535.187 66.5201 534.688C71.7798 533.556 77.0646 532.624 82.3746 531.744C86.1242 531.114 89.9243 530.938 93.6488 530.208C99.3111 529.101 105.024 528.875 110.636 526.786C116.248 524.697 122.086 525.2 127.799 524.269C132.328 523.489 136.732 522.055 141.237 521.174C145.742 520.293 150.674 519.614 155.43 519.01C159.004 518.582 162.628 518.481 166.227 518.104C171.813 517.55 173.65 518.683 174.808 523.993C176.62 532.398 178.256 540.828 180.093 549.158C180.47 550.895 181.477 552.505 182.005 554.191C182.635 556.783 183.264 559.325 183.843 561.817Z" fill="white"></path>
<path d="M615.132 837.984C605.946 836.826 597.642 835.744 591.728 828.522C590.233 827.159 588.535 826.038 586.695 825.2C583.977 823.488 581.133 821.978 579.9 818.682C579.555 817.954 579.026 817.329 578.365 816.87C574.087 813.649 569.657 810.629 565.53 807.231C563.527 805.609 561.896 803.575 560.749 801.267C559.163 797.87 558.408 794.145 555.011 791.704C553.627 790.723 554.03 788.735 555.741 787.653C556.429 787.243 557.154 786.898 557.905 786.621C565.455 783.827 572.803 780.984 580.303 778.266C581.611 777.738 583.044 777.598 584.43 777.863C594.748 780.807 604.789 778.769 614.855 776.63C616.838 776.348 618.844 776.255 620.844 776.353C622.427 776.595 624.033 776.637 625.626 776.479C633.805 774.264 641.933 776.806 650.087 776.68C652.716 776.662 655.31 777.293 657.637 778.517C660.883 780.229 661.915 785.111 659.851 789.238C654.29 800.563 648.577 811.887 639.568 820.972C637.227 823.337 635.541 826.332 633.352 828.874C632.111 830.457 630.604 831.811 628.897 832.875C624.317 835.392 619.813 838.085 615.132 837.984Z" fill="white"></path>
</g>
<defs>
<clipPath id="SvgjsClipPath1001">
<rect width="1000" height="1000" rx="200" fill="white"></rect>
</clipPath>
</defs>
</svg><style>@media (prefers-color-scheme: light) { :root { filter: none; } }
@media (prefers-color-scheme: dark) { :root { filter: none; } }
</style></svg>