<svg xmlns="http://www.w3.org/2000/svg" version="1.1" xmlns:xlink="http://www.w3.org/1999/xlink" xmlns:svgjs="http://svgjs.com/svgjs" width="1000" height="1000"><rect width="1000" height="1000" rx="300" ry="300" fill="#ffd7c7"></rect><g transform="matrix(0.7726269315673289,0,0,0.7726269315673289,149.9930402808895,250.7169380630089)"><svg xmlns="http://www.w3.org/2000/svg" version="1.1" xmlns:xlink="http://www.w3.org/1999/xlink" xmlns:svgjs="http://svgjs.com/svgjs" width="906" height="645"><svg width="906" height="645" viewBox="0 0 906 645" fill="none" xmlns="http://www.w3.org/2000/svg">
<path d="M798.607 229.907C797.721 228.943 796.83 227.974 796.573 226.578C791.942 220.563 787.413 214.531 782.985 208.479C782.216 207.35 781.113 206.489 779.83 206.016C776.279 204.59 773.194 202.204 770.92 199.126C765.412 193.533 759.241 188.635 752.544 184.541C751.623 183.892 750.511 183.54 749.401 183.188C747.908 182.716 746.42 182.245 745.404 181.055C741.83 176.75 736.929 175.84 731.95 174.915C731.648 174.859 731.345 174.802 731.042 174.745C729.506 174.465 727.99 174.086 726.503 173.61C725.308 173.203 724.142 172.67 722.975 172.137C719.551 170.573 716.131 169.011 712.002 170.622C708.309 169.286 704.43 168.943 700.586 168.603C697.978 168.372 695.386 168.142 692.88 167.605C686.777 166.323 681.22 167.538 675.682 168.749C673.335 169.262 670.991 169.774 668.61 170.096C662.125 171.408 655.737 173.155 649.487 175.326C645.381 176.381 641.724 178.729 639.054 182.023C634.989 186.857 629.942 190.772 624.249 193.508C619.092 195.719 614.397 198.883 610.412 202.834C606.753 206.776 602.638 210.269 598.153 213.239C593.282 216.56 588.688 220.434 587.083 226.827C586.112 230.065 584.616 233.122 582.655 235.876C581.309 237.908 580.614 240.302 580.663 242.739C580.649 243.459 580.72 244.197 580.792 244.939L580.793 244.94C580.998 247.053 581.206 249.199 579.445 251.041C576.512 254.085 576.844 257.711 577.619 261.336C579.292 268.294 582.582 274.761 587.222 280.209C587.896 281.135 588.876 281.792 589.989 282.064C591.69 282.272 593.371 282.616 595.051 282.96C599.165 283.801 603.279 284.642 607.7 283.503C608.898 283.185 610.101 282.889 611.304 282.592L611.311 282.59C616.723 281.255 622.138 279.919 627.072 276.75C632.496 273.374 635.402 269.417 632.911 262.913C632.69 262.517 632.569 262.073 632.56 261.62C632.551 261.166 632.653 260.718 632.858 260.313C633.063 259.908 633.365 259.56 633.736 259.3C634.107 259.039 634.536 258.873 634.986 258.818C636.583 258.003 638.262 257.363 639.995 256.908C641.234 256.767 642.414 256.3 643.415 255.557C644.416 254.814 645.203 253.819 645.696 252.674C649.107 246.768 654.591 242.34 661.083 240.249C662.637 239.699 664.166 239.086 665.693 238.475C667.701 237.671 669.706 236.868 671.765 236.208C672.54 236.045 673.27 235.712 673.901 235.234C674.533 234.755 675.051 234.143 675.418 233.441C677.466 228.93 681.146 228.847 685.131 229.705C689.671 230.858 694.428 230.858 698.968 229.705C699.365 229.496 699.806 229.388 700.255 229.388C700.703 229.388 701.145 229.496 701.542 229.705C704.496 231.909 707.805 231.8 711.115 231.69L711.122 231.69C711.841 231.666 712.56 231.642 713.275 231.642C714.964 231.458 716.672 231.742 718.209 232.465C719.747 233.187 721.056 234.32 721.992 235.738C723.21 237.62 724.815 239.695 727.195 239.695C729.654 240.048 731.935 241.183 733.698 242.933C735.172 243.926 736.761 244.734 738.431 245.341C744.546 247.61 750.69 249.962 751.797 257.821C752.003 258.948 752.507 259.999 753.257 260.865C754.006 261.731 754.974 262.381 756.059 262.747C757.551 263.324 759.1 263.787 760.644 264.248C761.249 264.428 761.852 264.608 762.451 264.795C763.56 264.617 764.691 264.617 765.8 264.795C768.248 265.502 770.777 265.664 773.308 265.826C776.125 266.006 778.945 266.187 781.657 267.12C782.39 267.435 783.186 267.577 783.983 267.534C784.78 267.491 785.556 267.264 786.251 266.871C790.617 264.576 794.273 261.131 796.822 256.908C797.646 255.333 798.148 253.649 798.65 251.963C799.278 249.855 799.906 247.745 801.167 245.839C804.46 240.857 802.827 235.904 799.866 231.421C799.503 230.881 799.056 230.395 798.607 229.907Z" fill="black"></path>
<path d="M342.642 234.963C345.519 235.799 348.146 237.329 350.294 239.419C352.441 241.508 354.042 244.093 354.956 246.946C356.412 250.906 358.267 254.707 360.491 258.292C362.129 260.773 363.222 263.572 363.699 266.505C364.176 269.439 364.026 272.44 363.258 275.312C362.901 276.846 362.114 278.248 360.989 279.352C355.769 284.551 350.142 289.326 344.164 293.631C342.031 295.252 339.538 296.332 336.897 296.78C334.256 297.229 331.546 297.031 328.999 296.205C328.563 296.048 328.129 295.894 327.696 295.74C323.093 294.105 318.676 292.536 315.438 288.54C315.093 288.117 314.481 287.908 313.87 287.699L313.869 287.699C313.6 287.607 313.331 287.515 313.086 287.405C311.324 285.208 309.188 283.395 307.049 281.579C304.419 279.347 301.784 277.11 299.83 274.149C298.623 272.495 296.915 271.272 294.96 270.662C290.614 269.319 287.032 266.828 283.418 264.315C282.268 263.515 281.115 262.713 279.933 261.945C276.078 259.453 271.587 258.447 267.079 257.436C264.176 256.786 261.267 256.133 258.514 255.082C254.035 256.116 249.474 256.285 244.916 256.453C240.321 256.624 235.729 256.794 231.227 257.849C230.785 257.849 230.203 257.849 229.927 258.099C225.329 261.989 219.828 262.794 214.289 263.605C211.159 264.064 208.018 264.524 205.02 265.543C202.447 266.428 200.51 267.175 199.486 269.555C198.574 272.365 196.716 274.771 194.228 276.363C193.458 276.863 192.875 277.602 192.567 278.466C190.821 283.477 186.873 286.45 182.917 289.428C180.602 291.171 178.285 292.915 176.406 295.07C175.838 295.716 175.082 296.308 174.292 296.927C173.39 297.634 172.441 298.377 171.674 299.277C169.425 302.632 166.031 305.052 162.126 306.085C159.965 306.459 157.856 307.037 155.744 307.615C151.448 308.792 147.145 309.971 142.395 309.433C137.225 309.078 132.337 306.947 128.558 303.4C124.075 298.89 123.632 292.774 124.241 286.464C125.076 278.115 128.571 270.648 132.032 263.255C133.159 260.846 134.283 258.444 135.31 256.023C136.61 253.636 138.358 251.522 140.458 249.796C143.883 246.521 146.694 242.66 148.76 238.395C148.919 238.073 149.075 237.744 149.233 237.413C150.58 234.576 152.017 231.551 156.204 231.476C156.647 231.379 157.065 231.191 157.431 230.924C157.798 230.657 158.106 230.318 158.335 229.927C160.132 227.129 162.821 225.444 165.509 223.759C167.581 222.46 169.652 221.162 171.314 219.355C171.806 218.812 172.496 218.675 173.166 218.542C173.589 218.458 174.005 218.375 174.358 218.193C177.291 217.166 179.99 215.567 182.3 213.489C183.881 211.911 185.763 210.669 187.835 209.836C197.96 205.601 208.432 202.25 219.134 199.818C222.149 199.053 225.186 198.54 228.208 198.03L228.21 198.029C231.206 197.523 234.188 197.019 237.122 196.276C245.894 194.334 255.046 195.047 263.412 198.323C265.736 199.126 268.033 200.067 270.275 201.091C271.364 201.592 272.549 201.852 273.748 201.852C274.947 201.852 276.132 201.592 277.221 201.091C283.835 198.766 290.587 198.13 296.316 203.692C297.22 204.331 298.247 204.774 299.332 204.993C309.926 209.298 319.728 215.34 328.334 222.87C329.508 223.908 330.81 224.791 332.209 225.499C336.083 227.464 339.764 229.512 340.76 234.299C340.853 234.503 341.381 234.633 341.91 234.762C342.171 234.826 342.432 234.89 342.642 234.963Z" fill="black"></path>
<path fill-rule="evenodd" clip-rule="evenodd" d="M894.665 258.892C895.036 256.838 895.138 254.731 895.239 252.626V252.625C895.418 248.874 895.598 245.131 897.306 241.715C898.104 240.093 898.457 238.289 898.33 236.485C898.205 233.428 898.682 230.422 899.16 227.411C899.742 223.743 900.326 220.067 899.824 216.283C899.879 214.234 900.664 212.271 902.038 210.749C904.625 206.981 905.684 202.371 904.999 197.853C904.83 196.549 904.646 195.245 904.463 193.94L904.46 193.92C903.866 189.696 903.272 185.472 903.145 181.248C903.087 178.622 902.474 176.038 901.346 173.666C900.697 172.62 900.37 171.408 900.404 170.178C900.439 168.948 900.834 167.755 901.54 166.747C902.862 165.02 903.646 162.941 903.794 160.771C903.942 158.6 903.446 156.434 902.37 154.543C900.356 150.851 899.143 146.932 897.931 143.019C897.245 140.803 896.559 138.588 895.728 136.417C895.666 136.262 895.628 136.092 895.589 135.922C895.524 135.637 895.459 135.352 895.286 135.144C891.667 130.348 888.472 125.246 885.738 119.896C885.185 118.912 884.318 118.142 883.275 117.71C877.34 114.694 872.166 110.393 868.122 105.134L812.987 52.505L812.357 51.7497C812.247 51.7125 812.133 51.6709 812.016 51.625C809.227 50.667 806.185 50.7655 803.465 51.9017C801.322 52.4742 799.046 52.285 797.027 51.3664C795.009 50.4478 793.371 48.8568 792.395 46.8651C791.734 44.4831 790.378 42.3524 788.5 40.7453C786.622 39.1383 784.307 38.1279 781.851 37.8435C777.147 36.9856 773.328 35.5189 771.612 30.4823C771.327 29.608 770.751 28.8572 769.982 28.3541C769.212 27.8509 768.293 27.6254 767.378 27.7149C764.708 27.8403 762.048 27.3048 759.634 26.1559C757.22 25.007 755.127 23.2802 753.541 21.1286C752.135 19.8825 750.486 18.9403 748.698 18.3612C745.322 16.6053 741.707 16.2818 738.104 15.9595C735.121 15.6926 732.147 15.4266 729.327 14.3485C727.818 13.9712 726.417 13.2516 725.231 12.2454C720.222 6.71063 713.414 5.2716 706.385 4.80116C703.267 4.69007 700.173 4.20692 697.17 3.36205C695.708 2.85227 694.135 2.8693 692.536 2.88659C690.838 2.90493 689.11 2.92361 687.456 2.31054C686.914 2.10519 686.324 2.03978 685.734 1.97422C685.21 1.91607 684.685 1.85774 684.191 1.7017C678.379 -0.041727 673.039 -1.20404 666.84 2.11678C664.551 3.31904 662.027 4.00412 659.445 4.12365C656.862 4.24322 654.285 3.79431 651.896 2.80865C649.958 2.22101 647.924 2.02358 645.91 2.22784C643.896 2.43213 641.942 3.03399 640.162 3.99857C639 4.50989 637.775 4.67473 636.566 4.83735C634.895 5.06205 633.257 5.28247 631.86 6.40619C626.937 4.87085 623.002 6.70493 618.73 8.69552C618.151 8.96534 617.566 9.23805 616.972 9.50561C615.797 10.035 614.561 10.4161 613.326 10.7966C610.43 11.6891 607.544 12.5787 605.487 15.3725C604.721 16.3775 603.376 16.1204 602.167 15.8892C601.979 15.8532 601.792 15.8175 601.613 15.7876C599.618 15.3467 597.55 15.3668 595.564 15.8464C593.579 16.3259 591.729 17.2523 590.156 18.5549C589.609 19.1303 588.939 19.5738 588.196 19.8519C587.453 20.13 586.656 20.2354 585.866 20.16C585.538 20.0811 585.197 20.0698 584.864 20.1269C584.531 20.184 584.213 20.3082 583.929 20.4921C581.542 23.1823 578.432 24.542 575.308 25.9077C573.58 26.6634 571.847 27.421 570.231 28.4068C567.19 30.3248 563.774 31.5703 560.213 32.0597C557.753 32.2746 555.362 32.9891 553.187 34.1597C551.013 35.3302 549.1 36.9321 547.566 38.8674C544.072 43.3625 539.013 46.3762 533.397 47.3079C532.387 47.3721 531.411 47.703 530.57 48.2669C529.729 48.8308 529.053 49.6076 528.609 50.518C528.081 51.6297 527.443 52.7144 526.8 53.8068C525.187 56.5485 523.545 59.3382 523.545 62.7221C523.553 63.653 523.364 64.575 522.992 65.4283C522.621 66.2817 522.073 67.0474 521.387 67.6757C516.433 71.6884 518.094 76.642 520.169 80.5716C523.739 87.2687 521.996 92.582 517.955 97.9783C514.492 102.671 509.657 106.171 504.118 107.996C503.046 108.255 502.045 108.749 501.188 109.443C500.331 110.137 499.64 111.014 499.165 112.009C497.973 114.667 496.244 117.05 494.086 119.007C491.929 120.964 489.39 122.454 486.629 123.383C486.013 123.649 485.47 124.059 485.046 124.58C484.622 125.1 484.329 125.714 484.193 126.372C482.173 132.128 479.987 137.745 473.428 139.959C472.74 140.189 472.187 140.778 471.627 141.375C471.241 141.786 470.852 142.201 470.412 142.505C470.155 142.685 469.898 142.868 469.642 143.051C466.694 145.154 463.736 147.265 459.841 144.083C459.169 143.541 457.938 143.593 456.798 143.641C456.481 143.655 456.172 143.668 455.883 143.668C455.268 143.706 454.653 143.747 454.039 143.789L454.019 143.791C448.808 144.146 443.628 144.499 438.559 142.422C438.069 142.22 437.467 142.356 436.857 142.494C436.296 142.621 435.729 142.749 435.239 142.616C435.168 142.596 435.098 142.576 435.028 142.556C434.691 142.46 434.353 142.368 434.016 142.276C430.39 141.282 426.891 140.323 425.248 135.919C424.68 133.964 423.693 132.157 422.354 130.622C421.016 129.088 419.359 127.864 417.5 127.036C416.487 126.549 415.598 125.839 414.898 124.96C414.435 124.457 413.984 123.939 413.533 123.422C410.835 120.324 408.168 117.263 403.165 117.737C402.287 117.839 401.334 117.354 400.406 116.882C400.076 116.714 399.748 116.547 399.429 116.409C398.55 116.129 397.803 115.54 397.325 114.751C396.847 113.963 396.67 113.028 396.827 112.12C397.494 107.309 396.577 102.686 395.658 98.0507C395.356 96.527 395.054 95.0011 394.807 93.4676C394.503 92.6367 394.503 91.7247 394.807 90.8939C396.302 88.2095 394.835 85.968 393.534 84.0031C391.329 80.6548 389.03 77.3814 386.73 74.1065L386.727 74.102L386.725 74.1003L386.723 74.0971C385.071 71.7454 383.419 69.3929 381.801 67.0115C381.451 66.3082 380.868 65.7475 380.152 65.4247C379.436 65.1019 378.63 65.0368 377.871 65.2404C373.287 66.1103 368.546 65.56 364.283 63.663C362.662 63.1535 361.173 62.2912 359.924 61.1381C358.675 59.985 357.697 58.5696 357.06 56.9937C355.621 53.2024 353.408 50.8501 349.007 51.4589C348.347 51.645 347.643 51.596 347.015 51.3206C343.555 48.516 339.423 47.9949 335.286 47.4731C331.912 47.0475 328.533 46.6214 325.512 44.9556C322.281 43.1802 318.743 42.988 315.16 42.7934C313.157 42.6846 311.141 42.5751 309.157 42.1882C306.726 41.9492 304.314 41.5518 301.935 40.9983C300.567 40.4414 299.095 40.1853 297.62 40.2474C296.144 40.3095 294.699 40.6883 293.383 41.358C286.852 45.3984 280.736 43.5443 275.202 39.67C270.542 36.6707 265.431 34.4377 260.064 33.0559C258.688 32.638 257.241 32.5083 255.812 32.675C254.384 32.8416 253.005 33.3011 251.762 34.0245C251.477 34.1642 251.184 34.3152 250.882 34.4702L250.88 34.4712C248.255 35.8212 245.055 37.4675 242.076 34.4396C240.573 34.6685 239.06 34.7364 237.55 34.804C234.861 34.9246 232.183 35.0446 229.596 36.0724C225.724 37.8557 221.54 38.8617 217.281 39.0334C214.307 39.161 211.462 40.2815 209.2 42.2159C202.116 47.8614 194.201 47.2802 186.286 45.4261C184.832 45.0069 183.296 44.9569 181.817 45.2806C180.339 45.6044 178.964 46.2917 177.818 47.2802C177.586 47.4447 177.354 47.6096 177.122 47.7747L177.089 47.7988C170.458 52.5158 163.646 57.362 154.517 55.3332C152.986 54.9042 151.362 54.9381 149.85 55.4306C148.338 55.9231 147.006 56.8521 146.021 58.1006C144.139 60.4156 141.546 61.2252 138.904 62.0501L138.902 62.0507C138.165 62.2807 137.425 62.512 136.695 62.7775C127.817 66.3925 119.69 71.6291 112.73 78.2194C111.37 79.4139 110.249 80.8421 109.129 82.2674C107.24 84.6724 105.358 87.0693 102.352 88.3202C102.266 88.3569 102.192 88.4421 102.118 88.5258C102.025 88.6316 101.934 88.7354 101.826 88.7354C96.9735 90.2952 92.8069 93.0758 88.6377 95.8583C84.8181 98.4073 80.9962 100.958 76.6431 102.572C71.1938 104.606 67.4395 109.195 63.8295 113.607C63.608 113.878 63.3868 114.148 63.1661 114.417C60.5274 117.98 58.0705 121.674 55.8049 125.486C55.5576 125.86 55.2995 126.232 55.0415 126.604C53.0464 129.481 51.0538 132.354 54.1167 136.03C53.4724 137.561 53.5578 139.258 53.6435 140.962C53.7824 143.722 53.9222 146.499 50.962 148.621C49.4815 149.668 48.1464 150.86 46.7953 152.067C45.6463 153.093 44.4849 154.13 43.2133 155.097C39.0918 158.527 35.3191 162.355 31.9501 166.526C29.6497 169.55 26.9607 172.258 23.9524 174.579C23.5977 174.859 23.2317 175.123 22.8556 175.37L22.8583 175.435L16.0988 184.038L9.3393 200.629L5.65231 214.763L0.736328 228.896V235.205C2.25212 236.615 3.09305 238.858 3.03115 241.854C3.04053 245.885 3.63712 249.894 4.80222 253.754C5.55945 256.084 5.90599 258.528 5.82621 260.976C5.71332 263.943 6.5894 266.864 8.31683 269.279C11.1104 273.584 12.6265 278.592 12.6892 283.724C12.6892 284.242 12.6301 284.669 12.5047 285.019L41.6012 348.667C41.7618 348.925 41.903 349.196 42.0233 349.477C43.2453 351.676 44.8774 353.595 46.5081 355.512C48.9399 358.37 51.3685 361.225 52.4287 365.002C52.7304 365.605 53.2421 366.077 53.8677 366.33C56.4964 367.411 58.2312 369.501 59.9667 371.592C61.5197 373.464 63.0737 375.336 65.2692 376.486C65.8828 376.801 66.3565 377.334 66.5976 377.981C67.9536 383.488 72.5751 385.702 76.9752 387.777C78.9642 388.721 80.2651 390.295 81.5704 391.874C82.7895 393.348 84.0123 394.827 85.8031 395.802C89.0853 397.61 92.1764 399.742 95.2705 401.875L95.2716 401.876C99.8992 405.068 104.534 408.264 109.824 410.386C111.138 410.755 112.338 411.45 113.311 412.407C116.532 416.636 121.303 418.023 125.842 419.342C127.777 419.904 129.67 420.454 131.382 421.207C132.609 421.746 133.877 422.247 135.156 422.751L135.16 422.753C139.848 424.602 144.68 426.507 148.18 430.616C151.152 433.753 155.188 435.667 159.498 435.985C161.778 436.328 164.067 436.618 166.356 436.908C169.79 437.343 173.224 437.778 176.628 438.392L176.866 438.44L176.869 438.44C180.941 439.255 185.037 440.074 189.081 441.16C194.008 442.742 199.213 443.27 204.357 442.709C207.641 442.204 210.883 442.968 214.104 443.726L214.106 443.726C215.472 444.048 216.834 444.369 218.194 444.591C223.805 445.415 229.527 445.057 234.992 443.539C238.463 442.597 242.112 442.521 245.619 443.318C247.439 443.835 249.36 443.887 251.207 443.472C253.053 443.056 254.766 442.185 256.19 440.938C259.311 438.279 263.177 436.646 267.259 436.261C273.221 435.462 279.031 433.783 284.5 431.28C285.511 430.808 286.626 430.608 287.738 430.699C288.419 430.718 289.08 430.935 289.64 431.323C290.2 431.712 290.635 432.254 290.893 432.885C291.252 434.103 290.09 435.016 289.122 435.486C287.144 436.943 284.962 438.1 282.646 438.918C277.821 440.091 273.578 442.958 270.691 446.999C268.017 450.916 264.512 454.195 260.424 456.601C258.278 457.865 256.62 459.815 255.719 462.136C255.067 463.664 254.234 465.117 253.398 466.575L253.397 466.576C252.886 467.468 252.373 468.362 251.9 469.276C250.37 471.367 249.661 473.947 249.908 476.527C250.124 478.32 249.883 480.139 249.205 481.813C248.527 483.488 247.436 484.963 246.034 486.102C244.31 487.312 243.001 489.024 242.283 491.004C241.565 492.984 241.474 495.137 242.021 497.171C242.431 499.674 242.033 502.228 241.632 504.808C241.301 506.934 240.968 509.079 241.08 511.229C241.176 513.039 241.068 514.866 240.961 516.696C240.882 518.029 240.803 519.364 240.803 520.694C240.803 520.915 240.769 521.155 240.736 521.395C240.668 521.874 240.6 522.354 240.803 522.686C242.167 524.473 243.041 526.585 243.337 528.813C243.633 531.041 243.341 533.308 242.491 535.388C242.478 535.608 242.547 535.825 242.685 535.997C244.097 537.742 245.009 539.773 245.929 541.821C247.226 544.709 248.539 547.632 251.292 549.834C257.296 554.235 261.993 560.185 264.879 567.047C265.951 570.552 268.37 573.487 271.604 575.211C274.779 576.561 277.835 578.182 280.871 579.793C283.312 581.089 285.741 582.378 288.208 583.513C289.872 583.979 291.605 584.148 293.328 584.011H293.356C296.115 583.123 298.619 583.837 301.112 584.548C302.193 584.856 303.273 585.164 304.37 585.339C305.472 585.537 306.579 585.729 307.69 585.922C312.021 586.672 316.403 587.432 320.697 588.577L321.228 588.717C328.003 590.511 335.402 592.469 342.117 587.83C344.588 586.117 347.484 585.882 350.206 585.661C350.958 585.6 351.698 585.54 352.411 585.45C357.448 584.797 361.404 582.415 365.372 580.026C366.113 579.58 366.855 579.133 367.604 578.698C371.491 576.046 375.591 573.723 379.864 571.752C381.517 571.073 383.079 570.19 384.513 569.123L384.846 568.874C388.398 566.231 388.62 566.066 391.736 569.289C392.271 569.842 392.828 570.38 393.385 570.918C396.172 573.609 398.958 576.299 398.958 580.912C398.956 582.526 399.502 584.093 400.508 585.355C401.514 586.617 402.919 587.5 404.493 587.858C404.942 587.883 405.379 588.016 405.764 588.248C406.15 588.479 406.474 588.801 406.707 589.186C408.178 592.421 410.436 595.059 412.693 597.695L412.695 597.697C414.472 599.773 416.249 601.848 417.638 604.213C420.229 607.899 423.59 610.978 427.49 613.234C429.186 614.302 430.78 615.525 432.25 616.887C434.589 619.639 437.659 621.673 441.105 622.754C442.436 623.05 443.695 623.609 444.807 624.398C445.919 625.187 446.862 626.19 447.581 627.348C448.534 628.753 449.761 629.953 451.187 630.875C452.613 631.797 454.21 632.424 455.883 632.717C461.808 634.041 467.377 636.627 472.211 640.299C473.502 641.227 474.963 641.89 476.512 642.251C478.06 642.612 479.664 642.664 481.232 642.402C485.004 642.283 488.778 642.552 492.495 643.205C499.408 644.298 506.449 644.298 513.361 643.205C517.389 642.498 521.041 640.403 523.684 637.283C524.473 636.355 525.441 635.596 526.53 635.049C527.618 634.503 528.805 634.18 530.021 634.1C533.246 633.604 536.338 632.461 539.111 630.739C541.883 629.018 544.279 626.753 546.155 624.083C546.436 623.702 546.684 623.298 546.932 622.895C547.514 621.948 548.09 621.012 549.06 620.43C554.677 617.117 559.739 612.943 564.06 608.059C565.719 606.167 567.523 604.384 569.331 602.597L569.333 602.595C573.766 598.213 578.227 593.804 580.664 587.692C581.73 585.206 583.229 582.929 585.091 580.967C587.722 578.191 589.624 574.806 590.626 571.115C591.231 568.97 592.363 567.01 593.919 565.414C596.12 563.026 597.761 560.242 599.407 557.446C600.929 554.863 602.456 552.271 604.435 549.973C606.4 547.703 607.286 547.316 610.33 548.616C610.832 548.836 611.334 549.059 611.837 549.284C612.076 549.391 612.315 549.498 612.554 549.605C618.715 552.363 624.971 555.164 632.109 554.151C634.117 554.05 636.09 554.701 637.644 555.978C641.6 558.74 646.106 559.745 650.609 560.75C653.73 561.446 656.849 562.142 659.783 563.422C662.011 564.023 664.386 563.725 666.397 562.592C670.193 561.223 674.206 560.557 678.241 560.627C680.945 560.946 683.679 560.363 686.017 558.966C686.35 558.667 686.75 558.452 687.184 558.341C687.618 558.231 688.072 558.227 688.508 558.33C697.779 560.793 703.479 555.12 707.879 548.506C710.482 544.069 714.001 540.239 718.202 537.27C720.018 536.128 721.57 534.612 722.753 532.822C723.937 531.033 724.725 529.011 725.065 526.893C726.305 520.32 728.447 513.95 731.43 507.964C733.05 504.412 733.5 500.678 733.95 496.942C734.223 494.681 734.495 492.42 735.027 490.197C735.187 488.661 735.521 487.147 736.024 485.687C736.55 484.56 736.823 483.332 736.823 482.089C736.823 480.846 736.55 479.618 736.024 478.491C735.095 476.299 734.337 474.026 733.579 471.749C732.077 467.242 730.571 462.722 727.722 458.788C726.9 457.427 726.595 455.816 726.864 454.249C727.09 452.925 726.986 451.566 726.559 450.292C722.427 443.071 717.324 436.451 711.394 430.616C708.29 429.991 706.566 427.735 704.841 425.477C704.274 424.736 703.708 423.994 703.092 423.31C703.013 423.219 702.935 423.128 702.859 423.037C702.65 422.787 702.45 422.534 702.252 422.283C701.1 420.822 700 419.428 697.557 419.159C694.984 418.882 694.845 416.502 696.506 414.178C697.377 412.924 698.503 411.867 699.809 411.075C701.115 410.284 702.573 409.776 704.088 409.584C707.105 409.425 710.077 408.78 712.888 407.674C713.641 407.441 714.432 407.36 715.216 407.436C716 407.512 716.761 407.743 717.455 408.117C718.862 408.865 720.459 409.179 722.044 409.022C723.63 408.864 725.133 408.241 726.366 407.232C727.803 406.112 729.616 405.587 731.43 405.765C737.969 405.845 744.374 403.913 749.778 400.23C753.532 397.786 757.637 396.113 761.738 394.442L761.742 394.44C764.048 393.501 766.355 392.561 768.596 391.485C771.416 390.647 774.398 390.504 777.285 391.07C778.398 391.189 779.524 391.07 780.587 390.722C781.651 390.374 782.629 389.804 783.456 389.05C789.153 384.157 795.821 380.526 803.022 378.396C805.742 377.421 808.313 376.07 810.66 374.383C810.865 374.248 811.065 374.13 811.26 374.028V373.918L838.912 355.483L853.66 341.349L867.179 323.529L879.469 300.178L888.072 278.671L894.665 258.892ZM615.243 122.126C615.42 122.084 615.603 122.078 615.782 122.11L615.892 122.165C616.162 120.966 617.102 120.762 618.044 120.559L618.166 120.532C618.215 120.522 618.264 120.511 618.312 120.5C618.345 120.492 618.378 120.485 618.411 120.477C618.671 119.911 619.048 119.406 619.518 118.996C619.987 118.587 620.539 118.281 621.135 118.101C621.732 117.92 622.36 117.869 622.978 117.949C623.596 118.029 624.19 118.24 624.72 118.568C626.776 119.479 629.103 119.568 631.223 118.817C634.528 118.153 637.865 117.642 641.203 117.131L641.207 117.13L641.21 117.13C644.691 116.597 648.173 116.064 651.619 115.357C655.55 114.516 659.555 114.071 663.574 114.029C665.274 114.023 666.975 114.051 668.676 114.078L668.686 114.079C674.845 114.179 681 114.279 687.069 112.784C688.417 112.576 689.789 112.576 691.137 112.784C695.991 113.157 700.867 113.157 705.721 112.784C707.277 112.495 708.884 112.668 710.343 113.282C711.674 113.897 713.124 114.216 714.59 114.216C716.057 114.216 717.507 113.897 718.838 113.282C720.316 112.706 721.909 112.488 723.488 112.645C726.589 113.034 729.707 113.304 732.826 113.573C737.915 114.012 743.006 114.452 748.034 115.413C750.728 118.224 753.826 117.642 756.874 117.068C758.116 116.835 759.349 116.603 760.543 116.603C762.649 116.362 764.783 116.573 766.801 117.222C768.82 117.871 770.677 118.943 772.248 120.366C773.434 121.72 775.016 122.666 776.77 123.068C778.524 123.471 780.36 123.31 782.017 122.608C784.348 121.767 786.861 121.568 789.295 122.03C791.729 122.493 793.994 123.6 795.854 125.237C801.701 130.383 808.694 134.055 816.25 135.947C817.598 136.069 818.887 136.56 819.975 137.365C821.063 138.171 821.909 139.259 822.421 140.513C824.554 141.274 826.419 142.64 827.79 144.442C830.366 147.586 833.842 149.865 837.752 150.973C838.948 151.304 840.035 151.943 840.905 152.827C841.774 153.711 842.395 154.809 842.706 156.01C844.263 160.432 845.867 164.854 847.47 169.276C848.004 170.748 848.538 172.221 849.071 173.694C849.291 174.793 849.644 175.862 850.122 176.876C851.273 178.14 851.912 179.788 851.912 181.498C851.912 183.207 851.273 184.855 850.122 186.119C849.717 186.664 849.43 187.288 849.277 187.95C849.125 188.612 849.111 189.298 849.237 189.966C849.649 196.753 847.869 203.098 846.067 209.521C845.57 211.295 845.07 213.075 844.615 214.872C843.471 219.404 843.386 224.139 844.366 228.709C845.694 234.991 845.584 240.692 840.658 245.479C839.589 246.509 839.271 247.907 838.956 249.29C838.822 249.877 838.689 250.461 838.499 251.014C837.997 252.506 837.571 254.032 837.145 255.559C835.951 259.835 834.753 264.127 831.858 267.756C831.602 268.127 831.44 268.554 831.387 269.002C830.197 277.11 825.469 283.287 820.771 289.424C819.681 290.849 818.593 292.271 817.55 293.714C815.843 296.059 814.299 298.519 812.929 301.076C812.502 301.858 812.103 302.666 811.703 303.476L811.698 303.487L811.696 303.49C810.23 306.462 808.742 309.477 805.789 311.453C804.612 312.538 803.841 313.993 803.603 315.576C801.86 321.52 797.896 326.564 792.533 329.662C789.722 331.278 786.992 333.094 784.251 334.916L784.249 334.917C781.217 336.934 778.171 338.959 774.988 340.732C774.187 341.174 773.388 341.626 772.588 342.078L772.585 342.08C766.837 345.328 761.044 348.601 754.122 348.868C752.976 348.916 752.113 349.541 751.276 350.147C750.659 350.595 750.055 351.032 749.362 351.22C742.084 353.296 734.751 355.039 727.389 356.755C725.84 356.837 724.311 357.144 722.851 357.668C714.395 362.204 705.214 362.26 696.033 362.316C694.908 362.323 693.783 362.33 692.659 362.345C691.099 360.721 689.672 361.456 688.313 362.156C687.911 362.362 687.515 362.566 687.124 362.705C679.882 365.558 671.91 365.985 664.404 363.922C663.592 363.922 662.873 363.71 662.133 363.492C660.982 363.153 659.779 362.799 658.095 363.203C654.359 364.061 649.571 364.891 646.057 361.293C643.141 361.096 640.531 360.033 637.922 358.97C635.032 357.793 632.144 356.617 628.844 356.617C626.711 356.583 624.66 355.602 622.567 354.6L622.565 354.6C621.209 353.951 619.836 353.294 618.411 352.881C613.358 351.22 608.406 349.271 603.577 347.041C602.292 346.619 601.126 345.899 600.174 344.938C597.648 341.744 594.147 340.368 590.627 338.984L590.624 338.983L590.622 338.982C589.631 338.593 588.638 338.203 587.665 337.771C585.523 337.091 583.537 335.99 581.826 334.533C575.536 328.522 568.227 323.677 560.241 320.226C558.888 319.663 557.661 318.838 556.631 317.797C555.6 316.757 554.786 315.522 554.235 314.165C552.263 308.641 548.818 303.76 544.273 300.052C540.527 296.913 538.07 292.959 535.612 289.004L535.609 289.001L535.607 288.998C534.707 287.55 533.807 286.101 532.844 284.693C528.264 280.729 525.525 275.495 522.794 270.277C522.455 269.629 522.116 268.982 521.774 268.337C520.597 265.451 519.073 262.719 517.236 260.201C516.726 259.757 516.336 259.193 516.099 258.56C515.862 257.927 515.787 257.246 515.88 256.576C516.818 252.823 514.933 250.003 513.069 247.214L512.906 246.969C512.846 246.878 512.785 246.788 512.725 246.697C508.684 240.609 506.609 234.161 509.127 226.965C509.41 226.364 509.481 225.684 509.331 225.037C509.18 224.389 508.816 223.811 508.297 223.395C507.343 222.452 506.615 221.305 506.169 220.039C505.723 218.773 505.571 217.423 505.723 216.09C505.723 215.975 505.727 215.859 505.733 215.743C505.742 215.567 505.756 215.389 505.769 215.213L505.769 215.209C505.826 214.489 505.88 213.794 505.585 213.322C502.542 208.287 504.231 203.792 505.918 199.306C506.762 197.061 507.605 194.819 507.854 192.512C508.025 191.414 508.609 190.424 509.487 189.744C513.472 187.281 514.081 183.435 514.247 179.339C514.261 177.931 514.644 176.551 515.358 175.337C516.071 174.123 517.091 173.117 518.315 172.421C518.733 172.137 519.163 171.858 519.598 171.576C522.3 169.822 525.158 167.968 526.064 164.368C526.341 163.753 526.833 163.261 527.447 162.984C534.738 159.073 541.53 154.297 547.677 148.76C548.624 148.182 549.663 147.77 550.748 147.542C551.621 147.179 552.508 146.844 553.395 146.51C556.702 145.263 560.012 144.015 562.565 141.288C562.947 140.87 563.407 140.533 563.92 140.295C564.434 140.058 564.989 139.925 565.554 139.904C570.57 140.197 574.595 138.053 578.619 135.91C580.301 135.014 581.982 134.118 583.735 133.401C584.719 133.002 585.656 132.487 586.596 131.972C588.592 130.876 590.597 129.775 593.061 129.775C594.428 129.628 595.691 128.977 596.604 127.949C600.506 123.632 605.515 123.161 610.856 123.466C611.462 123.496 612.077 123.435 612.695 123.374C613.206 123.323 613.719 123.272 614.232 123.272C614.252 123.092 614.309 122.917 614.399 122.76C614.439 122.689 614.486 122.622 614.538 122.56C614.602 122.484 614.675 122.416 614.755 122.356C614.835 122.296 614.921 122.245 615.012 122.205C615.086 122.172 615.164 122.145 615.243 122.126ZM110.488 345.907C104.677 340.416 99.5816 334.215 95.3229 327.449C94.2339 327.22 93.2453 326.653 92.4994 325.827C91.7535 325.002 91.2887 323.961 91.1718 322.855C90.3653 318.37 88.0038 314.313 84.5025 311.398C81.6991 308.822 79.5007 305.657 78.0653 302.131C76.6299 298.604 75.9931 294.804 76.2004 291.002C76.4654 288.554 76.1585 286.077 75.3037 283.767C74.4489 281.457 73.0697 279.377 71.2744 277.691C69.65 276.219 69.4017 274.178 69.1503 272.112C68.9905 270.799 68.8295 269.476 68.3133 268.282C67.9289 266.552 67.3244 264.878 66.5146 263.301C64.4915 260.918 62.9608 258.157 62.0108 255.179C61.0608 252.201 60.7104 249.064 60.9798 245.949C60.9432 243.48 60.5517 241.029 59.8175 238.671C59.1202 236.208 59.0937 233.604 59.7408 231.128C60.3879 228.651 61.6851 226.392 63.4981 224.585C64.6044 223.527 65.2838 222.099 65.4076 220.573C65.7162 217.895 66.6225 215.322 68.0595 213.042C69.4965 210.762 71.4275 208.834 73.7097 207.4C76.0904 205.757 78.0242 203.525 79.9726 201.276C81.2403 199.813 82.5141 198.342 83.9213 197.022C87.2784 193.859 91.1659 191.311 95.4059 189.495C100.41 187.679 105.14 185.183 109.464 182.079C111.015 180.791 112.715 179.694 114.528 178.813C119.421 176.475 123.527 172.764 126.345 168.131C127.152 166.498 128.514 165.205 130.188 164.485C131.861 163.765 133.736 163.665 135.477 164.202C135.707 164.231 135.939 164.231 136.169 164.202C136.499 164.204 136.826 164.208 137.152 164.211C141.181 164.26 144.953 164.305 148.512 160.798C152.164 157.209 157.185 156.341 162.149 155.483C163.616 155.229 165.079 154.976 166.5 154.654C168.296 154.53 170.047 154.041 171.647 153.215C175.812 150.116 180.561 150.141 185.293 150.166C185.716 150.169 186.14 150.171 186.563 150.171H196.027C196.61 150.026 197.19 149.876 197.768 149.727C202.382 148.536 206.898 147.37 211.94 148.87C214.128 149.334 216.389 149.327 218.575 148.85C220.76 148.373 222.819 147.436 224.614 146.103C225.954 145.076 227.489 144.333 229.126 143.919C230.763 143.505 232.467 143.429 234.134 143.695C235.725 144.056 237.08 143.61 238.429 143.166C239.566 142.792 240.699 142.419 241.966 142.533C243.988 142.718 246.01 142.715 248.035 142.712C251.166 142.707 254.304 142.702 257.463 143.391C261.019 143.956 264.647 143.872 268.173 143.142C274.341 141.89 280.727 142.253 286.714 144.193C292.48 146.527 298.622 147.792 304.84 147.929C307.086 147.552 309.393 147.932 311.399 149.009C312.919 150.003 314.642 150.647 316.442 150.891C318.242 151.135 320.074 150.974 321.804 150.42C325.771 149.458 329.666 149.788 333.551 150.116C335.032 150.241 336.512 150.366 337.993 150.42C338.211 150.36 338.44 150.36 338.657 150.42C341.875 152.739 345.602 153.806 349.328 154.872C352.716 155.842 356.103 156.811 359.108 158.722C359.256 158.722 359.425 158.698 359.594 158.673C359.932 158.624 360.271 158.575 360.437 158.722C365.129 163.159 371.049 165.119 376.904 167.058C378.025 167.429 379.144 167.8 380.251 168.186C382.268 168.87 384.123 169.96 385.703 171.387C387.283 172.815 388.555 174.551 389.439 176.489C391.364 180.271 394.083 183.593 397.409 186.23C399.329 187.625 400.85 189.498 401.821 191.663C402.792 193.829 403.179 196.211 402.943 198.572C402.621 201.285 403.279 204.023 404.798 206.293C406.39 208.891 406.925 212.002 406.292 214.983C405.537 220.548 406.574 226.208 409.253 231.144C409.855 232.317 410.169 233.617 410.169 234.935C410.169 236.254 409.855 237.554 409.253 238.727C407.225 242.965 406.32 247.653 406.624 252.342C406.886 254.017 406.774 255.73 406.295 257.357C405.817 258.984 404.984 260.484 403.857 261.751C403.048 262.549 402.581 263.631 402.556 264.768C403.085 268.855 401.791 272.588 400.499 276.313C399.29 279.802 398.083 283.284 398.377 287.045V287.709C396.089 289.566 395.006 292.163 393.936 294.727C392.95 297.093 391.975 299.431 390.075 301.131C388.44 302.61 387.134 304.416 386.242 306.433C385.351 308.45 384.893 310.632 384.9 312.837C384.836 314.285 384.477 315.705 383.844 317.009C383.211 318.313 382.318 319.473 381.22 320.419C379.83 321.883 378.328 323.218 376.804 324.572L376.802 324.574C375.504 325.728 374.19 326.895 372.917 328.168C371.512 329.563 370.559 331.332 369.617 333.082C368.186 335.742 366.778 338.357 363.841 339.542C361.23 340.595 359.685 342.721 358.14 344.846C356.802 346.687 355.465 348.527 353.435 349.67C353.001 349.856 352.802 350.441 352.589 351.066C352.421 351.557 352.245 352.072 351.941 352.438C351.61 352.841 351.297 353.265 350.984 353.689C349.73 355.391 348.472 357.098 345.991 357.474C344.697 357.882 343.501 358.551 342.476 359.439C335.555 364.7 327.665 368.545 319.258 370.758C317.54 371.381 315.954 372.319 314.581 373.525C309.132 377.874 302.557 380.581 295.625 381.329C294.557 381.627 293.54 382.085 292.608 382.685C288.827 384.714 284.584 385.725 280.294 385.619C278.727 385.585 277.169 385.848 275.7 386.393C271.787 387.485 267.762 387.975 263.749 388.464C261.149 388.781 258.553 389.097 255.996 389.576C251.04 390.863 245.883 391.191 240.803 390.544C240.354 390.706 239.876 390.773 239.399 390.74C238.923 390.706 238.458 390.574 238.036 390.351C237.232 390.948 236.938 390.401 236.631 389.828C236.61 389.79 236.59 389.752 236.569 389.714C235.993 389.729 235.229 389.931 234.598 390.097C234.017 390.251 233.548 390.375 233.442 390.295C229.483 387.349 225.324 388.333 221.319 389.28C220.397 389.498 219.483 389.715 218.581 389.88C215.539 390.356 212.429 390.148 209.477 389.271C203.9 387.765 198.109 387.204 192.347 387.611C187.633 388.055 182.912 386.83 179.008 384.152C174.527 381.209 169.548 379.109 164.313 377.953C156.042 376.229 148.208 372.839 141.289 367.99C140.629 367.38 139.845 366.918 138.992 366.634C132.639 365.162 128.068 361.018 123.502 356.879C122.32 355.807 121.137 354.735 119.925 353.711C118.798 352.764 117.643 351.867 116.487 350.97L116.486 350.969L116.485 350.968C114.434 349.376 112.381 347.782 110.488 345.907ZM457.467 281.365C458.735 280.655 460.222 280.44 461.639 280.763H461.667C464.473 280.814 467.201 281.696 469.506 283.297C471.811 284.897 473.59 287.146 474.618 289.757C474.876 290.372 475.043 291.023 475.208 291.67C475.556 293.032 475.899 294.372 477.081 295.292L477.087 295.297L477.088 295.298C477.862 295.989 478.91 296.924 479.848 296.924C479.986 296.921 480.123 296.916 480.26 296.911C480.487 296.901 480.712 296.889 480.935 296.876C482.917 296.767 484.738 296.666 486.38 298.612C487.054 299.417 487.778 300.183 488.499 300.948L488.5 300.949C490.559 303.132 492.603 305.3 493.464 308.271C493.987 309.735 494.655 311.144 495.456 312.477C498.134 318.176 502.185 323.121 507.245 326.867C511.506 330.208 515.238 334.173 518.315 338.629C519.394 340.089 520.73 341.343 522.073 342.604L522.074 342.605C524.142 344.546 526.228 346.504 527.42 349.255C527.698 349.988 528.922 350.444 529.913 350.813C529.965 350.833 530.016 350.852 530.067 350.871C530.107 350.886 530.147 350.901 530.187 350.916C535.127 353.096 539.775 355.885 544.024 359.218C550.236 363.624 555.249 369.512 558.608 376.348C558.843 376.739 559.029 377.157 559.161 377.593C559.397 378.75 560.108 379.734 560.824 380.724C562.128 382.526 563.447 384.349 561.929 387.279C560.831 389.863 559.143 392.153 556.999 393.965C554.856 395.777 552.316 397.06 549.586 397.712C547.499 398.268 545.285 398.102 543.304 397.241C541.133 396.31 538.787 395.853 536.425 395.901C534.063 395.949 531.738 396.5 529.606 397.518C528.367 398.06 527.145 398.653 525.923 399.246C521.9 401.198 517.871 403.153 513.223 403.302C508.776 406.681 503.779 406.265 498.856 405.855C497.529 405.744 496.207 405.634 494.903 405.599C487.721 405.423 480.572 406.625 473.843 409.141C469.248 410.843 464.236 411.066 459.508 409.778C451.723 407.764 444.329 409.058 436.946 410.35L436.262 410.47C433.226 411.161 430.054 410.959 427.13 409.888C425.955 409.229 424.639 408.857 423.292 408.804C421.946 408.751 420.605 409.018 419.382 409.584C418.573 410.02 417.641 410.171 416.737 410.01C415.832 409.849 415.009 409.387 414.4 408.698C412.554 407.035 410.347 405.823 407.952 405.156C401.809 403.219 398.128 398.625 394.724 393.589C394.216 393.049 393.934 392.337 393.934 391.596C393.934 390.855 394.216 390.143 394.724 389.604C395.857 388.11 396.93 386.571 398.002 385.035L398.003 385.033C401.775 379.625 405.528 374.242 411.799 370.924C415.792 368.811 417.626 364.469 419.357 360.374L419.53 359.965C419.567 359.877 419.604 359.79 419.641 359.702C419.675 359.624 419.708 359.545 419.741 359.467C420.312 357.274 421.724 355.395 423.671 354.237C426.828 352.488 429.341 349.772 430.838 346.488C431.632 345.17 432.472 343.876 433.313 342.581C436.112 338.272 438.92 333.949 440.026 328.694C440.303 327.343 441.163 326.137 442.032 324.916C442.642 324.06 443.257 323.197 443.679 322.273C443.793 322.027 443.908 321.78 444.023 321.532C445.782 317.749 447.604 313.829 447.111 309.544C446.585 304.977 449.103 301.269 451.594 297.948C453.421 295.668 454.321 292.782 454.112 289.868C453.911 288.087 454.139 286.284 454.776 284.61C455.24 283.232 456.199 282.076 457.467 281.365ZM501.492 591.898C500.867 591.864 500.223 591.829 499.58 591.953H499.497C497.856 591.34 496.078 591.129 494.292 590.917C491.892 590.632 489.474 590.345 487.348 589.075C486.12 588.287 484.695 588.168 483.264 588.048C481.178 587.874 479.078 587.698 477.552 585.45C475.279 582.648 472.58 580.219 469.554 578.255C468.633 577.534 467.653 576.866 466.672 576.197C463.584 574.091 460.473 571.969 459.066 568.126C458.726 567.536 458.214 567.063 457.599 566.77C453.194 564.234 449.604 560.739 445.986 557.217C444.354 555.628 442.716 554.033 440.995 552.518C439.566 551.403 438.584 549.812 438.227 548.035C438.23 546.359 437.755 544.717 436.858 543.3C435.961 541.884 434.679 540.752 433.163 540.038C431.447 539.207 432.748 537.464 433.938 536.966C435.581 536.323 437.185 535.574 438.787 534.825L438.79 534.824C442.017 533.316 445.24 531.811 448.771 531.182C450.749 530.867 452.636 530.131 454.306 529.024C455.868 527.926 457.671 527.218 459.562 526.958C461.454 526.698 463.381 526.894 465.181 527.529C469.022 528.941 473.24 528.941 477.081 527.529C478.066 527.142 479.075 527.366 480.069 527.587C481.423 527.887 482.748 528.181 483.944 526.92C488.17 527.281 492.336 526.724 496.504 526.168C500.334 525.656 504.165 525.144 508.048 525.343C509.624 525.509 511.217 525.3 512.697 524.734C515.434 523.57 518.511 523.49 521.304 524.513C524.709 525.63 528.39 525.581 531.764 524.374C533.595 523.562 535.534 523.021 537.52 522.769C539.629 522.684 541.72 523.185 543.561 524.216C545.403 525.246 546.923 526.767 547.953 528.608C549.143 530.282 549.715 532.316 549.574 534.365C549.433 536.413 548.586 538.349 547.179 539.844C545.311 542.342 543.768 545.066 542.585 547.952C542.092 549.432 541.384 550.831 540.482 552.103C538.566 554.033 537.229 556.365 535.9 558.683C534.579 560.987 533.267 563.275 531.405 565.138C528.842 567.727 526.744 570.676 524.647 573.625L524.646 573.626C522.462 576.695 520.277 579.766 517.568 582.434C515.38 584.59 512.792 586.069 510.214 587.541C508.193 588.695 506.179 589.846 504.367 591.317C503.52 592.009 502.532 591.955 501.492 591.898Z" fill="black"></path>
</svg></svg></g></svg>