<svg xmlns="http://www.w3.org/2000/svg">
  <symbol id="logo-mark" viewBox="0 0 535 760">
<path
      d="M498.429 323.563C497.402 324.603 496.722 323.563 496.549 322.963C496.07 321.687 495.87 320.323 495.962 318.963C496.136 318.133 496.055 317.27 495.729 316.487C495.403 315.704 494.848 315.038 494.136 314.577C492.388 313.358 491.057 311.631 490.322 309.63C490.121 308.851 489.704 308.145 489.119 307.593C488.534 307.041 487.805 306.666 487.016 306.51C485.724 306.091 484.578 305.314 483.709 304.27C481.973 302.706 480.03 301.388 477.936 300.35C476.05 299.169 474.002 298.271 471.856 297.684C470.152 297.089 468.544 296.249 467.083 295.191C465.749 294.431 464.496 293.484 462.63 294.057C461.908 294.263 461.144 294.271 460.419 294.078C459.694 293.886 459.034 293.501 458.51 292.964C457.176 291.471 455.283 291.031 453.776 289.897C453.29 289.391 452.692 289.007 452.029 288.775C451.367 288.543 450.659 288.471 449.963 288.564C449.643 288.625 449.313 288.598 449.007 288.485C448.702 288.373 448.433 288.179 448.23 287.924C447.995 287.62 447.667 287.401 447.296 287.303C446.925 287.204 446.531 287.23 446.176 287.377C444.457 288.351 443.39 287.204 442.177 286.364C441.585 285.903 441.044 285.38 440.563 284.804C439.39 283.471 438.243 282.444 436.177 282.871C435.017 282.882 433.865 282.683 432.777 282.284C430.757 281.966 428.705 281.908 426.67 282.111C425.924 282.2 425.171 282.015 424.55 281.591C423.539 281.081 422.462 280.713 421.35 280.497C420.132 279.989 418.805 279.797 417.492 279.939C416.18 280.081 414.925 280.553 413.844 281.311C412.791 281.766 411.626 281.901 410.497 281.697C406.644 281.511 402.644 280.551 398.924 282.484C397.871 283.031 396.791 282.484 395.871 282.484C394.179 282.395 392.513 282.931 391.191 283.991C390.124 284.724 389.244 285.711 387.777 285.324C387.678 285.288 387.57 285.288 387.471 285.324C385.578 287.284 383.138 287.084 380.804 287.057C380.375 287.026 379.946 287.128 379.578 287.351C377.924 288.684 375.698 289.097 374.084 290.271C371.591 292.084 368.751 293.297 366.245 294.924C365.527 295.408 364.695 295.693 363.831 295.751C361.144 296.01 358.658 297.289 356.885 299.324C355.885 300.448 354.62 301.305 353.205 301.817C351.752 302.185 350.431 302.954 349.394 304.036C348.357 305.118 347.645 306.47 347.338 307.937C347.02 309.715 346.329 311.405 345.312 312.897C344.045 314.537 344.338 316.244 345.138 318.003C346.765 321.51 346.472 323.403 343.805 326.07C343.605 326.27 343.232 326.497 343.018 326.43C340.885 325.777 339.458 327.337 337.885 328.177C334.992 329.71 332.365 331.697 329.312 332.95C328.845 333.15 328.792 333.523 328.618 333.923C328.262 334.817 327.701 335.616 326.982 336.255C326.262 336.894 325.402 337.356 324.472 337.603C323.885 337.703 323.353 338.007 322.968 338.46C322.583 338.914 322.369 339.488 322.365 340.083C322.285 342.643 320.365 344.083 318.499 345.23C317.075 345.92 315.777 346.844 314.659 347.963C314.222 348.581 313.571 349.016 312.833 349.183C312.094 349.351 311.32 349.239 310.659 348.87C310.353 348.653 310.005 348.502 309.638 348.429C309.27 348.355 308.891 348.36 308.525 348.443C306.099 349.336 303.566 348.656 301.126 349.096C299.792 349.336 298.939 348.003 297.512 348.403C295.819 348.896 295.632 347.07 294.846 346.176C291.966 343.07 289.073 339.99 286.219 336.843C286.101 336.676 285.945 336.539 285.765 336.442C285.584 336.345 285.384 336.29 285.179 336.283C283.686 336.363 282.939 335.27 281.966 334.417C281.221 333.829 280.622 333.076 280.217 332.218C279.812 331.359 279.612 330.419 279.633 329.47C279.633 326.63 278.739 323.803 278.579 320.923C278.577 320.596 278.47 320.278 278.273 320.017C276.438 317.671 274.835 315.152 273.486 312.497C273.329 312.147 273.087 311.842 272.782 311.609C272.477 311.376 272.119 311.223 271.739 311.164C270.406 311.097 269.393 310.95 269.926 309.177C270.059 308.737 269.419 308.577 269.126 308.297C267.793 306.964 265.966 306.51 264.473 305.484C264.39 305.416 264.294 305.366 264.19 305.338C264.087 305.311 263.979 305.306 263.873 305.324C261.206 306.404 258.993 304.524 256.553 304.19C254.113 303.857 251.633 303.03 249.153 302.524C246.06 301.87 243.047 300.644 239.953 300.27C236.86 299.897 233.913 298.937 230.807 299.924C229.631 300.151 228.413 299.942 227.38 299.337C225.851 298.569 224.158 298.184 222.447 298.217C221.184 298.128 219.977 297.663 218.98 296.884C217.854 296.2 216.571 295.818 215.254 295.773C213.937 295.729 212.63 296.024 211.46 296.631C209.887 297.39 208.207 297.897 206.581 296.884C204.261 295.431 202.194 296.257 200.127 297.364C198.581 298.19 197.167 299.497 195.194 298.297C194.781 298.044 194.181 298.364 193.701 298.657C192.673 299.233 191.692 299.888 190.767 300.617C189.739 301.564 188.48 302.225 187.116 302.534C185.752 302.843 184.331 302.789 182.994 302.377C181.655 301.921 180.223 301.803 178.826 302.036C177.43 302.269 176.114 302.844 174.994 303.71C173.556 304.81 171.908 305.603 170.151 306.041C168.395 306.479 166.567 306.553 164.781 306.257C164.191 306.198 163.595 306.29 163.05 306.523C162.505 306.756 162.027 307.123 161.661 307.59C160.465 308.81 158.992 309.725 157.368 310.257C153.781 311.59 150.808 314.097 147.382 315.777C146.235 318.363 143.382 318.75 141.462 320.31C141.096 320.674 140.633 320.924 140.128 321.03C136.688 321.31 134.662 323.697 132.782 326.123C131.766 327.517 130.317 328.534 128.662 329.017C126.206 329.782 124.12 331.43 122.809 333.643C121.742 335.176 120.209 336.483 119.795 338.456C119.75 338.613 119.673 338.758 119.57 338.884C119.467 339.01 119.339 339.114 119.195 339.19C117.382 340.07 117.462 341.35 117.769 343.19C118.369 346.83 117.849 350.296 114.182 352.39C112.981 353.107 111.942 354.064 111.129 355.203C108.996 358.056 106.062 360.043 103.662 362.603C103.004 363.344 102.173 363.912 101.242 364.256C100.312 364.6 99.3117 364.71 98.3291 364.576C94.6314 364.424 90.9356 364.92 87.4092 366.043C85.2211 366.505 83.0857 367.188 81.036 368.083C79.516 368.829 77.9427 368.083 76.4094 368.083C75.3618 367.95 74.2983 368.017 73.2761 368.283C72.4767 368.601 71.6086 368.706 70.7562 368.589C66.2229 367.749 61.9563 369.283 57.6231 370.043C55.5668 370.496 53.4885 370.843 51.3965 371.083C50.4449 371.172 49.5158 371.425 48.6499 371.829C47.2146 372.507 45.671 372.927 44.09 373.069C42.3936 373.122 40.7343 373.579 39.2501 374.403C39.1434 373.683 39.0367 372.976 38.8634 372.256C38.4767 370.616 37.1567 369.323 37.2634 367.549C37.3185 365.972 36.9057 364.413 36.0768 363.069C35.5858 361.912 35.3188 360.673 35.2901 359.416C34.7835 356.029 34.0768 352.683 33.4501 349.323C33.4501 349.11 33.4501 348.83 33.4501 348.696C32.7293 347.855 32.2799 346.815 32.161 345.713C32.042 344.611 32.259 343.499 32.7835 342.523C32.8993 342.218 32.8993 341.881 32.7835 341.576C31.6635 338.47 32.2235 335.297 32.3568 332.137C32.844 332.648 33.4797 332.992 34.1738 333.121C34.8679 333.251 35.585 333.158 36.2234 332.857C38.5967 331.39 41.2234 331.217 43.8366 330.737C48.7432 329.843 53.6365 328.777 58.5031 327.803C59.4694 327.678 60.3755 327.265 61.103 326.617C62.8096 324.763 65.2229 324.457 67.3696 323.657C68.9388 322.973 70.6478 322.672 72.3561 322.777C75.7428 323.203 78.5827 321.87 81.2893 320.11C82.0627 319.617 83.3293 319.51 83.5159 318.443C83.7959 316.857 85.0093 315.897 85.6759 314.59C86.3426 313.284 87.0092 311.244 86.5159 310.07C84.5693 305.364 86.3559 300.564 85.7026 295.871C87.1292 293.031 86.5026 289.871 87.0359 286.897C87.2622 285.541 87.356 284.165 87.3159 282.791C87.3159 278.711 87.1959 274.631 88.6492 270.698C88.9761 269.671 89.0312 268.578 88.8092 267.524C88.5304 265.325 88.7538 263.091 89.4625 260.991C90.1644 258.792 90.4493 256.481 90.3025 254.178C90.1135 252.924 90.1496 251.646 90.4092 250.405C91.1518 247.514 92.5169 244.82 94.4091 242.511C95.569 241.384 96.3038 239.891 96.4891 238.285C96.6023 236.681 97.1764 235.144 98.1424 233.858C99.3638 232.097 99.8779 229.941 99.5824 227.818C99.427 226.934 99.4864 226.026 99.7556 225.17C100.025 224.313 100.496 223.535 101.129 222.898C101.724 222.151 102.259 221.357 102.729 220.525C104.902 217.098 106.729 213.419 110.062 210.885C110.826 210.285 111.461 209.537 111.929 208.685C112.404 207.837 113.131 207.157 114.009 206.739C116.45 205.456 118.637 203.739 120.462 201.672C120.781 201.39 121.13 201.145 121.502 200.939C125.729 198.272 129.649 195.139 134.062 192.766C134.54 192.534 134.957 192.191 135.275 191.766C136.955 189.566 138.742 187.446 140.395 185.219C141.092 184.301 142.049 183.613 143.142 183.246C147.142 181.646 151.248 180.206 155.141 178.232C156.213 177.727 157.313 177.282 158.435 176.899C162.101 175.566 165.928 174.313 168.595 171.113C169.134 170.446 169.83 169.924 170.621 169.593C172.768 168.699 174.888 167.726 177.074 166.926C178.405 166.528 179.615 165.804 180.594 164.819C182.781 162.473 186.181 162.153 188.594 160.193C188.728 160.073 189.008 160.193 189.221 160.113C192.087 159.926 194.781 158.779 197.581 158.446C199.834 158.193 201.687 156.526 204.034 156.886C205.594 157.113 207.047 157.153 207.687 155.233C207.803 154.989 207.979 154.778 208.198 154.62C208.417 154.461 208.672 154.36 208.94 154.326C210.58 153.913 212.22 153.433 213.874 152.993C217.034 152.206 220.394 152.286 223.367 150.66C223.975 150.475 224.613 150.407 225.247 150.46C229.02 150.18 232.807 149.873 236.58 149.633C236.897 149.671 237.219 149.639 237.523 149.54C237.827 149.441 238.106 149.277 238.34 149.06C240.473 146.393 243.673 146.473 246.5 146.206C248.473 146.033 250.5 145.3 252.486 145.98C254.418 146.602 256.489 146.649 258.446 146.113C258.793 146.02 259.233 146.406 259.646 146.473C260.265 146.667 260.933 146.629 261.526 146.366C262.488 145.892 263.577 145.738 264.633 145.926C265.704 146.066 266.793 145.861 267.74 145.34C268.522 144.822 269.427 144.52 270.363 144.464C271.3 144.408 272.234 144.599 273.073 145.02C273.767 145.303 274.499 145.483 275.246 145.553C276.579 145.7 278.086 146.193 279.246 145.273C279.722 144.922 280.274 144.687 280.858 144.587C281.441 144.487 282.04 144.526 282.606 144.7C284.255 145.105 285.994 144.925 287.526 144.193C291.526 142.206 295.952 142.286 300.179 141.42C300.604 141.395 301.026 141.497 301.392 141.713C302.514 142.062 303.572 142.588 304.526 143.273C304.962 143.682 305.515 143.945 306.108 144.024C306.701 144.102 307.304 143.994 307.832 143.713C311.392 141.993 315.219 142.1 319.019 141.793C321.093 141.588 323.186 141.718 325.219 142.18C327.392 142.88 329.735 142.842 331.885 142.073C333.056 141.546 334.36 141.391 335.622 141.63C336.883 141.868 338.041 142.488 338.938 143.406C339.098 143.54 339.312 143.62 339.472 143.753C341.512 145.42 344.085 145.98 346.458 146.766C348.831 147.553 351.511 146.473 353.845 147.9C354.045 148.02 354.471 147.833 354.778 147.74C356.844 147.189 359.025 147.249 361.058 147.913C363.205 148.533 365.484 148.533 367.631 147.913C368.255 147.74 368.914 147.74 369.538 147.913C371.978 148.646 374.391 149.473 376.818 150.233C379.244 150.993 381.564 152.06 384.231 151.686C385.085 151.648 385.939 151.743 386.764 151.966C389.223 152.664 391.81 152.788 394.324 152.326C394.755 152.17 395.227 152.17 395.657 152.326C397.324 152.991 398.93 153.798 400.457 154.74C404.124 157.273 404.071 157.473 408.097 157.886C413.217 158.419 417.577 160.819 421.91 163.219C424.39 164.619 426.59 166.526 429.39 167.366C429.793 167.512 430.17 167.719 430.51 167.979C432.883 169.619 435.337 171.139 437.563 172.953C438.7 173.936 440.154 174.475 441.657 174.473C442.653 174.452 443.641 174.665 444.541 175.093C445.442 175.521 446.23 176.153 446.843 176.939C448.776 178.912 450.536 181.152 453.03 182.499C454.63 183.332 455.954 184.61 456.843 186.179C457.855 187.642 458.747 189.185 459.51 190.792C459.75 191.564 460.154 192.275 460.695 192.875C461.236 193.476 461.9 193.953 462.643 194.272C463.419 194.628 464.096 195.168 464.616 195.846C465.727 197.123 466.925 198.321 468.203 199.432C468.915 200.073 469.493 200.848 469.905 201.713C470.317 202.578 470.554 203.515 470.603 204.472C470.548 206.403 471.103 208.302 472.189 209.899C473.777 212.033 475.148 214.319 476.283 216.725C476.572 217.349 476.678 218.043 476.589 218.725C476.589 220.058 475.656 221.218 476.216 222.458C476.701 223.861 477.045 225.308 477.243 226.778C477.675 229.279 478.34 231.734 479.229 234.112C479.89 235.332 480.262 236.688 480.317 238.074C480.373 239.461 480.11 240.842 479.549 242.111C479.309 242.578 478.869 242.978 479.203 243.565C479.949 244.898 479.763 246.578 480.536 247.805C481.365 249.152 481.833 250.691 481.893 252.272C481.954 253.854 481.606 255.424 480.883 256.831C480.531 257.734 480.425 258.714 480.576 259.671C481.037 263.274 481.154 266.913 480.923 270.538C480.779 272.918 481.276 275.294 482.363 277.417C483.429 279.857 484.469 280.337 487.189 279.964C487.692 279.804 488.233 279.804 488.736 279.964C491.402 281.217 494.269 281.484 497.016 282.271C500.162 283.177 503.202 284.724 506.642 284.137C506.798 284.106 506.959 284.107 507.114 284.139C507.27 284.171 507.418 284.234 507.549 284.324C509.069 286.111 510.789 285.377 512.495 284.817C512.216 285.919 511.878 287.005 511.482 288.071C511.119 288.96 511.062 289.945 511.322 290.871C512.025 293.407 512.15 296.069 511.688 298.66C511.227 301.251 510.19 303.706 508.655 305.844C507.482 307.537 506.162 309.27 506.589 311.617C506.669 312.044 506.255 312.59 506.015 313.044C504.839 315.342 503.359 317.472 501.616 319.377C500.469 320.603 499.109 321.537 498.016 322.777C497.589 323.283 498.029 323.417 498.429 323.563Z"
      fill="#FBD7C7"></path>
    <path
      d="M498.429 323.563C498.029 323.417 497.589 323.283 498.069 322.763C499.162 321.523 500.522 320.59 501.669 319.363C503.412 317.459 504.892 315.329 506.069 313.03C506.309 312.577 506.722 312.03 506.642 311.604C506.215 309.257 507.535 307.524 508.709 305.83C510.244 303.692 511.28 301.238 511.741 298.646C512.203 296.055 512.078 293.394 511.375 290.857C511.116 289.932 511.172 288.947 511.535 288.057C511.931 286.992 512.27 285.906 512.549 284.804C513.616 282.539 514.132 280.054 514.055 277.551C513.675 274.463 514.232 271.331 515.655 268.564C517.389 265.644 517.229 262.591 516.909 259.524C516.686 257.907 516.664 256.268 516.842 254.645C517.319 252.219 517.382 249.731 517.029 247.285C516.629 245.201 516.629 243.061 517.029 240.978C517.435 239.304 517.37 237.551 516.842 235.912C515.819 233.114 515.886 230.035 517.029 227.285C517.374 226.639 517.569 225.923 517.602 225.192C517.415 222.525 517.295 219.858 517.149 217.192C517.149 216.392 516.469 215.859 516.202 215.179C515.309 212.885 513.722 210.672 514.989 207.992C515.101 207.691 515.101 207.36 514.989 207.059C514.013 204.54 513.464 201.877 513.362 199.179C513.095 195.246 511.255 191.686 509.962 188.019C509.375 186.352 509.029 184.566 507.442 183.339C506.376 182.442 505.501 181.341 504.869 180.099C504.237 178.858 503.86 177.502 503.762 176.113C503.524 173.689 502.783 171.341 501.589 169.219C500.096 166.553 499.016 163.633 496.029 162.126C495.296 161.753 494.402 161.259 494.189 160.393C493.736 158.593 492.349 157.366 491.602 155.793C490.847 154.284 489.712 152.997 488.309 152.06C488.056 151.873 487.576 151.806 487.522 151.606C486.882 148.94 484.162 147.793 482.989 145.5C482.335 144.512 481.481 143.672 480.483 143.033C478.492 141.636 476.678 140.002 475.083 138.166C473.269 135.82 471.949 133.047 469.469 131.193C467.997 130.117 466.72 128.796 465.696 127.287C464.846 126.047 463.701 125.039 462.363 124.353C460.653 123.495 459.047 122.444 457.576 121.22C455.537 119.291 452.862 118.177 450.056 118.087C448.31 118.167 447.55 117.9 447.043 116.367C446.85 115.742 446.478 115.186 445.973 114.77C445.469 114.353 444.854 114.092 444.203 114.02C441.617 114.02 439.523 112.687 437.23 111.9C435.15 111.207 432.83 110.86 431.043 109.487C429.594 108.41 427.989 107.56 426.283 106.967C425.574 106.755 424.913 106.406 424.337 105.94C422.826 104.617 421.074 103.599 419.177 102.94C415.51 101.714 412.51 99.3138 409.097 97.6072C408.252 97.2499 407.517 96.6735 406.969 95.9376C406.42 95.2017 406.078 94.3328 405.977 93.4206C405.815 92.2572 405.33 91.1627 404.577 90.2606C402.937 88.2607 403.244 86.074 403.791 83.9141C403.99 83.113 403.99 82.2751 403.791 81.4741C403.124 77.3142 402.457 73.1276 403.377 68.8876C403.678 67.7348 403.584 66.5143 403.111 65.421C402.022 62.7558 401.478 59.8998 401.511 57.0212C401.511 56.2745 401.617 55.5679 401.084 54.8879C399.805 53.036 398.9 50.9528 398.417 48.7547C398.146 47.8582 397.692 47.0275 397.084 46.3147C395.004 43.7547 392.151 41.9414 390.351 39.1148C389.017 37.0749 387.857 34.9282 385.271 34.0882C384.644 33.8749 384.231 33.0349 383.684 32.5283C381.418 30.515 379.071 28.7817 375.751 29.8616C375.12 29.976 374.484 30.0562 373.844 30.1016C370.404 30.755 366.871 31.1016 364.218 33.8882C363.341 34.8485 362.167 35.487 360.885 35.7015C357.645 35.9282 354.711 37.3015 351.551 37.8215C347.685 38.4615 343.778 38.6748 339.912 39.6348C338.517 40.039 337.05 40.123 335.618 39.8806C334.187 39.6382 332.829 39.0756 331.645 38.2348C330.421 37.2268 329.044 36.4211 327.565 35.8482C325.946 35.3184 324.458 34.4499 323.2 33.3004C321.943 32.151 320.945 30.7469 320.272 29.1817C319.625 27.5932 318.835 26.0669 317.912 24.6217C315.619 21.3818 312.712 20.7818 310.005 23.6617C309.565 24.1284 309.272 24.8217 308.592 24.8617C307.802 24.914 307.038 25.1635 306.37 25.5874C305.701 26.0113 305.15 26.5962 304.766 27.2884C304.379 27.8617 303.512 27.9817 302.792 28.235C300.192 29.1283 297.819 30.635 295.059 31.1416C294.633 31.231 294.256 31.4788 294.006 31.8349C293.259 33.3016 291.912 33.4349 290.512 33.6216C289.112 33.8082 288.246 34.1949 288.019 35.6615C287.868 36.2902 287.562 36.871 287.129 37.3508C286.696 37.8306 286.149 38.1942 285.539 38.4082C284.486 38.9148 283.059 39.2482 282.686 40.3415C281.846 42.8481 279.833 43.5814 277.699 44.3414C277.088 44.535 276.522 44.8477 276.033 45.2614C272.549 48.2201 268.655 50.6587 264.473 52.5013C262.045 53.8236 259.46 54.836 256.78 55.5145C255.228 55.6725 253.769 56.3272 252.62 57.3812C251.958 58.1567 251.142 58.7859 250.224 59.229C249.306 59.672 248.305 59.9191 247.287 59.9545C246.351 60.0876 245.447 60.3904 244.62 60.8478C243.686 61.2151 242.69 61.3963 241.687 61.3811C240.307 61.3171 238.929 61.5347 237.636 62.0207C236.343 62.5067 235.163 63.2508 234.167 64.2077C233.033 65.3208 231.539 65.9922 229.953 66.101C228.284 66.1856 226.698 66.856 225.474 67.9943C224.808 68.5433 224.043 68.9597 223.22 69.221C220.674 69.941 218.074 70.5543 215.5 71.1676C212.02 72.0076 208.42 72.5009 205.247 74.2209C203.914 74.9409 202.861 75.7542 201.247 75.4475C200.049 75.26 198.826 75.3169 197.65 75.6148C196.475 75.9127 195.372 76.4454 194.407 77.1808C193.39 77.9902 192.103 78.3812 190.807 78.2742C189.447 78.1858 188.083 78.3904 186.808 78.8742C184.693 79.5934 182.527 80.1505 180.328 80.5408C177.975 80.7498 175.744 81.6812 173.941 83.2074C173.036 84.1231 171.826 84.6737 170.541 84.754C168.94 84.7078 167.378 85.2537 166.155 86.2874C165.01 87.0423 163.755 87.6136 162.435 87.9807C160.901 88.4424 159.448 89.1396 158.128 90.0473C154.381 92.4606 150.648 94.8339 146.022 95.3805C144.688 95.5405 143.115 95.5539 142.128 96.6472C140.568 98.4072 138.195 98.9271 136.542 100.514C135.77 101.061 134.914 101.48 134.008 101.754C130.582 103.407 126.635 103.007 123.262 104.7C120.129 106.287 116.075 105.887 113.702 109.114C113.672 109.159 113.633 109.198 113.587 109.228C113.541 109.258 113.489 109.278 113.435 109.287C109.875 109.567 107.156 112.234 103.622 112.7C101.688 112.908 99.9126 113.866 98.6757 115.367C97.9469 116.13 97.0257 116.683 96.0091 116.967C92.8091 118.113 90.3025 120.593 87.0892 121.74C86.7986 121.886 86.5609 122.119 86.4092 122.407C85.5644 123.524 84.3811 124.337 83.036 124.727C78.6306 126.562 74.5927 129.177 71.1161 132.447C70.6115 132.847 70.1941 133.346 69.8895 133.913C68.2896 137.913 64.9563 139.9 61.2497 141.433C60.5949 141.641 59.9922 141.987 59.4817 142.447C58.9712 142.907 58.5649 143.47 58.2897 144.1C57.3049 146.407 56.0757 148.601 54.6231 150.646C53.5031 152.193 51.5831 152.66 50.4365 153.98C49.2898 155.3 48.6766 157.166 47.2232 158.353C44.4052 160.636 42.2733 163.654 41.0633 167.073C40.3567 168.993 39.3967 170.793 37.2234 171.513C36.8861 171.663 36.5824 171.88 36.3305 172.151C36.0786 172.421 35.8835 172.739 35.7567 173.086C35.1915 174.235 34.5408 175.341 33.8101 176.393C33.5884 176.693 33.4404 177.041 33.3778 177.41C33.3153 177.778 33.3401 178.156 33.4501 178.512C34.5034 182.232 31.5568 185.046 31.1968 188.446C29.0369 189.579 29.2235 191.792 28.7435 193.699C28.3835 195.152 28.3169 196.886 27.4102 197.952C25.4903 200.312 25.5036 203.072 25.0636 205.765C25.0398 206.946 24.7188 208.102 24.1303 209.125C23.3444 210.283 22.9474 211.66 22.997 213.059C22.889 214.879 22.5208 216.675 21.9036 218.392C20.9821 220.641 20.6163 223.078 20.837 225.498C21.157 227.658 21.797 229.992 20.9703 232.165C20.3304 234.179 20.0903 236.299 20.2637 238.405C20.2637 241.405 20.8503 244.405 20.4237 247.405C19.8156 251.37 20.1073 255.421 21.277 259.258C21.6503 260.431 21.597 261.058 20.717 261.671C20.2186 262.004 19.8594 262.508 19.7071 263.088C19.5548 263.667 19.62 264.283 19.8904 264.818C20.1962 265.726 20.5523 266.616 20.957 267.484C21.7317 269.149 22.0405 270.992 21.8503 272.818C21.3505 276.853 21.8449 280.95 23.2903 284.751C23.8889 285.747 24.1067 286.926 23.9036 288.071C23.1579 290.724 23.3654 293.554 24.4903 296.07C25.0931 297.32 25.4248 298.683 25.4636 300.07C25.4805 303.597 26.0935 307.095 27.2769 310.417C27.9878 312.313 28.0812 314.385 27.5436 316.337C27.2801 317.24 27.2308 318.193 27.3998 319.118C27.5687 320.044 27.9512 320.918 28.5169 321.67C30.4635 324.95 32.3568 328.27 32.3168 332.337C32.1835 335.497 31.6235 338.67 32.7435 341.776C32.8593 342.081 32.8593 342.418 32.7435 342.723C32.219 343.699 32.002 344.811 32.1209 345.913C32.2399 347.015 32.6893 348.055 33.4101 348.896C33.5168 349.03 33.4101 349.31 33.4101 349.523C34.0368 352.883 34.7434 356.189 35.2501 359.616C35.2788 360.873 35.5458 362.112 36.0367 363.269C36.8657 364.613 37.2785 366.172 37.2234 367.749C37.1167 369.523 38.4367 370.816 38.8234 372.456C38.9967 373.176 39.1034 373.883 39.21 374.602C38.0563 375.341 36.6969 375.691 35.3301 375.602C34.5884 375.501 33.8336 375.56 33.1168 375.776C31.0635 376.869 29.3302 376.082 27.7836 374.909C27.401 374.565 26.9102 374.366 26.3962 374.347C25.8823 374.327 25.3777 374.489 24.9703 374.803C23.9644 375.402 22.9069 375.911 21.8103 376.322C21.2536 376.541 20.6452 376.591 20.0601 376.468C19.4749 376.345 18.9386 376.053 18.517 375.629C17.0637 374.176 16.3438 372.216 15.0638 370.643C15.7571 368.776 14.3571 366.936 15.0638 365.096C15.4225 364.301 15.4607 363.398 15.1704 362.576C13.6771 359.149 13.8371 355.589 14.1571 351.99C14.2862 351.361 14.2588 350.711 14.0771 350.096C12.964 347.715 12.46 345.094 12.6105 342.47C12.6105 342.363 12.6105 342.216 12.6105 342.15C10.9438 339.95 12.2771 337.763 12.4905 335.483C12.6407 333.04 12.0705 330.606 10.8505 328.483C9.86386 326.63 9.13054 324.843 10.0772 322.763C10.2473 322.361 10.2739 321.912 10.1525 321.492C10.0312 321.072 9.76922 320.707 9.41053 320.457C7.43723 318.763 7.31723 316.377 6.97057 314.07C6.87724 313.444 7.0639 312.737 6.78391 312.19C4.62394 308.19 5.06394 303.724 3.89063 299.564C3.75697 298.823 3.75697 298.064 3.89063 297.324C4.25768 294.871 3.99148 292.365 3.1173 290.044C2.7571 289.037 2.62504 287.962 2.73065 286.897C2.77237 285.506 2.54135 284.12 2.05065 282.817C0.78467 279.736 0.71808 276.292 1.86399 273.164C2.38593 271.4 2.25337 269.506 1.49066 267.831C-0.0826438 263.751 0.157353 259.564 0.637345 255.378C0.864008 253.365 0.637348 251.298 1.224 249.338C1.27596 249.128 1.27596 248.908 1.224 248.698C-0.109306 242.885 1.224 236.978 0.570675 231.152C0.570675 230.525 0.384012 229.605 0.71734 229.285C2.42398 227.685 1.77067 225.645 1.79734 223.818C1.75637 222.115 2.06963 220.421 2.71731 218.845C3.0053 218.395 3.15802 217.872 3.1573 217.338C3.04716 216.37 3.15392 215.389 3.46986 214.466C3.78579 213.544 4.30299 212.703 4.98395 212.005C6.22393 210.565 5.69059 208.965 5.71726 207.405C5.74392 205.845 6.22391 204.352 4.38394 203.405C3.69062 203.072 4.09062 202.525 4.38394 202.072C6.01058 199.405 6.29059 196.486 6.55725 193.539C6.53828 192.583 6.89768 191.658 7.55723 190.966C8.10389 190.459 8.81054 190.006 8.89054 189.206C9.49053 184.379 12.4638 180.686 14.7571 176.673C16.0384 174.348 16.6866 171.727 16.6371 169.073C16.6434 167.788 17.0436 166.536 17.7837 165.486C19.357 163.086 20.8903 160.646 22.477 158.259C23.6011 156.7 24.3495 154.902 24.6636 153.006C24.803 151.886 25.2509 150.827 25.9571 149.946C26.6634 149.066 27.6004 148.399 28.6635 148.02C29.6112 147.781 30.4289 147.184 30.9435 146.353C31.484 145.173 32.4303 144.227 33.6101 143.686C34.7168 143.153 34.8501 142.073 34.9434 140.94C34.9434 139.313 35.1301 137.74 37.0501 137.006C37.5567 136.82 37.9434 136.113 38.2367 135.553C39.4634 133.22 41.4766 131.473 42.73 129.06C44.1657 126.777 46.1039 124.853 48.3965 123.433C49.2947 122.873 50.1423 122.235 50.9298 121.527C51.2151 121.145 51.6124 120.861 52.0665 120.715C52.5205 120.569 53.0087 120.569 53.4631 120.713C53.7921 120.839 54.1439 120.893 54.4955 120.873C54.847 120.853 55.1903 120.758 55.5026 120.596C55.815 120.433 56.0895 120.207 56.3078 119.93C56.5262 119.654 56.6836 119.335 56.7697 118.993C58.0097 115.9 60.5963 114.194 63.263 112.7C66.447 111.009 69.4038 108.922 72.0628 106.487C74.2686 104.485 76.7918 102.862 79.5293 101.687C82.5693 100.287 85.3292 98.1938 88.7692 97.6072C89.5762 97.3222 90.3128 96.8676 90.9292 96.2739C96.563 92.0666 102.827 88.7771 109.489 86.5274C110.014 86.41 110.504 86.1676 110.915 85.8207C112.982 83.6207 115.835 82.7941 118.515 81.8208C121.942 80.6741 124.982 78.4475 128.702 78.1008C129.222 78.1008 129.742 77.9142 130.275 77.8608C132.198 77.7514 134.012 76.9345 135.368 75.5675C136.175 74.7085 137.127 73.9997 138.182 73.4742C139.5 72.8668 140.676 71.9903 141.635 70.901C143.153 69.2382 145.234 68.1978 147.475 67.981C149.49 67.8101 151.408 67.0392 152.981 65.7677C153.803 65.0085 154.774 64.43 155.833 64.0694C156.891 63.7088 158.014 63.5743 159.128 63.6744C161.128 63.9677 162.661 62.8211 164.021 61.6611C165.626 60.2401 167.72 59.4989 169.861 59.5945C170.718 59.6676 171.579 59.5445 172.381 59.2345C177.314 56.9812 182.661 55.8079 187.621 53.5812C189.221 52.8479 191.247 53.0612 192.434 51.4079C194.687 51.4079 196.847 50.0746 198.941 50.3413C200.661 50.5813 201.754 49.3813 203.181 49.5013C203.936 49.5433 204.691 49.4085 205.385 49.1076C206.08 48.8067 206.694 48.348 207.18 47.768C208.327 46.728 211.074 45.968 213.607 45.7814C214.114 45.6972 214.58 45.4544 214.94 45.0881C216.647 43.7547 218.314 42.7948 220.714 43.5414C222.34 44.0347 224.02 43.1814 225.567 42.4081C226.823 41.5934 228.252 41.0821 229.74 40.9148C230.647 40.9148 231.233 40.1415 231.967 39.7148C234.42 38.3815 236.62 36.3549 239.753 36.4749C240.513 36.4749 241.3 35.8215 242.047 35.4082C243.18 34.8082 244.22 33.7549 245.393 33.5949C248.06 33.2349 250.273 31.6083 252.753 30.8483C255.136 30.2309 257.344 29.072 259.206 27.4617C261.273 25.5684 264.166 25.1151 266.233 23.2351C267.259 22.3018 268.486 21.5951 269.593 20.7285C270.941 19.7139 272.427 18.8968 274.006 18.3018C278.198 16.4907 282.177 14.2238 285.873 11.542C286.894 10.7764 288.067 10.2357 289.312 9.95531C291.886 9.50199 293.819 7.67535 295.739 6.02205C296.482 5.11573 297.512 4.49014 298.659 4.24875C299.088 4.18846 299.481 3.97543 299.766 3.64875C301.446 1.71545 303.566 1.59546 305.899 1.88878C309.125 2.28878 312.259 1.20879 315.472 1.14213C316.379 1.14213 317.192 0.648805 318.019 1.43546C318.243 1.59325 318.511 1.67792 318.785 1.67792C319.06 1.67792 319.327 1.59325 319.552 1.43546C320.432 1.15722 321.386 1.22395 322.219 1.62212C328.312 3.36876 331.938 7.94202 335.085 12.9286C336.702 15.1919 338.552 17.2789 340.605 19.1552C340.744 19.3203 340.915 19.4556 341.108 19.5528C341.301 19.65 341.511 19.7072 341.727 19.7209C341.942 19.7346 342.158 19.7046 342.362 19.6325C342.566 19.5605 342.753 19.448 342.912 19.3018C345.085 17.7685 347.351 16.7152 350.071 17.6618C350.273 17.7349 350.492 17.7446 350.699 17.6898C350.907 17.635 351.092 17.5183 351.231 17.3552C352.97 15.8573 355.19 15.034 357.485 15.0352C358.651 14.879 359.778 14.5035 360.805 13.9286C362.412 13.064 364.206 12.6062 366.031 12.5953C367.109 12.5394 368.15 12.1788 369.031 11.5553C371.185 10.216 373.598 9.34814 376.111 9.00866C376.218 9.00866 376.324 8.902 376.418 8.92867C379.364 9.60866 382.351 8.36867 385.284 9.03533C386.24 9.1304 387.168 9.41521 388.013 9.87308C388.857 10.331 389.602 10.9527 390.204 11.7019C390.636 12.3164 391.19 12.8342 391.833 13.2222C392.476 13.6102 393.193 13.8598 393.937 13.9552C395.015 14.0552 396.013 14.5661 396.724 15.3819C398.951 18.3285 402.351 19.5818 405.337 21.3951C408.161 23.1257 410.529 25.5077 412.244 28.3417C414.284 31.5283 416.404 34.6616 418.497 37.8215C420.582 40.8757 421.824 44.4265 422.097 48.1147C422.248 52.6692 422.96 57.1877 424.217 61.5678C425.617 65.6477 425.43 69.0743 425.043 73.1276C424.968 73.4372 424.937 73.7559 424.95 74.0742C425.603 76.7408 425.23 79.4075 425.23 82.0741C425.23 84.1807 425.643 84.6474 427.79 84.8474C428.632 84.9043 429.435 85.2264 430.083 85.7674C431.759 87.2547 433.738 88.3602 435.883 89.0073C436.489 89.2294 437.039 89.5796 437.497 90.034C439.033 91.4058 441.023 92.1609 443.083 92.1539C444.669 92.2852 446.212 92.7389 447.616 93.4872C450.126 94.5089 452.571 95.6844 454.936 97.0072C457.136 98.1671 459.536 99.1538 461.843 100.234C462.537 100.521 463.147 100.98 463.616 101.567C464.949 103.3 466.776 104.367 468.283 105.82C469.902 107.338 471.934 108.345 474.123 108.714C475.164 108.943 476.192 109.228 477.203 109.567C477.836 109.688 478.422 109.983 478.896 110.42C480.709 113.087 483.842 114.42 485.669 117.087C485.981 117.526 486.386 117.89 486.856 118.153C490.296 120.14 492.016 123.487 493.522 126.887C495.068 130.26 497.507 133.147 500.576 135.233C503.194 137.063 505.623 139.149 507.829 141.46C508.055 141.686 508.162 142.073 508.429 142.206C510.842 143.366 511.669 145.593 512.429 147.926C512.917 149.589 513.837 151.094 515.095 152.286C515.541 152.753 515.867 153.32 516.046 153.94C516.224 154.56 516.251 155.214 516.122 155.846C516.046 157.569 516.548 159.268 517.549 160.673C518.407 161.749 518.935 163.05 519.069 164.419C519.069 165.833 520.402 166.819 521.455 167.699C522.035 168.165 522.508 168.751 522.841 169.416C523.175 170.08 523.361 170.809 523.389 171.553C523.389 171.873 523.282 172.286 523.389 172.499C525.402 175.393 525.802 178.952 527.388 181.979C528.619 184.351 529.212 187.002 529.108 189.672C529.217 194.898 529.599 200.114 530.255 205.299C530.255 206.152 530.348 207.005 530.402 207.859C530.589 210.278 531.137 212.655 532.028 214.912C533.268 218.125 533.588 221.698 534.308 225.112C533.082 227.538 533.522 230.138 533.468 232.698C533.468 232.805 533.468 232.938 533.468 233.018C531.962 235.165 532.695 237.551 532.868 239.805C533.13 242.24 532.852 244.702 532.055 247.018C531.782 247.943 531.678 248.909 531.748 249.871C531.801 250.945 531.643 252.019 531.282 253.031C530.49 255.4 530.285 257.925 530.682 260.391C530.832 264.139 530.087 267.868 528.508 271.271C528.249 271.73 528.056 272.224 527.935 272.738C527.788 276.564 527.228 280.417 528.135 284.204C528.348 285.111 528.522 285.844 527.828 286.551C526.682 287.724 526.722 289.217 526.495 290.684C526.05 294.798 524.79 298.782 522.789 302.404C522.293 303.224 521.877 304.09 521.549 304.99C521.229 305.91 520.215 306.777 521.255 307.924C521.468 308.164 521.095 308.91 520.988 309.43C520.247 312.301 519.73 315.226 519.442 318.177C519.178 319.438 518.569 320.602 517.682 321.537C516.717 322.685 516.176 324.13 516.149 325.63C516.149 327.377 515.495 327.75 513.722 327.897C512.545 327.854 511.386 327.587 510.309 327.11C509.092 326.716 507.8 326.611 506.535 326.803C505.603 326.973 504.645 326.942 503.725 326.712C502.805 326.482 501.945 326.059 501.202 325.47C500.416 324.763 499.376 324.23 498.429 323.563Z"
      fill="#ffffff"></path>
    <path
      d="M440.483 507.454C439.996 504.158 438.873 500.988 437.177 498.12C436.41 497.004 435.988 495.688 435.963 494.334C435.71 492.769 434.901 491.349 433.683 490.334C431.283 488.014 429.923 484.747 426.71 483.107C425.084 482.281 424.39 480.174 422.71 479.107C421.63 478.414 422.097 476.534 423.19 475.614C424.476 474.508 426.065 473.816 427.75 473.627C429.083 473.454 430.523 473.747 431.657 472.761C431.698 472.725 431.748 472.699 431.801 472.685C431.854 472.671 431.91 472.67 431.963 472.681C434.83 473.681 437.297 471.641 439.897 471.534C442.53 471.25 445.105 470.572 447.536 469.521C449.299 468.779 451.009 467.919 452.656 466.948C454.883 465.868 457.056 464.988 459.696 465.614C460.465 465.845 461.283 465.861 462.06 465.661C462.838 465.461 463.547 465.053 464.11 464.481C466.283 461.814 469.576 460.921 472.283 459.148C473.875 458.308 475.551 457.638 477.283 457.148C477.681 456.977 478.129 456.958 478.541 457.093C478.953 457.228 479.302 457.508 479.523 457.881C479.801 458.136 479.971 458.488 479.999 458.865C480.026 459.242 479.908 459.615 479.669 459.908C479.525 460.068 479.392 460.237 479.269 460.414C477.789 462.681 478.963 465.534 477.696 467.828C476.454 470.091 475.985 472.699 476.363 475.254C476.696 477.987 476.363 480.787 476.883 483.547C477.173 484.592 477.069 485.708 476.589 486.681C475.136 489.2 475.683 491.867 476.069 494.494C476.589 498.027 476.949 501.507 474.883 504.734C474.102 506.02 473.796 507.538 474.016 509.027C474.376 511.693 473.269 513.987 472.243 516.24C471.219 517.987 470.65 519.963 470.589 521.987C470.624 522.252 470.603 522.523 470.528 522.78C470.452 523.037 470.323 523.276 470.149 523.48C467.87 526.147 466.27 529.373 463.71 531.826C462.489 533.031 461.646 534.564 461.283 536.24C461.108 537.461 460.525 538.588 459.63 539.437C458.735 540.287 457.579 540.809 456.35 540.92C454.603 541.16 453.083 542.386 451.15 542.186C450.416 542.106 449.696 542.96 449.523 543.6C448.736 546.48 446.177 547.08 443.95 547.746C442.209 548.211 440.61 549.099 439.297 550.333C437.532 551.898 435.268 552.782 432.91 552.826C429.107 553.232 425.349 553.986 421.684 555.079C420.635 555.346 419.723 555.992 419.124 556.893C418.685 557.575 418.097 558.148 417.404 558.568C416.711 558.989 415.931 559.245 415.124 559.319C413.484 559.613 411.99 559.986 411.124 561.599C408.31 562.599 407.124 565.986 403.897 566.426C402.111 568.492 399.697 569.906 399.524 573.319C399.545 577.373 398.254 581.326 395.844 584.586C394.478 586.452 393.253 588.418 392.177 590.465C391.657 591.372 390.844 592.385 391.684 593.719C392.244 594.665 391.417 595.559 390.644 596.159C389.871 596.759 389.311 596.839 388.684 597.239C386.911 598.207 385.263 599.389 383.778 600.759C382.658 602.065 381.164 602.996 379.498 603.425C378.772 603.6 378.105 603.963 377.564 604.479C374.124 607.785 369.644 609.412 365.658 611.838C365.192 612.087 364.746 612.373 364.325 612.692C363.988 613.017 363.563 613.235 363.102 613.319C362.642 613.402 362.167 613.346 361.738 613.158C360.184 612.734 358.528 612.895 357.085 613.612C355.108 614.356 353.081 614.957 351.018 615.412C350.772 615.514 350.505 615.558 350.239 615.539C349.973 615.521 349.715 615.441 349.485 615.305C349.064 615.066 348.592 614.934 348.108 614.92C347.625 614.906 347.145 615.011 346.712 615.225C346.423 615.37 346.099 615.43 345.778 615.398C342.618 614.505 339.885 616.198 336.965 616.812C334.298 617.372 331.792 618.518 328.965 617.625C327.717 617.293 326.39 617.426 325.232 617.998C322.939 619.025 320.499 618.225 318.125 618.145C315.992 618.145 313.845 618.332 311.765 618.332C309.685 618.332 307.046 618.932 304.992 617.385C304.436 617.073 303.802 616.93 303.166 616.972C301.376 616.815 299.596 616.565 297.832 616.225C296.4 615.883 294.915 615.82 293.459 616.038C291.406 616.398 289.459 615.465 287.606 614.892C285.916 614.251 284.171 613.764 282.393 613.438C281.116 613.275 279.944 612.649 279.099 611.678C277.979 610.505 276.886 609.212 274.713 610.145C273.779 610.545 272.233 609.785 271.379 608.678C270.993 608.172 270.753 607.345 270.246 607.172C267.58 606.039 266.086 603.665 263.993 601.945C262.878 601.285 262.068 600.212 261.74 598.959C261.593 597.879 260.406 597.492 260.086 596.652C259.06 594.345 257.206 592.412 256.966 589.732C256.766 587.559 254.753 586.159 254.406 583.999C254.31 583.747 254.156 583.52 253.957 583.337C253.758 583.155 253.519 583.021 253.26 582.946C250.22 582.306 249.26 579.652 248.54 577.372C248.078 576.12 247.338 574.989 246.375 574.065C245.411 573.141 244.25 572.448 242.98 572.039C239.287 570.506 235.447 569.372 232.127 567.039C231.206 566.449 230.089 566.247 229.02 566.479C225.447 567.039 222.034 565.786 218.527 565.599C216.94 565.393 215.337 565.34 213.74 565.439C211.991 565.656 210.215 565.389 208.607 564.666C205.317 563.168 201.766 562.33 198.154 562.199C196.03 562.242 193.917 562.506 191.847 562.986C189.659 563.468 187.375 563.253 185.314 562.373C182.648 561.239 179.981 560.053 176.874 560.239C173.528 560.439 170.288 559.279 166.888 559.253C164.773 559.253 162.664 559.034 160.595 558.599C159.363 558.225 158.052 558.202 156.808 558.533C156.12 558.755 155.395 558.836 154.675 558.769C153.955 558.703 153.257 558.491 152.621 558.146C150.635 556.999 148.235 557.306 146.355 556.039C143.688 556.519 142.355 554.053 140.168 553.466C139.648 553.333 139.395 552.813 139.142 552.306C138.678 551.325 137.872 550.548 136.875 550.119C135.485 549.597 134.251 548.727 133.292 547.592C132.333 546.458 131.68 545.097 131.395 543.64C130.901 542.135 130.142 540.731 129.155 539.493C127.135 536.368 124.633 533.582 121.742 531.24C120.12 530.213 118.868 528.695 118.169 526.907C117.355 524.573 115.089 523.227 113.329 521.573C112.45 520.802 111.843 519.769 111.595 518.627C111.466 517.781 111.191 516.965 110.782 516.213C108.116 512.213 108.889 507.574 107.889 503.267C109.009 500.6 107.542 498.32 106.729 495.934C106.156 494.267 105.249 492.72 106.049 490.707C106.233 489.54 105.961 488.346 105.289 487.374C104.315 485.558 104.091 483.433 104.662 481.454C104.953 480.444 104.882 479.364 104.462 478.401C102.289 473.534 102.582 468.388 102.702 463.254C102.716 463.145 102.743 463.037 102.782 462.934C103.169 461.254 101.849 459.761 102.289 458.028C102.651 456.453 102.619 454.814 102.196 453.254C101.842 452.18 101.85 451.02 102.218 449.951C102.587 448.882 103.295 447.963 104.236 447.335C105.499 446.205 106.664 444.97 107.716 443.641C107.835 443.465 107.99 443.317 108.171 443.206C108.352 443.095 108.555 443.024 108.765 442.997C108.976 442.971 109.19 442.99 109.393 443.052C109.596 443.115 109.783 443.22 109.942 443.361C111.182 444.123 112.253 445.13 113.089 446.321C115.595 450.014 118.129 453.748 121.849 456.428C123.315 457.494 124.889 458.481 125.249 460.508C125.284 460.722 125.364 460.927 125.483 461.108C125.602 461.29 125.759 461.444 125.942 461.561C129.489 463.228 131.408 467.174 135.462 468.228C136.488 468.494 137.235 469.747 138.195 470.414C141.662 472.881 145.435 474.854 148.862 477.387C150.101 478.321 151.848 478.414 153.341 478.867C157.322 480.187 160.995 482.295 164.141 485.067C164.776 485.581 165.553 485.888 166.368 485.947C169.512 486.345 172.628 486.933 175.701 487.707C177.434 488.067 179.274 488.121 181.034 488.48C185.781 489.414 190.674 488.774 195.447 490.254C196.728 490.688 198.087 490.839 199.432 490.697C200.776 490.554 202.073 490.121 203.234 489.427C204.02 489.063 204.912 489.001 205.741 489.254C208.399 489.489 211.073 489.029 213.5 487.921C215.927 486.947 218.247 485.787 221.087 485.827C222.86 485.827 224.674 484.627 226.42 483.921C227.474 483.494 228.527 482.654 229.447 484.081C230.367 485.507 229.98 486.294 228.18 487.401C226.553 488.401 224.86 489.292 223.114 490.067C222.156 490.525 221.337 491.229 220.74 492.107C219.633 493.393 218.42 494.583 217.114 495.667C214.154 498.454 211.58 501.547 211.18 505.907C210.98 507.974 209.594 509.6 208.514 511.24C207.73 512.247 207.367 513.518 207.501 514.787C207.807 516.867 206.727 518.787 206.754 520.787C206.754 522.493 206.687 524.2 206.754 525.92C206.759 527.197 207.07 528.454 207.661 529.587C208.088 530.201 208.316 530.931 208.314 531.68C208.007 533.653 209.261 535 209.794 536.626C210.66 539.293 212.82 540.626 214.46 542.48C215.405 543.294 216.133 544.329 216.58 545.493C217.116 547.519 218.21 549.354 219.738 550.79C221.265 552.225 223.165 553.203 225.22 553.613C225.64 553.678 226.042 553.822 226.407 554.039C229.593 556.706 233.527 556.359 237.26 556.866C238.635 556.949 239.987 557.26 241.26 557.786C243.167 558.773 245.193 558.653 247.18 558.999C250.74 559.613 253.94 558.133 257.286 557.546C260.838 556.915 264.159 555.355 266.913 553.026C268.166 552.024 269.595 551.264 271.126 550.786C272.239 550.44 273.27 549.868 274.153 549.106C275.726 547.773 276.539 547.613 277.899 549.226C279.499 551.133 281.899 552.533 282.139 555.453C282.193 555.769 282.342 556.062 282.566 556.293C284.713 558.759 286.446 561.559 288.846 563.813C289.006 563.946 289.312 563.986 289.379 564.146C291.099 567.799 294.899 569.412 297.379 572.319C298.454 573.498 299.841 574.348 301.379 574.772C302.612 575.103 303.686 575.864 304.406 576.919C305.116 578 306.213 578.768 307.472 579.066C310.699 579.852 313.419 581.732 316.432 583.066C317.731 583.811 319.243 584.098 320.725 583.879C323.392 583.146 325.979 584.466 328.592 584.292C332.498 584.052 336.738 585.079 339.952 581.626C340.658 580.942 341.547 580.479 342.512 580.292C345.612 579.463 348.437 577.825 350.698 575.546C352.685 573.759 354.698 571.946 356.658 570.212C358.405 568.719 360.338 567.346 361.391 565.066C362.096 563.98 363.063 563.09 364.205 562.479C365.621 561.513 366.68 560.108 367.218 558.479C367.702 556.852 368.55 555.356 369.698 554.106C371.844 551.786 372.591 548.693 374.204 546.106C375.538 544 377.324 542.306 378.404 540.066C378.811 539.599 379.349 539.265 379.948 539.106C380.546 538.946 381.179 538.97 381.764 539.173C382.858 539.586 383.884 540.173 384.991 540.506C387.157 541.286 389.388 541.875 391.657 542.266C394.339 542.865 396.946 543.759 399.431 544.933C402.551 546.173 405.604 547.24 408.964 545.68C409.95 545.269 411.017 545.086 412.084 545.146C414.897 545.146 417.604 544.426 420.39 544.24C421.406 544.205 422.401 543.949 423.306 543.488C424.212 543.027 425.005 542.374 425.63 541.573C426.98 540.089 428.194 538.487 429.257 536.786C430.003 535.293 431.763 534.24 433.257 533.2C434.309 532.383 435.04 531.222 435.323 529.92C436.323 527.04 436.35 523.867 438.083 521.2C439.057 519.693 438.683 517.747 439.15 516.013C440.04 513.247 440.49 510.359 440.483 507.454Z"
      fill="#FBD7C7"></path>
    <path
      d="M189.354 726.557C191.114 725.983 192.701 726.983 194.327 727.277C196.671 727.477 198.944 728.177 200.994 729.33C201.769 729.686 202.608 729.881 203.461 729.903C208.064 731.113 212.795 731.771 217.554 731.863C217.978 731.805 218.409 731.837 218.82 731.956C221.22 732.996 223.767 732.876 226.273 733.183C228.489 733.264 230.685 733.631 232.807 734.276C233.293 734.49 233.822 734.59 234.353 734.57C237.873 734.17 241.193 735.73 244.687 735.583C247.245 735.606 249.798 735.815 252.326 736.21C257.054 736.79 261.821 736.977 266.579 736.77C267.823 736.547 269.046 736.217 270.233 735.783C271.136 735.458 272.104 735.351 273.056 735.471C274.008 735.592 274.919 735.936 275.713 736.476C276.379 736.97 277.286 737.116 278.006 737.543C278.503 737.852 279.069 738.033 279.652 738.07C280.236 738.107 280.82 738 281.353 737.756C285.227 736.229 289.466 735.876 293.539 736.743C295.888 736.99 298.257 736.99 300.606 736.743C300.819 736.743 301.099 736.743 301.232 736.743C303.606 734.676 306.085 736.063 308.499 736.556C311.142 737.061 313.856 737.061 316.499 736.556C317.744 736.297 319.014 736.181 320.285 736.21C321.785 736.395 323.305 736.091 324.619 735.343C325.38 734.944 326.246 734.791 327.098 734.903C329.713 734.983 332.328 734.746 334.885 734.196C336.218 733.85 337.365 734.41 338.605 734.196C342.672 733.663 346.778 733.703 350.871 733.223C355.418 732.69 359.951 732.09 364.444 731.196C364.969 731.063 365.52 731.063 366.044 731.196C369.778 732.436 373.204 731.063 376.644 729.956C381.084 728.543 385.497 727.023 389.977 725.557C390.458 725.329 390.98 725.202 391.511 725.183C394.804 725.677 397.337 723.703 400.217 722.783C402.697 721.997 405.15 720.823 407.857 720.983C408.27 721.054 408.695 720.963 409.044 720.73C410.858 719.411 412.922 718.477 415.11 717.983C416.11 717.675 417.024 717.136 417.777 716.41C419.016 715.445 420.385 714.659 421.843 714.077C423.91 713.037 426.083 712.357 428.15 711.41C430.156 710.462 432.11 709.407 434.003 708.25C434.684 707.738 435.325 707.177 435.923 706.57C437.71 705.09 439.23 703.197 441.79 702.864C442.422 702.746 443.003 702.439 443.456 701.984C445.443 699.93 448.016 699.01 450.576 697.984C452.51 697.197 453.683 695.397 454.963 693.85C455.63 693.032 456.411 692.313 457.283 691.717C461.021 689.404 464.438 686.606 467.443 683.397C467.896 682.795 468.511 682.332 469.216 682.064C470.443 681.771 471.163 680.811 472.149 680.237C473.197 679.764 474.099 679.021 474.765 678.083C475.43 677.146 475.834 676.049 475.936 674.904C476.056 673.637 477.269 672.811 478.523 672.237C479.132 671.925 479.652 671.465 480.037 670.899C480.421 670.333 480.657 669.679 480.723 668.997C481.327 666.108 482.541 663.381 484.282 660.998C485.17 659.948 485.669 658.625 485.696 657.251C485.696 655.264 486.082 653.384 488.042 652.318C488.328 652.171 488.573 651.955 488.755 651.69C488.937 651.424 489.049 651.118 489.082 650.798C489.082 649.038 490.322 647.558 490.176 645.838C489.842 642.305 491.736 639.478 493.109 636.505C494.319 634.176 495.331 631.749 496.136 629.251C496.709 627.185 496.789 625.092 497.322 623.092C497.949 620.798 498.216 618.345 499.575 616.278C500.006 615.533 500.258 614.698 500.309 613.838C500.656 611.292 500.576 608.705 501.469 606.185C502.203 604.51 502.466 602.666 502.229 600.852C502.159 599.997 502.325 599.139 502.709 598.372C503.402 596.505 504.775 594.812 504.175 592.612C506.309 589.399 505.282 585.799 505.429 582.346C505.631 581.28 505.417 580.177 504.829 579.266C504.678 579.121 504.57 578.937 504.518 578.734C504.466 578.532 504.472 578.318 504.535 578.119C505.869 575.039 504.722 571.639 505.869 568.533C505.965 568.345 506.015 568.137 506.015 567.926C506.015 567.715 505.965 567.507 505.869 567.319C504.282 564.879 505.149 562.146 505.002 559.546C504.882 557.306 505.135 555.079 504.335 552.879C504.08 551.838 504.012 550.758 504.135 549.693C504.135 547.653 504.295 545.626 504.375 543.586C504.375 543.373 504.282 543.12 504.375 542.946C506.269 539.28 504.522 535.666 504.069 532.066C503.896 530.6 503.615 529.147 503.575 527.653C503.634 526.266 503.331 524.888 502.695 523.653C502.358 522.922 502.195 522.121 502.221 521.316C502.246 520.511 502.459 519.722 502.842 519.013C503.256 518.261 503.456 517.41 503.421 516.552C503.385 515.694 503.116 514.863 502.642 514.147C502.337 513.637 502.154 513.064 502.105 512.473C502.057 511.881 502.145 511.286 502.362 510.733C502.858 509.268 503.033 507.713 502.874 506.173C502.716 504.634 502.227 503.147 501.442 501.814C500.629 500.414 500.615 498.747 499.575 497.427C499.056 496.774 499.575 495.827 499.989 495.134C501.922 491.627 501.322 488.467 499.362 485.067C498.436 483.189 498.053 481.089 498.256 479.004C498.458 476.919 499.239 474.933 500.509 473.267C500.926 472.775 501.457 472.39 502.056 472.147C504.869 470.814 506.055 468.388 507.389 465.788C509.295 462.041 508.722 458.094 508.815 454.174C508.715 453.33 508.688 452.477 508.735 451.628C509.173 449.903 509.205 448.1 508.829 446.361C508.029 443.695 509.509 441.388 510.015 438.948C510.367 437.64 510.415 436.269 510.154 434.94C509.892 433.61 509.33 432.359 508.509 431.281C507.029 429.362 507.042 429.335 508.509 427.588C509.322 426.917 509.854 425.966 510.002 424.922C510.122 423.967 510.543 423.076 511.202 422.375C512.073 421.275 512.543 419.911 512.535 418.508C512.469 417.774 512.647 417.038 513.042 416.415C513.24 416.126 513.366 415.793 513.408 415.445C513.449 415.096 513.406 414.743 513.282 414.415C512.935 412.935 513.815 412.482 515.402 412.895C516.348 413.1 517.201 413.611 517.829 414.348C519.159 415.89 520.72 417.217 522.455 418.282C525.348 420.175 526.455 423.122 527.215 426.282C527.326 427.02 527.487 427.751 527.695 428.468C529.122 432.228 529.028 436.188 529.388 440.095C529.419 441.461 529.316 442.828 529.082 444.175C528.962 444.805 528.962 445.451 529.082 446.081C529.614 448.357 529.471 450.739 528.668 452.934C528.371 454.078 528.281 455.266 528.402 456.441C528.521 458.045 528.27 459.656 527.668 461.148C526.962 462.881 525.828 464.428 526.242 466.481C526.248 466.857 526.178 467.23 526.036 467.579C525.894 467.927 525.683 468.243 525.415 468.508C523.873 470.409 522.944 472.734 522.748 475.174C522.555 476.65 522.061 478.071 521.295 479.347C520.042 481.441 519.162 483.721 517.402 485.521C516.309 486.654 516.415 488.374 516.269 489.76C515.863 491.854 516.173 494.024 517.149 495.92C518.096 497.82 518.735 499.859 519.042 501.96C519.575 504.16 518.615 506.694 520.615 508.627C520.939 509.193 521.025 509.864 520.855 510.493C520.242 513.96 522.308 516.693 523.522 519.547C524.602 521.712 525.198 524.087 525.268 526.507C525.4 528.195 525.636 529.874 525.975 531.533C526.335 534.666 525.068 537.613 524.868 540.693C524.748 542.64 524.282 544.466 525.708 546.133C525.833 546.304 525.921 546.498 525.967 546.705C526.013 546.912 526.016 547.125 525.975 547.333C525.242 550.173 526.335 553.013 526.135 555.719C525.882 559.239 527.602 562.906 525.522 566.386C525.356 566.833 525.313 567.316 525.398 567.785C525.482 568.254 525.691 568.691 526.002 569.052C526.636 569.98 527.017 571.057 527.108 572.177C527.2 573.297 526.997 574.421 526.522 575.439C525.665 577.701 525.558 580.178 526.215 582.506C526.778 584.557 526.554 586.744 525.588 588.639C524.732 590.254 524.375 592.087 524.562 593.905C524.855 595.439 523.228 596.345 523.868 598.092C524.295 599.185 523.868 600.825 524.122 602.185C524.375 603.545 523.682 605.119 523.895 606.545C524.108 607.972 522.562 608.772 522.948 609.758C523.508 611.385 522.562 612.678 522.548 614.132C522.548 614.238 522.548 614.372 522.548 614.452C520.882 617.838 521.295 621.438 521.455 625.025C521.64 626.633 521.201 628.251 520.229 629.545C519.095 630.878 519.295 632.718 519.002 634.318C518.849 635.585 518.455 636.812 517.842 637.931C515.694 640.96 514.667 644.641 514.935 648.344C514.974 648.993 514.775 649.633 514.375 650.145C512.789 652.038 512.255 654.571 510.482 656.344C510.269 656.571 509.922 656.824 509.895 657.078C509.602 660.144 507.589 662.491 506.469 665.198C506.182 665.875 506.112 666.625 506.269 667.344C506.503 668.324 506.539 669.341 506.374 670.335C506.209 671.328 505.847 672.279 505.309 673.131C503.975 675.251 503.189 677.757 501.216 679.544C500.661 680.203 500.285 680.992 500.122 681.837C498.872 685.59 496.617 688.929 493.602 691.49C493.362 691.704 492.976 691.877 492.896 692.144C491.842 695.584 488.736 697.41 486.696 700.077C485.271 702.223 483.168 703.828 480.723 704.637C479.127 705.16 477.731 706.161 476.723 707.503C474.817 709.918 472.429 711.907 469.709 713.343C467.041 714.901 464.563 716.762 462.323 718.89C460.777 720.183 459.08 721.284 457.27 722.17C457.01 722.355 456.707 722.47 456.39 722.503C454.35 722.37 452.683 722.637 451.563 724.757C451.243 725.383 449.63 725.517 448.59 725.53C447.837 725.551 447.096 725.72 446.409 726.029C445.723 726.338 445.104 726.78 444.59 727.33C442.68 729.188 440.271 730.453 437.657 730.97C435.617 731.356 434.203 732.956 432.323 733.703C429.39 734.836 426.843 736.996 423.443 736.823C421.895 737.783 420.149 738.38 418.337 738.57C414.217 739.423 410.484 741.57 406.23 742.063C404.666 742.374 403.131 742.82 401.644 743.396C401.337 743.49 401.031 743.796 400.764 743.743C397.604 743.156 394.977 744.783 392.324 745.93C389.017 747.356 385.524 747.543 382.084 748.169C379.178 748.689 376.178 748.823 373.444 750.236C370.39 751.685 366.961 752.15 363.631 751.569C362.689 751.403 361.722 751.449 360.799 751.702C359.877 751.956 359.023 752.412 358.298 753.036C357.151 753.996 355.885 755.049 353.991 754.369C353.245 754.089 352.138 754.676 351.218 754.943C350.011 755.378 348.721 755.533 347.445 755.396C346.593 755.308 345.734 755.46 344.965 755.836C342.447 756.919 339.675 757.275 336.965 756.863C336.22 756.81 335.473 756.923 334.778 757.196C332.835 757.765 330.858 758.211 328.858 758.529C327.405 758.716 325.752 759.063 324.472 758.156C323.753 757.679 322.903 757.441 322.042 757.474C321.18 757.508 320.351 757.812 319.672 758.343C318.7 758.896 317.618 759.23 316.503 759.32C315.388 759.41 314.267 759.254 313.219 758.863C312.226 758.52 311.155 758.479 310.139 758.743C306.899 759.623 303.619 760.409 300.339 758.623C299.459 758.143 298.366 758.943 297.272 758.623C295.206 758.149 293.059 758.149 290.992 758.623C289.215 759.13 287.313 758.954 285.659 758.129C284.943 757.911 284.19 757.843 283.446 757.929C283.019 757.929 282.593 758.023 282.113 757.929C280.071 757.857 278.028 757.906 275.993 758.076C271.713 758.796 267.473 760.169 263.1 758.249C261.166 757.396 259.1 758.516 257.086 758.543C254.859 758.778 252.609 758.656 250.42 758.183C249.494 757.903 248.506 757.903 247.58 758.183C244.805 759.021 241.815 758.768 239.22 757.476C236.927 756.476 234.34 756.329 231.94 755.383C230.193 754.689 228.087 755.223 226.233 755.649C224.674 756.003 223.043 755.864 221.567 755.249C220.917 754.876 220.165 754.722 219.42 754.809C216.514 755.636 213.767 754.636 210.967 754.223C209.18 753.956 207.3 754.529 205.634 753.583C201.554 754.076 198.381 751.529 194.847 750.263C193.681 749.722 192.413 749.436 191.127 749.423C189.96 749.444 188.798 749.25 187.701 748.849C184.41 747.698 181.017 746.864 177.568 746.356C176.717 746.241 175.905 745.93 175.194 745.45C172.895 744.063 170.218 743.434 167.541 743.65C166.365 743.676 165.211 743.325 164.248 742.65C161.688 740.93 159.128 739.236 155.928 738.85C154.548 738.617 153.268 737.982 152.248 737.023C151.318 736.123 150.1 735.579 148.808 735.49C145.515 735.49 142.875 733.876 140.275 732.236C139.219 731.516 138.093 730.904 136.915 730.41C134.981 729.765 133.258 728.608 131.928 727.063C130.791 725.833 129.386 724.879 127.822 724.277C124.942 722.943 121.809 721.61 120.262 718.303C120.044 717.749 119.701 717.252 119.259 716.852C118.817 716.452 118.289 716.159 117.715 715.997C115.849 715.543 114.369 714.183 112.382 713.837C111.541 713.654 110.774 713.222 110.182 712.597C108.519 710.919 106.416 709.745 104.116 709.21C102.445 708.636 100.945 707.65 99.7556 706.344C97.6536 704.383 95.6932 702.275 93.8891 700.037C91.2414 696.701 88.387 693.535 85.3426 690.557C81.9959 687.304 81.0226 682.824 78.196 679.411C78.0452 679.257 77.9432 679.062 77.9027 678.851C77.556 673.917 74.036 670.731 71.3961 667.064C68.2895 662.771 65.1695 658.478 62.0629 654.184C61.8762 653.931 61.6496 653.571 61.7029 653.331C62.1829 651.358 60.7163 650.171 59.8896 648.744C59.0655 647.256 58.3308 645.72 57.6897 644.145C56.7105 642.141 55.6015 640.204 54.3697 638.345C54.0897 637.878 53.4897 637.438 53.5164 637.011C53.7164 633.398 51.1165 630.345 51.3831 626.812C51.3572 625.217 51.1605 623.631 50.7965 622.078C50.7031 621.425 50.6898 620.745 50.0231 620.398C47.6898 619.398 47.7298 617.212 47.5298 615.252C47.4117 614.194 47.1976 613.15 46.8899 612.132C46.0938 610.041 45.6435 607.834 45.5566 605.599C45.6232 602.705 44.3299 600.119 43.6366 597.412C43.5033 596.892 42.9432 596.332 43.0632 595.945C44.1432 592.505 40.6899 590.159 40.9433 586.932C40.9409 586.717 40.8548 586.512 40.7033 586.359C38.29 584.332 38.73 581.332 38.0367 578.719C37.2314 576.189 37.3639 573.453 38.41 571.012C38.8765 569.46 38.9634 567.819 38.6633 566.226C38.4401 564.308 38.6404 562.365 39.25 560.533C39.93 558.82 39.93 556.912 39.25 555.199C38.8453 554.23 38.6492 553.187 38.6745 552.137C38.6998 551.087 38.9458 550.055 39.3966 549.106C39.9509 547.377 40.2868 545.585 40.3966 543.773C40.8899 540.88 42.5433 539.506 45.0099 540.853C47.1832 542.04 49.3031 541.72 51.4498 542.026C56.0764 542.693 55.5697 542.813 54.9164 546.173C54.2423 549.183 54.6581 552.334 56.0897 555.066C56.2336 555.346 56.3069 555.658 56.303 555.973C56.383 559.586 56.4763 563.186 56.8497 566.786C57.1163 569.239 57.0363 571.666 58.183 573.959C59.1002 575.998 59.7414 578.15 60.0896 580.359C60.9569 585.047 62.4221 589.604 64.4496 593.919C64.635 594.183 64.7498 594.491 64.7829 594.812C64.5695 597.652 65.6362 600.279 66.1162 603.012C66.993 608.769 68.7703 614.353 71.3828 619.558C71.9223 620.609 72.6242 621.567 73.4627 622.398C75.414 624.367 76.7086 626.891 77.1693 629.625C77.5591 632.589 78.6667 635.413 80.3959 637.851C80.7808 638.369 81.0989 638.934 81.3426 639.531C82.2752 641.778 83.4368 643.923 84.8092 645.931C86.6758 648.504 88.3025 651.264 90.0491 653.931C90.3515 654.497 90.7432 655.01 91.2091 655.451C93.8757 657.558 95.4757 660.584 97.5423 663.224C98.1228 664.115 98.5719 665.085 98.8756 666.104C100.372 669.506 102.128 672.786 104.129 675.917C104.576 676.641 105.161 677.271 105.849 677.771C108.962 680.037 111.576 682.919 113.529 686.237C114.276 687.421 115.363 688.35 116.649 688.904C117.283 689.172 117.854 689.569 118.327 690.069C118.8 690.569 119.164 691.162 119.395 691.81C119.71 692.619 120.206 693.346 120.843 693.935C121.481 694.524 122.244 694.96 123.075 695.21C125.478 696.004 127.661 697.352 129.448 699.144C132.488 701.89 135.408 704.904 139.595 706.117C141.422 706.721 143.065 707.781 144.368 709.197C144.723 709.594 145.159 709.911 145.646 710.125C146.134 710.339 146.662 710.445 147.195 710.437C148.942 710.369 150.685 710.658 152.317 711.287C153.949 711.915 155.437 712.869 156.688 714.09C157.038 714.483 157.462 714.803 157.935 715.032C158.409 715.26 158.923 715.393 159.448 715.423C160.38 715.58 161.28 715.887 162.115 716.33C164.4 717.403 166.779 718.264 169.221 718.903C171.213 719.277 173.06 720.201 174.554 721.57C176.59 723.343 179.201 724.314 181.901 724.303C183.166 724.231 184.417 724.594 185.448 725.33C185.934 725.858 186.552 726.25 187.237 726.465C187.923 726.68 188.653 726.712 189.354 726.557Z"
      fill="#FFFFFF"></path>
    <path
      d="M208.114 465.854C206.52 465.955 204.92 465.847 203.354 465.534C200.861 465.068 198.407 464.201 195.821 465.108C195.505 465.181 195.177 465.181 194.861 465.108C189.927 464.281 184.928 464.428 179.968 463.974C178.889 463.934 177.843 463.587 176.954 462.974C174.515 461.329 171.808 460.12 168.955 459.401C165.178 458.375 161.558 456.841 158.195 454.841C155.448 453.055 152.475 451.588 150.195 449.255C147.915 446.921 145.102 445.815 142.888 443.655C142.099 442.963 141.38 442.195 140.742 441.361C139.142 439.108 137.862 436.615 135.542 434.908C135.282 434.716 135.069 434.467 134.919 434.181C134.769 433.894 134.686 433.578 134.675 433.255C134.528 430.828 132.955 429.095 131.448 427.495C129.379 425.069 128.026 422.114 127.542 418.962C127.742 416.655 127.222 414.242 128.409 412.095C129.328 410.442 130.555 408.962 131.422 407.295C133.18 404.239 135.61 401.622 138.528 399.642C140.589 398.153 142.15 396.075 143.008 393.682C143.29 392.709 143.808 391.821 144.515 391.096C147.648 387.949 150.088 384.202 152.968 380.816C154.679 378.533 156.714 376.511 159.008 374.816C159.418 374.572 159.769 374.24 160.034 373.843C160.3 373.446 160.473 372.995 160.541 372.523C160.81 371.119 161.387 369.793 162.231 368.64C163.075 367.487 164.165 366.536 165.421 365.856C165.822 365.513 166.334 365.328 166.861 365.336C168.195 365.496 168.808 364.536 169.394 363.669C170.474 362.096 171.408 360.496 173.541 360.083C174.259 359.823 174.851 359.298 175.194 358.616C176.794 355.829 179.754 354.163 181.114 351.203C184.701 350.616 188.248 349.536 191.954 349.87C194.748 350.048 197.532 349.394 199.954 347.99C200.905 347.512 201.957 347.274 203.021 347.296C206.216 347.392 209.415 347.267 212.594 346.923C213.966 346.655 215.387 346.803 216.674 347.35C216.942 347.522 217.244 347.633 217.56 347.674C217.876 347.716 218.197 347.687 218.5 347.59C221.327 346.403 224.14 347.35 226.887 347.91C228.634 348.27 230.393 348.256 232.14 348.55C233.887 348.843 235.513 349.816 237.473 349.363C238.26 349.176 239.273 349.83 240.14 350.163C240.802 350.525 241.54 350.723 242.294 350.741C243.047 350.76 243.795 350.598 244.473 350.27C245.807 349.483 247.14 351.176 248.353 350.083C250.3 350.91 252.58 350.243 254.42 351.63C255.613 352.355 256.951 352.81 258.34 352.963C260.75 353.387 263.03 354.359 265.006 355.803C266.691 356.925 268.546 357.767 270.499 358.296C272.832 359.016 274.9 360.407 276.446 362.296C277.711 364.104 279.087 365.832 280.566 367.469C281.809 368.733 282.792 370.227 283.459 371.869C283.607 372.484 283.665 373.117 283.633 373.749C283.446 373.843 283.179 373.883 283.086 374.029C281.207 376.904 279.084 379.612 276.739 382.122C274.318 384.637 271.725 386.98 268.979 389.136C268.258 389.672 267.733 390.431 267.486 391.296C266.46 394.602 265.033 397.735 261.78 399.535C260.78 398.418 259.929 397.177 259.246 395.842C258.616 394.376 257.562 393.131 256.22 392.269C254.26 391.189 252.74 389.522 250.886 388.269C247.78 386.202 245.127 383.549 241.82 381.722C238.513 379.896 234.727 378.309 231.46 376.082C230.753 375.614 229.952 375.307 229.114 375.183C228.275 375.058 227.419 375.12 226.607 375.362C224.121 376.092 221.474 376.06 219.007 375.269C216.34 374.162 213.514 373.696 210.82 372.696C210.063 372.407 209.253 372.283 208.444 372.331C207.635 372.38 206.845 372.599 206.127 372.976C205.081 373.519 203.931 373.833 202.754 373.896C198.519 374.138 194.355 375.089 190.434 376.709C189.947 376.937 189.411 377.042 188.874 377.016C185.981 376.456 183.541 377.962 181.448 379.309C178.594 381.109 175.808 383.042 172.968 384.882C170.581 386.429 168.421 388.322 165.915 389.722C164.81 390.187 163.897 391.015 163.328 392.069C162.318 395.077 160.467 397.733 157.995 399.722C157.669 400.01 157.41 400.364 157.235 400.762C155.296 404.318 153.633 408.018 152.261 411.829C151.691 413.638 151.448 415.534 151.541 417.428C151.661 421.322 151.821 423.962 157.621 425.428C157.931 425.517 158.234 425.629 158.528 425.762C159.543 426.258 160.656 426.523 161.786 426.537C162.916 426.551 164.034 426.313 165.061 425.842C167.088 424.788 169.528 424.695 171.248 422.775C173.204 420.562 175.42 418.592 177.848 416.908C180.4 415.192 182.581 412.979 184.261 410.402C184.981 409.335 185.594 408.242 186.301 407.135C186.634 406.575 186.954 406.015 187.634 405.802C189.754 405.242 191.701 404.175 193.994 404.015C196.257 404.019 198.461 403.289 200.274 401.935C200.978 401.43 201.837 401.189 202.701 401.255C203.77 401.269 204.829 401.036 205.794 400.575C207.349 399.823 209.133 399.694 210.78 400.215C211.367 400.424 212 400.461 212.607 400.322C214.297 399.941 216.065 400.099 217.66 400.775C219.607 401.415 221.274 402.962 223.594 402.309C223.887 402.229 224.434 402.589 224.7 402.895C226.555 405.104 229.046 406.687 231.833 407.429C232.02 407.429 232.167 407.709 232.353 407.789C234.367 408.615 235.18 410.655 236.7 411.962C239.367 414.335 242.247 416.575 245.033 418.882C244.62 419.748 243.473 419.735 243.06 420.762C241.849 423.301 240.053 425.518 237.82 427.228C237.284 427.577 236.799 427.999 236.38 428.482C234.153 431.295 232.007 434.148 229.713 436.948C229.284 437.533 228.968 438.193 228.78 438.895C227.754 442.055 225.22 444.108 222.914 446.308C220.647 446.308 220.247 448.175 219.9 449.708C219.017 453.198 217.119 456.348 214.447 458.761C212.154 461.054 210.194 463.508 208.114 465.854Z"
      fill="#FFFFFF"></path>
    <path
      d="M418.364 452.894C415.639 453.407 412.881 453.715 410.11 453.814C409.585 453.934 409.04 453.935 408.514 453.818C407.988 453.7 407.495 453.467 407.071 453.134C406.392 452.539 405.587 452.103 404.717 451.861C403.847 451.619 402.933 451.575 402.044 451.734C400.352 451.762 398.664 451.551 397.031 451.108C392.6 450.049 388.226 448.768 383.924 447.268C382.548 446.758 381.244 446.072 380.044 445.228C375.471 442.415 370.058 441.041 366.111 437.228C363.725 434.895 360.605 433.708 357.738 432.148C356.819 431.744 355.998 431.147 355.331 430.396C354.664 429.646 354.166 428.761 353.871 427.802C353.312 426.082 352.282 424.553 350.898 423.388C349.761 422.279 348.569 421.229 347.325 420.242C346.92 419.983 346.572 419.643 346.304 419.244C346.035 418.845 345.852 418.395 345.765 417.922C345.605 415.775 344.192 414.468 342.965 413.042C341.797 411.794 340.89 410.325 340.298 408.722C340.418 407.389 341.298 406.149 340.978 404.722C340.958 404.457 340.992 404.191 341.076 403.939C341.161 403.687 341.295 403.454 341.472 403.255C342.645 401.016 344.101 398.937 345.805 397.069C347.605 395.273 349.008 393.12 349.925 390.749C351.46 387.548 353.328 384.518 355.498 381.709C356.605 380.337 357.377 378.725 357.751 377.002C357.838 376.212 358.114 375.455 358.555 374.794C358.995 374.132 359.589 373.587 360.285 373.202C361.844 372.342 363.337 371.366 364.751 370.283C365.498 369.669 366.498 369.456 367.085 368.656C368.828 366.551 370.219 364.178 371.204 361.629C371.376 360.756 371.74 359.931 372.271 359.216C372.801 358.501 373.485 357.914 374.271 357.496C374.67 357.33 375.019 357.066 375.288 356.728C375.556 356.389 375.734 355.989 375.804 355.563C376.284 351.923 378.471 349.11 380.871 346.683C383.416 343.856 385.747 340.844 387.844 337.67C388.284 337.056 388.831 336.55 388.711 335.71C389.766 335.767 390.824 335.631 391.831 335.31C394.696 334.268 397.657 333.509 400.671 333.043C401.111 332.977 401.457 332.883 401.817 333.15C403.844 334.696 405.937 333.723 407.817 333.043C409.286 332.446 410.858 332.143 412.444 332.15C413.081 332.233 413.729 332.169 414.337 331.963C416.15 331.043 417.67 331.577 419.497 332.19C421.776 333.085 424.284 333.216 426.644 332.563C427.835 332.123 429.145 332.123 430.337 332.563C431.97 333.052 433.673 333.272 435.377 333.217C438.643 333.217 441.91 333.536 445.19 333.403C445.51 333.403 445.923 333.256 446.15 333.403C448.817 335.243 452.403 334.35 455.176 336.07C455.764 336.31 456.384 336.462 457.016 336.523C459.683 337.243 462.283 337.55 464.616 339.47C467.085 341.356 470.11 342.368 473.216 342.35C474.817 342.292 476.38 342.845 477.589 343.896C479.594 345.505 481.916 346.673 484.403 347.323C485.296 347.603 486.189 348.016 486.403 348.75C487.269 351.763 489.829 353.243 491.842 355.216C491.894 355.478 491.875 355.748 491.785 355.999C491.696 356.25 491.541 356.473 491.336 356.643C488.669 358.696 487.336 361.829 485.656 364.536C484.189 366.679 483.01 369.006 482.149 371.456C481.189 374.107 479.67 376.522 477.696 378.536C476.136 380.282 474.816 382.416 472.176 383.136C471.555 383.315 471.005 383.684 470.604 384.191C470.202 384.697 469.969 385.317 469.936 385.962C469.936 386.496 469.589 386.696 469.163 386.816C468.389 386.522 468.176 385.776 467.723 385.202C465.803 382.802 464.376 379.869 461.483 378.442C460.244 377.811 459.171 376.898 458.35 375.776C456.846 373.85 455.046 372.176 453.016 370.816C450.35 369.003 447.377 367.776 444.737 365.989C441.057 363.523 436.657 363.029 432.737 361.203C432.221 361.035 431.666 361.035 431.15 361.203C430.85 361.308 430.53 361.347 430.213 361.32C429.896 361.292 429.588 361.198 429.31 361.043C427.377 359.829 425.217 360.269 423.164 360.229C421.785 360.385 420.39 360.244 419.07 359.816C418.354 359.589 417.581 359.618 416.884 359.896C413.977 360.909 410.99 361.669 408.044 362.563C405.097 363.456 402.017 365.323 398.791 365.776C396.749 366.148 394.862 367.113 393.364 368.549C391.78 369.974 389.98 371.14 388.031 372.003C387.318 372.284 386.689 372.743 386.204 373.336C384.138 376.096 380.524 377.056 378.591 380.002C378.257 380.417 377.783 380.697 377.258 380.789C376.098 381.002 375.498 381.909 374.711 382.589C372.124 384.789 370.898 387.856 369.498 390.816C368.991 391.869 368.005 393.135 368.258 394.015C369.138 397.162 367.778 399.669 366.525 402.255C366.346 402.588 366.236 402.952 366.201 403.328C366.167 403.704 366.209 404.083 366.325 404.442C366.775 405.972 367.392 407.447 368.165 408.842C369.029 410.325 370.213 411.597 371.632 412.563C373.051 413.53 374.668 414.167 376.364 414.428C377.831 414.642 379.031 413.935 380.458 413.948C383.69 413.903 386.787 412.647 389.138 410.429C390.031 409.745 390.756 408.866 391.255 407.858C391.755 406.85 392.015 405.74 392.017 404.615C392.017 402.615 392.657 401.482 394.484 401.162C395.464 400.951 396.388 400.532 397.193 399.934C397.998 399.336 398.665 398.573 399.151 397.695C400.307 396.011 402.014 394.781 403.977 394.215C406.557 393.297 409.081 392.228 411.537 391.016C412.326 390.775 413.011 390.277 413.484 389.602C413.852 389.082 414.376 388.693 414.979 388.489C415.583 388.285 416.236 388.278 416.844 388.469C418.924 388.816 421.11 389.882 423.284 388.469C423.657 388.216 424.617 388.469 425.097 388.856C425.791 389.335 426.594 389.632 427.432 389.721C428.271 389.809 429.118 389.686 429.897 389.362C430.386 389.154 430.927 389.103 431.446 389.218C431.965 389.333 432.435 389.607 432.79 390.002C433.989 391.053 435.299 391.969 436.697 392.735C439.79 395.055 443.763 395.722 446.79 398.215C448.03 399.242 449.31 400.029 449.55 401.882C449.669 402.629 450.022 403.318 450.559 403.85C451.096 404.382 451.789 404.73 452.536 404.842C453.043 404.962 453.63 404.842 454.016 405.309C452.79 407.255 451.016 408.829 450.123 411.029C448.272 415.152 445.279 418.66 441.497 421.135C438.235 423.366 435.717 426.524 434.27 430.202C433.616 432.282 432.535 434.202 431.097 435.841C430.623 436.272 430.308 436.85 430.203 437.481C430.152 438.114 429.975 438.731 429.682 439.294C429.389 439.857 428.986 440.356 428.497 440.761C425.425 443.966 422.616 447.413 420.097 451.068C419.51 451.548 418.257 451.668 418.364 452.894Z"
      fill="#FFFFFF"></path>
    <path
      d="M48.8631 523.373C46.5298 522.84 43.5299 522.56 40.9299 521.107C40.1944 520.69 39.4223 520.342 38.6233 520.067C36.8932 519.546 35.2683 518.725 33.8234 517.64C32.4924 516.577 30.938 515.83 29.2768 515.453C27.8611 515.125 26.5561 514.432 25.4917 513.442C24.4274 512.453 23.6408 511.202 23.2102 509.814C22.0236 506.88 20.2769 504.107 20.4503 500.76C20.4316 500.545 20.3479 500.34 20.2103 500.174C17.1703 496.174 16.8503 491.067 15.0637 486.561C14.7683 485.529 14.7136 484.443 14.9037 483.387C15.1837 480.467 14.3037 477.401 15.4104 474.667C16.0874 472.91 16.5355 471.073 16.7437 469.201C16.9678 467.93 17.5886 466.763 18.517 465.868C20.1089 464.131 21.579 462.287 22.9169 460.348C23.7002 459.332 24.6252 458.434 25.6635 457.681C26.6368 456.948 28.0502 456.708 28.5035 455.281C28.5958 455.09 28.7322 454.924 28.9014 454.797C29.0707 454.669 29.2679 454.584 29.4768 454.548C31.7168 454.681 32.9167 453.214 34.3034 451.788C35.69 450.361 37.3966 450.895 38.9033 451.188C39.3958 451.331 39.9159 451.351 40.4181 451.247C40.9202 451.142 41.389 450.916 41.7832 450.588C44.4499 448.361 47.6898 447.841 50.9564 447.428C52.7876 447.306 54.6097 447.773 56.1563 448.761C57.6363 449.548 57.9563 450.321 57.4896 452.188C57.3065 453.446 57.463 454.73 57.943 455.908C58.373 457.113 58.4196 458.422 58.0763 459.654C57.768 460.346 57.7023 461.121 57.8897 461.854C58.9163 463.974 57.983 466.361 58.9963 468.454C59.0814 468.652 59.1253 468.865 59.1253 469.081C59.1253 469.296 59.0814 469.51 58.9963 469.708C57.663 471.908 58.9963 473.707 59.7563 475.627C61.8099 480.744 63.0993 486.135 63.5829 491.627C63.5829 491.947 63.5162 492.374 63.6762 492.574C65.6495 494.907 64.7295 497.654 64.7829 500.254C64.6129 502.378 64.7521 504.516 65.1962 506.6C65.5428 507.654 64.8362 508.147 64.3562 508.827C64.028 509.226 63.8313 509.717 63.7931 510.233C63.7549 510.749 63.8771 511.263 64.1428 511.707C64.9125 513.252 65.1125 515.019 64.7077 516.697C64.3029 518.375 63.3191 519.856 61.9296 520.88C60.5963 521.92 58.9163 521.827 57.383 522.013C55.4897 522.24 53.5831 521.867 51.8364 523.107C51.3431 523.533 50.2764 523.28 48.8631 523.373Z"
      fill="#FBD7C7"></path>
    <path
      d="M351.325 468.614L350.765 468.681C347.951 468.681 345.111 468.201 342.472 469.748C340.045 471.174 337.138 471.241 334.565 472.188C332.364 472.985 329.981 473.133 327.698 472.614C325.817 472.11 323.817 472.309 322.072 473.174C321.299 473.559 320.441 473.738 319.579 473.694C317.873 473.587 316.17 473.937 314.645 474.707C313.244 475.294 311.673 475.332 310.245 474.814C306.912 473.841 303.579 474.587 300.459 475.147C297.792 475.614 295.752 474.761 293.459 474.374C292.446 474.201 291.606 473.747 290.472 474.267C289.904 474.455 289.291 474.461 288.718 474.287C288.146 474.113 287.641 473.766 287.272 473.294C286.346 472.416 285.165 471.856 283.899 471.694C280.966 471.161 279.766 468.708 278.566 466.361C278.313 465.828 278.566 465.388 278.846 464.881C280.361 461.476 282.829 458.582 285.952 456.548C287.67 455.449 288.988 453.827 289.712 451.921C290.553 449.716 292.088 447.844 294.086 446.588C295.04 446.089 295.821 445.313 296.326 444.361C297.232 441.948 298.766 439.881 299.792 437.575C300.819 435.268 302.459 433.428 302.592 430.908C302.592 430.708 302.899 430.522 302.886 430.348C302.632 427.308 304.139 424.868 305.552 422.348C306.192 421.222 306.497 419.936 306.432 418.642C306.41 418.109 306.454 417.576 306.565 417.055C306.912 415.295 307.005 413.255 309.232 412.789C311.459 412.322 313.912 412.055 315.779 414.122C316.824 415.035 317.618 416.201 318.085 417.508C318.196 418.14 318.508 418.718 318.974 419.158C319.44 419.597 320.035 419.875 320.672 419.948C322.165 420.296 323.462 421.215 324.285 422.508C326.218 425.175 328.392 427.842 329.458 431.122C329.712 431.908 330.378 432.228 330.912 432.735C334.618 436.228 338.592 439.481 341.578 443.735C343.032 445.841 345.578 446.468 347.578 447.735C350.245 449.441 352.725 451.015 354.338 453.868C355.437 455.439 356.702 456.888 358.111 458.188C361.311 461.748 359.445 465.188 356.071 467.441C355.424 467.989 354.659 468.38 353.835 468.583C353.012 468.787 352.153 468.797 351.325 468.614Z"
      fill="#FBD7C7"></path>
    <path
      d="M418.364 452.894C418.297 451.668 419.55 451.561 420.057 450.855C422.576 447.2 425.385 443.753 428.457 440.548C428.946 440.143 429.349 439.644 429.642 439.081C429.935 438.517 430.112 437.901 430.163 437.268C430.268 436.636 430.583 436.058 431.057 435.628C432.495 433.989 433.576 432.068 434.23 429.988C435.677 426.311 438.195 423.153 441.457 420.922C445.239 418.446 448.232 414.939 450.083 410.815C450.976 408.615 452.75 407.042 453.976 405.095C456.95 405.362 459.91 405.682 462.883 405.869C464.301 405.959 465.71 405.578 466.889 404.785C468.069 403.992 468.953 402.83 469.403 401.482C469.877 399.737 470.586 398.064 471.509 396.509C472.843 394.696 472.056 392.816 472.216 391.002C472.309 389.909 471.069 389.336 470.269 388.656C469.674 388.18 469.286 387.492 469.189 386.736C469.616 386.616 469.949 386.416 469.963 385.882C469.996 385.237 470.229 384.617 470.631 384.111C471.032 383.604 471.582 383.235 472.203 383.056C474.869 382.336 476.203 380.202 477.723 378.456C479.697 376.442 481.215 374.027 482.176 371.376C483.036 368.926 484.215 366.599 485.682 364.456C487.416 361.789 488.682 358.616 491.362 356.563C491.567 356.393 491.723 356.17 491.812 355.919C491.901 355.668 491.921 355.398 491.869 355.136C495.669 356.256 496.762 357.803 497.096 361.683C497.296 364.096 496.549 366.576 497.669 368.949C497.989 369.643 497.389 370.376 497.136 371.069C496.222 373.255 495.958 375.657 496.376 377.989C496.474 378.405 496.48 378.838 496.395 379.256C496.31 379.675 496.135 380.071 495.882 380.416C495.425 380.88 495.162 381.502 495.147 382.153C495.133 382.805 495.367 383.437 495.802 383.922C496.044 384.218 496.208 384.569 496.278 384.944C496.348 385.32 496.322 385.706 496.202 386.069C495.256 389.522 495.082 393.202 493.096 396.375C492.44 397.596 491.99 398.916 491.762 400.282C491.297 403.236 490.191 406.053 488.522 408.535C487.715 409.906 487.045 411.353 486.522 412.855C485.91 414.214 485.077 415.462 484.056 416.548C482.389 418.308 481.829 420.668 480.923 422.788C480.545 423.84 479.951 424.801 479.18 425.61C478.408 426.418 477.476 427.056 476.443 427.482C475.876 427.656 475.355 427.956 474.921 428.36C474.487 428.764 474.15 429.262 473.936 429.815C472.603 433.815 469.363 436.108 466.043 438.268C463.749 439.812 461.377 441.236 458.936 442.535C456.15 443.961 453.603 445.868 450.256 446.148C448.398 446.517 446.602 447.15 444.923 448.028C442.057 449.201 439.097 449.068 436.203 449.615C435.255 449.708 434.341 450.023 433.537 450.535C432.091 451.403 430.437 451.864 428.75 451.868C425.23 452.241 421.71 451.908 418.364 452.894Z"
      fill="#FBD7C7"></path>
    <path
      d="M98.4491 413.188C98.4491 415.628 98.4491 415.602 96.3291 416.415C92.4492 417.895 88.5292 419.762 84.4359 419.962C80.9027 420.148 77.3427 421.908 73.7695 420.255C71.2095 420.882 68.4362 420.428 65.9696 421.335C64.183 421.975 62.4097 422.588 60.4763 421.535C60.0784 421.364 59.6497 421.275 59.2164 421.275C58.7831 421.275 58.3544 421.364 57.9564 421.535C55.6498 422.615 53.0898 421.655 50.7565 422.668C49.7329 423.022 48.6132 422.974 47.6233 422.535C46.8744 422.12 46.0137 421.952 45.1638 422.055C44.3139 422.158 43.5182 422.527 42.89 423.108C42.4874 423.459 42.0167 423.723 41.5074 423.884C40.9981 424.044 40.4611 424.098 39.9301 424.042C38.8634 423.948 37.7701 424.188 36.7034 424.042C33.5702 423.668 30.9169 425.002 28.3036 426.375C26.7036 427.215 25.1836 428.162 23.277 427.962C22.7303 427.962 22.1437 427.842 21.7837 428.308C20.357 430.148 18.1304 430.281 16.1838 431.055C14.0105 431.921 11.9572 432.268 10.0105 430.495C9.3197 429.999 8.57771 429.579 7.79727 429.242C6.44386 428.615 5.38465 427.49 4.84061 426.101C4.29657 424.713 4.30973 423.168 4.87731 421.788C5.14278 420.664 5.4858 419.559 5.90395 418.482C6.15121 418.009 6.29674 417.489 6.33118 416.956C6.36563 416.423 6.28823 415.889 6.10395 415.388C5.8024 414.885 5.62999 414.315 5.60207 413.729C5.57416 413.142 5.6916 412.558 5.94394 412.028C6.8821 410.588 8.16545 409.406 9.67722 408.589C12.4071 407.532 14.9064 405.956 17.0371 403.949C17.9209 403.112 18.9722 402.473 20.1214 402.073C21.2706 401.673 22.4916 401.522 23.7037 401.629C26.5734 401.821 29.4325 401.123 31.8902 399.629C33.8102 398.295 36.2101 399.202 38.3034 398.522C39.6367 399.589 40.8767 398.522 41.9033 398.122C44.8713 397.032 47.996 396.428 51.1565 396.335C54.4934 396.137 57.776 395.398 60.8764 394.149C61.5767 393.895 62.3181 393.773 63.063 393.789C67.7346 393.859 72.3742 393.008 76.7161 391.282C78.1126 390.773 79.5896 390.52 81.076 390.536C83.843 390.717 86.6218 390.537 89.3426 390.002C91.4359 389.429 92.7558 390.655 93.3425 392.855C94.4225 396.709 95.0891 400.642 96.1824 404.495C96.8891 406.975 97.3157 409.589 98.2357 412.042C98.3638 412.411 98.4357 412.798 98.4491 413.188Z"
      fill="#838382"></path>
    <path
      d="M261.673 399.562C264.926 397.762 266.353 394.629 267.38 391.322C267.627 390.458 268.151 389.699 268.873 389.162C271.619 387.007 274.212 384.664 276.633 382.149C278.977 379.639 281.1 376.931 282.979 374.056C283.073 373.909 283.339 373.869 283.526 373.776C283.804 375.617 284.25 377.429 284.859 379.189C285.213 379.846 285.414 380.574 285.449 381.32C285.483 382.065 285.35 382.809 285.059 383.496C284.499 384.562 285.193 385.509 285.566 386.162C286.228 387.437 286.602 388.842 286.662 390.277C286.722 391.712 286.466 393.143 285.913 394.469C285.442 395.779 285.265 397.176 285.393 398.562C285.632 400.585 285.191 402.631 284.139 404.375C283.793 404.935 283.326 405.482 283.526 406.135C283.72 407.006 283.731 407.908 283.556 408.782C283.382 409.657 283.026 410.486 282.513 411.215C282.211 411.779 282.043 412.403 282.019 413.042C281.846 416.722 279.673 419.522 277.793 422.375C276.526 424.322 274.926 426.055 275.126 428.668C275.125 429.264 274.976 429.85 274.692 430.374C274.408 430.898 273.998 431.343 273.499 431.668C270.206 434.028 268.42 437.668 265.713 440.495C262.433 443.935 259.686 448.188 255.326 450.255C252.433 451.588 250.313 454.161 247.167 454.961C246.873 455.041 246.633 455.414 246.34 455.441C242.34 455.788 239.38 458.428 235.82 459.681C232.26 460.934 229.02 462.641 225.154 462.628C223.479 462.827 221.825 463.166 220.207 463.641C218.274 463.961 216.38 464.748 214.327 464.001C213.803 463.872 213.255 463.869 212.729 463.991C212.203 464.114 211.714 464.36 211.3 464.708C210.886 465.128 210.377 465.444 209.815 465.627C209.254 465.81 208.657 465.856 208.074 465.761C210.154 463.414 212.074 460.961 214.314 458.748C216.986 456.335 218.883 453.185 219.767 449.695C220.114 448.161 220.514 446.308 222.78 446.295C225.087 444.095 227.62 442.041 228.647 438.881C228.834 438.18 229.151 437.52 229.58 436.935C231.82 434.135 233.967 431.282 236.247 428.468C236.666 427.985 237.151 427.563 237.687 427.215C239.92 425.504 241.716 423.288 242.927 420.748C243.34 419.722 244.487 419.735 244.9 418.868C245.606 419.071 246.323 419.235 247.047 419.362C250.353 419.842 253.406 419.788 256.38 417.495C258.433 415.833 260.388 414.052 262.233 412.162C263.019 411.357 263.571 410.354 263.83 409.259C264.088 408.164 264.043 407.02 263.7 405.949C263.273 403.709 261.9 401.829 261.673 399.562Z"
      fill="#FBD7C7"></path>
    <path
      d="M388.697 335.63C388.817 336.47 388.271 336.963 387.831 337.59C385.734 340.764 383.403 343.776 380.858 346.603C378.444 349.03 376.271 351.843 375.791 355.483C375.72 355.909 375.542 356.309 375.274 356.648C375.006 356.986 374.656 357.25 374.258 357.416C373.471 357.834 372.788 358.421 372.258 359.136C371.727 359.851 371.363 360.676 371.191 361.549C370.206 364.098 368.815 366.471 367.071 368.576C366.485 369.376 365.485 369.589 364.738 370.203C363.324 371.286 361.831 372.262 360.271 373.123C359.575 373.507 358.982 374.052 358.541 374.714C358.1 375.375 357.825 376.132 357.738 376.922C357.363 378.645 356.592 380.257 355.485 381.629C353.315 384.438 351.447 387.468 349.911 390.669C348.995 393.04 347.592 395.193 345.792 396.989C344.088 398.857 342.631 400.936 341.458 403.175C341.133 403.581 340.98 404.098 341.032 404.615C341.352 406.055 340.472 407.282 340.352 408.615C338.645 406.122 336.538 403.869 336.352 400.615C336.326 398.994 335.699 397.44 334.592 396.255C333.258 394.856 333.045 392.776 332.138 391.096C332.038 390.79 332.003 390.467 332.038 390.147C332.072 389.828 332.175 389.519 332.338 389.242C332.63 388.505 332.754 387.712 332.701 386.921C332.648 386.13 332.42 385.361 332.032 384.669C331.032 382.669 331.205 380.309 331.072 378.149C331.038 376.813 331.096 375.477 331.245 374.149C331.475 372.363 332.259 370.694 333.485 369.376C334.592 368.043 335.885 366.963 335.778 364.816C335.911 363.421 336.524 362.116 337.512 361.123C339.292 358.862 341.459 356.934 343.912 355.429C346.306 354.277 348.452 352.67 350.231 350.696C350.742 350 351.476 349.501 352.311 349.283C354.66 348.667 356.887 347.657 358.898 346.296C360.17 345.511 361.599 345.015 363.085 344.843C364.752 344.571 366.35 343.977 367.791 343.096C370.149 341.683 372.647 340.517 375.244 339.616C375.538 339.536 375.978 339.616 376.151 339.403C377.804 337.616 380.058 337.856 382.138 337.736C382.657 337.748 383.172 337.633 383.636 337.401C384.101 337.169 384.502 336.826 384.804 336.403C385.884 334.75 386.364 334.75 388.697 335.63Z"
      fill="#FBD7C7"></path>
    <path
      d="M328.045 560.919C324.045 560.239 319.925 559.853 316.885 556.466C316.05 555.652 315.113 554.948 314.099 554.373C312.432 553.28 310.579 552.413 309.925 550.28C309.879 550.125 309.801 549.982 309.695 549.86C309.589 549.738 309.459 549.64 309.312 549.573C306.485 549.213 305.445 546.453 303.285 545.173C302.213 544.585 301.278 543.775 300.543 542.799C299.807 541.822 299.288 540.699 299.019 539.506C298.668 538.272 297.924 537.186 296.899 536.413C295.766 535.4 295.846 534.666 297.166 533.973C298.725 533.084 300.392 532.399 302.126 531.933C303.472 531.653 304.764 531.158 305.952 530.467C307.591 529.729 309.29 529.136 311.032 528.693C312.365 528.187 313.512 529.08 314.725 529.373C315.419 529.533 316.192 530.213 316.819 529.827C318.659 528.733 320.592 529.427 322.472 529.253C323.222 529.308 323.975 529.258 324.712 529.107C329.045 527.187 333.685 528.493 338.045 527.667C340.138 527.267 341.938 528.227 343.911 528C345.928 527.776 347.969 527.962 349.911 528.547C350.511 528.664 351.076 528.915 351.565 529.281C352.053 529.647 352.454 530.119 352.735 530.661C353.017 531.202 353.173 531.801 353.192 532.411C353.211 533.021 353.092 533.628 352.845 534.186C351.88 536.54 350.748 538.821 349.458 541.013C346.791 545.386 344.271 549.826 340.352 553.226C338.832 554.559 338.325 556.613 336.565 557.853C334.044 559.607 331.105 560.665 328.045 560.919Z"
      fill="#CC8077"></path>
    <path
      d="M181.034 351.283C179.701 354.243 176.714 355.909 175.114 358.696C174.771 359.378 174.179 359.903 173.461 360.163C171.328 360.576 170.394 362.176 169.314 363.749C168.728 364.616 168.088 365.576 166.781 365.416C166.254 365.408 165.742 365.593 165.341 365.936C164.085 366.616 162.995 367.567 162.151 368.72C161.307 369.873 160.73 371.199 160.461 372.602C160.393 373.075 160.22 373.526 159.954 373.923C159.689 374.32 159.338 374.652 158.928 374.896C156.634 376.591 154.599 378.613 152.888 380.896C150.008 384.282 147.555 388.029 144.435 391.176C143.728 391.901 143.21 392.789 142.928 393.762C142.07 396.155 140.509 398.233 138.448 399.722C135.53 401.702 133.1 404.319 131.342 407.375C130.475 409.042 129.248 410.522 128.328 412.175C127.142 414.322 127.662 416.735 127.462 419.042C126.542 417.362 127.462 415.415 126.782 413.775C126.102 412.135 124.422 411.108 124.115 409.429C123.529 405.909 121.702 402.922 120.422 399.695C120.361 399.488 120.334 399.272 120.342 399.055C120.142 396.269 120.342 393.429 119.169 390.762C119.119 390.558 119.112 390.346 119.148 390.14C119.185 389.933 119.265 389.736 119.382 389.562C121.198 386.703 122.717 383.665 123.915 380.496C124.329 379.562 125.355 379.162 126.008 378.562C127.835 376.682 129.595 374.722 131.342 372.776C132.877 371.005 134.849 369.667 137.062 368.896C142.058 367.282 146.619 364.545 150.395 360.896C150.608 360.669 150.928 360.469 151.021 360.189C151.968 357.523 154.328 357.109 156.488 357.203C158.859 357.209 161.179 356.513 163.155 355.203C164.947 354.027 167.051 353.418 169.194 353.456C169.729 353.527 170.273 353.434 170.754 353.189C173.994 351.003 177.514 351.163 181.034 351.283Z"
      fill="#FBD7C7"></path>
  </symbol>
</svg>
