<?xml version="1.0" standalone="no"?>
<!DOCTYPE svg PUBLIC "-//W3C//DTD SVG 20010904//EN"
 "http://www.w3.org/TR/2001/REC-SVG-20010904/DTD/svg10.dtd">
<svg version="1.0" xmlns="http://www.w3.org/2000/svg"
 width="700.000000pt" height="700.000000pt" viewBox="0 0 700.000000 700.000000"
 preserveAspectRatio="xMidYMid meet">
<metadata>
Created by potrace 1.14, written by Peter Selinger 2001-2017
</metadata>
<g transform="translate(0.000000,700.000000) scale(0.100000,-0.100000)"
fill="#000000" stroke="none">
<path d="M5155 5999 c-50 -17 -67 -18 -105 -9 -36 9 -58 8 -105 -5 -32 -8 -70
-15 -84 -15 -28 0 -149 -46 -171 -65 -8 -7 -32 -13 -52 -12 -32 1 -75 -14
-128 -45 -58 -33 -161 -78 -193 -83 -24 -5 -55 -23 -87 -52 -27 -24 -69 -51
-93 -59 -33 -11 -49 -24 -65 -53 -12 -21 -22 -48 -22 -59 0 -10 -10 -32 -21
-47 -23 -29 -27 -71 -10 -104 6 -11 11 -37 11 -59 0 -31 -8 -48 -40 -84 -22
-25 -57 -53 -79 -61 -24 -10 -47 -30 -61 -51 -12 -20 -40 -47 -62 -60 -26 -15
-47 -38 -58 -64 -25 -56 -119 -127 -157 -118 -16 3 -66 8 -113 10 -99 4 -153
23 -174 63 -23 44 -128 130 -173 142 l-40 11 -7 67 c-19 169 -19 169 -74 248
-52 75 -52 75 -97 75 -64 0 -111 23 -136 65 -13 21 -32 38 -48 41 -14 4 -46
12 -71 19 -112 31 -142 38 -244 52 -85 13 -115 14 -140 5 -50 -18 -71 -15
-148 25 -57 30 -81 37 -117 36 -25 -2 -77 -4 -116 -6 -85 -3 -206 -31 -260
-59 -56 -30 -95 -37 -156 -27 -52 8 -56 7 -122 -33 -60 -36 -75 -41 -127 -40
-42 1 -65 -4 -82 -17 -13 -10 -62 -36 -110 -59 -65 -31 -103 -59 -151 -106
-35 -35 -83 -74 -106 -86 -23 -11 -66 -36 -94 -54 -29 -18 -66 -38 -83 -45
-41 -16 -82 -60 -137 -144 -43 -65 -45 -70 -40 -127 l6 -59 -49 -43 c-27 -24
-88 -83 -136 -133 -91 -93 -142 -177 -167 -275 -7 -25 -24 -80 -38 -123 -17
-53 -23 -88 -19 -110 10 -47 23 -124 32 -187 4 -30 18 -77 31 -105 12 -27 23
-61 23 -75 0 -36 216 -505 264 -573 23 -32 69 -87 104 -121 34 -35 62 -69 62
-75 0 -6 24 -26 53 -46 28 -19 74 -53 101 -75 28 -21 76 -54 108 -72 33 -18
75 -45 94 -60 19 -15 65 -36 101 -48 79 -26 134 -53 153 -75 25 -30 67 -45
172 -60 57 -9 130 -23 163 -32 46 -12 109 -16 271 -16 200 0 213 1 242 21 16
12 59 28 94 37 35 8 84 21 108 30 32 11 46 12 56 4 20 -16 8 -28 -52 -55 -35
-15 -81 -50 -132 -101 -82 -80 -122 -143 -122 -188 0 -29 -26 -85 -39 -85 -18
0 -26 -58 -25 -175 3 -220 10 -241 99 -336 29 -30 64 -78 78 -105 23 -45 33
-54 109 -92 53 -27 97 -42 121 -42 20 0 90 -11 154 -25 142 -30 159 -30 214
-5 24 11 58 20 74 20 19 0 78 27 154 70 67 39 129 70 136 70 19 0 75 -71 75
-95 0 -26 27 -65 45 -65 7 0 22 -15 34 -32 66 -104 153 -188 236 -227 22 -11
53 -33 69 -50 16 -16 43 -33 60 -36 17 -4 59 -22 93 -40 58 -32 69 -34 196
-41 143 -7 190 0 223 37 9 11 42 26 71 35 39 11 69 30 111 69 31 30 92 87 136
127 71 66 189 225 210 283 13 34 118 185 130 185 6 0 38 -11 71 -25 33 -13 79
-25 103 -25 23 0 53 -6 65 -14 12 -8 58 -25 101 -37 68 -18 87 -20 130 -10 51
11 78 15 190 29 54 7 63 12 95 52 20 24 61 68 92 99 45 46 58 67 69 111 7 29
23 79 35 109 12 31 26 79 29 106 4 28 11 64 17 81 8 26 4 46 -22 118 -17 47
-35 89 -40 92 -5 3 -9 19 -9 35 0 16 -12 48 -26 72 -29 45 -173 190 -199 200
-34 14 -6 62 43 73 15 3 41 9 57 14 17 4 41 3 55 -2 17 -6 35 -4 60 6 19 8 54
17 76 19 23 3 89 28 147 56 78 38 116 51 150 51 32 0 55 8 83 27 21 14 73 42
114 61 87 41 293 176 358 236 118 108 225 283 316 516 58 148 76 227 101 440
7 59 20 120 30 139 16 30 16 43 6 138 -7 57 -16 115 -21 129 -7 18 -5 34 7 60
17 34 17 37 -17 132 -36 103 -107 224 -142 243 -11 6 -138 123 -282 261 l-261
250 -53 -6 c-56 -7 -69 1 -114 67 -11 15 -38 32 -68 42 -31 10 -57 27 -70 44
-13 20 -32 30 -59 35 -23 3 -56 20 -80 40 -41 34 -55 39 -143 51 -26 3 -63 17
-82 30 -59 40 -69 43 -162 55 -80 10 -173 25 -214 35 -8 2 -42 -5 -75 -16z
m572 -871 c32 -5 94 -13 138 -16 61 -5 87 -12 109 -29 24 -20 36 -22 86 -16
56 5 61 4 110 -32 29 -21 78 -48 110 -59 34 -13 78 -39 106 -65 27 -24 63 -50
81 -57 18 -8 37 -23 43 -33 21 -40 72 -187 72 -206 -1 -34 -21 -147 -41 -225
-13 -54 -17 -96 -14 -152 5 -65 3 -81 -14 -105 -11 -15 -30 -59 -42 -98 -13
-38 -26 -74 -31 -80 -4 -5 -13 -28 -20 -50 -7 -22 -34 -71 -61 -108 -27 -37
-63 -92 -80 -122 -16 -29 -36 -59 -44 -65 -8 -6 -19 -27 -25 -46 -6 -18 -31
-51 -54 -71 -53 -46 -204 -137 -260 -156 -107 -37 -176 -58 -226 -68 -30 -6
-78 -19 -107 -29 -33 -12 -88 -21 -150 -23 -54 -2 -120 -10 -147 -17 -38 -10
-62 -11 -112 -1 -35 6 -75 9 -88 5 -16 -4 -49 4 -90 20 -36 15 -80 29 -98 32
-52 10 -236 84 -250 101 -7 9 -37 27 -67 40 -30 13 -71 39 -92 57 -21 18 -62
45 -91 61 -68 36 -87 53 -103 91 -7 18 -37 59 -67 92 -99 110 -218 297 -218
342 0 11 -14 45 -31 75 -25 45 -30 64 -28 107 1 29 -2 64 -8 78 -28 66 -31
111 -13 175 10 35 27 72 37 82 11 11 23 38 26 59 6 31 19 51 69 97 79 73 183
148 228 167 19 7 46 21 60 31 14 9 41 20 60 24 19 4 67 22 105 40 39 18 81 38
95 44 14 7 36 18 50 26 14 8 42 15 63 15 23 0 51 9 68 21 20 14 39 19 57 16
15 -3 63 2 107 10 44 9 134 19 200 22 182 11 527 11 592 -1z m-3509 -229 c49
-20 195 -41 292 -43 81 -1 108 -7 185 -35 50 -19 106 -44 125 -56 19 -13 58
-30 87 -40 35 -11 61 -28 80 -51 15 -19 49 -59 76 -89 37 -43 47 -63 47 -90 0
-20 7 -52 15 -72 8 -19 15 -60 15 -89 0 -29 7 -72 16 -94 15 -36 15 -44 0 -87
-9 -25 -16 -64 -16 -84 0 -21 -6 -53 -14 -71 -8 -18 -22 -69 -31 -113 -18 -83
-52 -160 -91 -207 -12 -15 -25 -46 -29 -69 -8 -44 -51 -99 -195 -245 -38 -39
-70 -76 -70 -81 0 -14 -143 -97 -209 -122 -29 -11 -71 -32 -92 -46 -22 -14
-63 -31 -91 -39 -29 -8 -64 -19 -78 -25 -34 -15 -349 -63 -362 -55 -6 4 -67 8
-137 10 -247 5 -309 14 -381 49 -36 18 -81 36 -100 40 -19 4 -85 31 -147 61
-89 44 -132 72 -206 139 -52 46 -112 105 -133 132 -21 26 -46 55 -55 63 -9 8
-19 27 -23 43 -4 15 -22 44 -40 65 -48 54 -68 97 -73 166 -4 40 -13 73 -28 96
-13 19 -26 51 -30 70 -4 19 -18 53 -30 75 -21 37 -38 127 -38 203 0 18 9 45
20 60 11 15 24 43 28 61 10 48 152 183 234 223 100 48 193 112 229 157 31 39
36 41 88 41 41 0 64 6 92 25 20 13 62 29 92 35 30 6 71 17 90 25 34 14 141 24
290 29 50 2 89 9 118 23 39 18 64 21 248 22 125 0 215 -4 232 -10z m1410
-1076 c13 -8 31 -31 39 -51 17 -41 29 -52 59 -52 27 0 64 -42 105 -119 20 -39
53 -80 84 -107 28 -24 78 -76 110 -115 40 -47 79 -80 116 -100 68 -37 147
-116 184 -185 26 -50 26 -53 10 -83 -28 -54 -69 -72 -147 -65 -58 6 -76 3
-130 -18 -105 -42 -131 -48 -214 -48 -49 0 -111 -8 -159 -21 -68 -17 -88 -19
-140 -10 -41 7 -79 8 -120 1 -132 -22 -262 8 -338 79 -52 47 -53 57 -8 116 22
29 61 70 86 91 26 21 57 59 71 86 13 26 35 55 48 63 25 17 99 131 111 173 4
12 17 42 31 65 13 23 24 58 24 78 0 21 13 61 30 94 17 31 30 72 30 90 0 60 55
78 118 38z m598 -1886 c13 -15 24 -34 24 -42 0 -20 -66 -139 -117 -210 -90
-126 -131 -171 -187 -209 -57 -38 -58 -38 -114 -28 -98 18 -134 30 -147 49 -7
10 -36 34 -63 53 -28 19 -56 44 -62 55 -6 11 -26 31 -45 43 -52 36 -135 128
-135 151 0 11 -10 27 -22 35 -27 20 -20 27 57 56 33 12 77 29 97 37 24 10 52
13 80 9 39 -5 374 17 383 25 2 2 54 4 115 4 110 0 112 0 136 -28z"/>
<path d="M5170 4701 c-139 -33 -182 -51 -241 -105 -30 -28 -80 -64 -110 -80
-29 -16 -75 -48 -100 -71 -25 -24 -69 -59 -98 -80 -45 -32 -58 -50 -92 -123
-21 -47 -39 -100 -39 -119 0 -18 -7 -45 -16 -58 -12 -18 -14 -35 -9 -62 9 -51
63 -151 88 -165 12 -6 52 -11 91 -12 94 -1 179 25 224 70 31 31 34 38 28 73
-6 39 -6 40 38 56 31 12 53 30 70 55 25 38 111 88 178 105 15 4 34 17 42 30
15 23 20 24 113 20 179 -7 219 -14 249 -46 15 -16 33 -29 38 -29 6 0 46 -18
89 -41 69 -36 81 -46 97 -85 12 -26 29 -48 42 -53 41 -15 218 -32 236 -22 35
19 71 68 97 134 22 56 25 73 16 97 -14 43 -145 216 -178 237 -15 9 -58 45 -94
78 -37 33 -91 73 -121 87 -30 15 -60 34 -67 42 -7 8 -38 20 -69 27 -31 6 -66
16 -77 22 -25 13 -209 36 -290 36 -33 -1 -94 -9 -135 -18z"/>
<path d="M1755 4484 c-161 -34 -289 -77 -351 -119 -28 -19 -54 -35 -57 -35
-13 0 -117 -73 -117 -82 0 -5 -14 -14 -30 -20 -20 -7 -38 -24 -51 -50 -11 -22
-38 -59 -58 -81 -86 -94 -153 -287 -130 -371 12 -43 57 -82 110 -96 46 -13
128 0 194 30 39 18 199 166 242 225 53 72 56 74 133 90 41 8 95 24 120 34 27
11 84 21 143 25 117 8 194 -9 277 -58 30 -19 74 -43 98 -55 23 -12 42 -25 42
-30 0 -16 153 -138 194 -155 45 -19 89 -21 119 -5 43 23 149 114 163 141 23
45 16 87 -31 184 -42 87 -90 144 -120 144 -8 0 -16 8 -20 19 -3 10 -29 35 -58
55 -29 19 -71 50 -95 67 -24 17 -87 53 -140 81 -96 49 -98 50 -167 44 -56 -5
-82 -2 -127 14 -91 32 -149 33 -283 4z"/>
</g>
</svg>
