<?xml version="1.0" standalone="no"?>
<!DOCTYPE svg PUBLIC "-//W3C//DTD SVG 20010904//EN"
 "http://www.w3.org/TR/2001/REC-SVG-20010904/DTD/svg10.dtd">
<svg version="1.0" xmlns="http://www.w3.org/2000/svg"
 width="700.000000pt" height="700.000000pt" viewBox="0 0 700.000000 700.000000"
 preserveAspectRatio="xMidYMid meet">
<metadata>
Created by potrace 1.14, written by Peter Selinger 2001-2017
</metadata>
<g transform="translate(0.000000,700.000000) scale(0.100000,-0.100000)"
fill="#000000" stroke="none">
<path d="M3848 6996 c-1 -2 -43 -7 -93 -10 -49 -4 -99 -9 -110 -11 -11 -2 -41
-7 -67 -10 -423 -50 -927 -230 -1323 -472 -11 -7 -27 -15 -35 -19 -28 -14
-199 -133 -287 -200 -320 -245 -625 -581 -838 -925 -77 -125 -77 -124 -145
-259 -112 -220 -207 -464 -261 -670 -5 -19 -11 -42 -14 -50 -9 -37 -35 -148
-39 -175 -3 -16 -8 -41 -11 -55 -2 -13 -7 -42 -10 -65 -3 -22 -10 -67 -15
-100 -10 -66 -19 -148 -25 -216 -5 -59 -6 -432 -1 -493 9 -103 16 -182 20
-201 2 -11 7 -45 10 -75 4 -30 11 -75 16 -100 6 -25 12 -56 14 -70 48 -276
163 -607 311 -901 338 -671 913 -1237 1580 -1560 72 -34 141 -68 155 -74 50
-25 298 -114 400 -143 124 -36 305 -78 375 -88 28 -3 52 -7 55 -9 3 -2 28 -6
55 -9 28 -4 66 -9 85 -11 193 -27 658 -27 840 0 14 2 45 6 70 9 25 3 56 8 70
11 14 2 39 7 55 10 42 6 198 41 273 59 74 19 342 105 357 115 6 4 28 13 50 20
95 32 340 153 479 236 201 120 554 382 571 424 4 10 -154 174 -463 483 l-468
468 -25 -20 c-13 -12 -34 -30 -47 -41 -12 -10 -26 -19 -31 -19 -5 0 -11 -4
-13 -8 -6 -15 -181 -128 -284 -184 -243 -131 -509 -211 -809 -244 -91 -10
-305 -11 -387 -3 -119 13 -162 18 -188 24 -147 29 -192 40 -281 69 -215 69
-375 146 -559 269 -58 38 -107 72 -110 76 -3 3 -27 24 -55 45 -73 57 -262 250
-326 331 -259 333 -416 717 -456 1115 -12 115 -8 425 6 520 124 846 707 1533
1511 1780 69 21 142 41 164 44 21 4 41 8 45 11 4 2 30 7 57 10 27 4 60 8 74
11 128 23 489 22 613 -2 12 -2 49 -9 82 -15 335 -59 678 -216 950 -434 l69
-55 468 467 c257 257 468 471 468 476 0 19 -250 221 -390 314 -328 220 -611
351 -1030 478 -53 16 -307 71 -365 80 -23 3 -50 7 -60 9 -11 2 -51 7 -90 11
-38 4 -83 9 -100 11 -38 5 -532 14 -537 10z"/>
</g>
</svg>
