<svg xmlns="http://www.w3.org/2000/svg" viewBox="0 0 429.056 429.056">
	<style>
		path { fill: #000; }

		@media (prefers-color-scheme: dark) {
			path { fill: #fff; }
		}
	</style>
  <path d="M413.696 182.272h-21.504v-68.096c-.512-8.192-7.168-14.848-15.36-15.36H229.888V4.608h-30.72v94.208H52.224c-8.192.512-14.848 7.168-15.36 15.36v68.096H15.36c-8.704 0-15.36 6.656-15.36 15.36v101.376c0 8.704 6.656 15.36 15.36 15.36h21.504v94.72c.512 8.192 7.168 14.848 15.36 15.36h324.608c8.192-.512 14.848-7.168 15.36-15.36v-94.72h21.504c8.704 0 15.36-6.656 15.36-15.36V197.632c0-8.704-6.656-15.36-15.36-15.36zm-313.344 36.352c0-24.576 19.968-44.544 44.544-44.544s44.544 19.968 44.544 44.544-19.968 44.544-44.544 44.544-44.544-19.968-44.544-44.544zm181.76 133.632H146.944v-30.72h135.168v30.72zm46.592-133.632c0 24.576-19.968 44.544-44.544 44.544-25.088 0-45.056-19.968-45.568-44.544 0-25.088 19.968-45.056 44.544-45.568 24.576-.512 45.056 19.968 45.568 44.544v1.024z" />
</svg>
